<?xml version="1.0" encoding="UTF-8" standalone="no"?>
<!-- Created with Inkscape (http://www.inkscape.org/) -->

<svg
   width="200"
   height="200"
   viewBox="0 0 200 200"
   version="1.1"
   id="svg8"
   inkscape:version="1.2.2 (732a01da63, 2022-12-09)"
   sodipodi:docname="ga_large.svg"
   xmlns:inkscape="http://www.inkscape.org/namespaces/inkscape"
   xmlns:sodipodi="http://sodipodi.sourceforge.net/DTD/sodipodi-0.dtd"
   xmlns="http://www.w3.org/2000/svg"
   xmlns:svg="http://www.w3.org/2000/svg"
   xmlns:rdf="http://www.w3.org/1999/02/22-rdf-syntax-ns#"
   xmlns:cc="http://creativecommons.org/ns#"
   xmlns:dc="http://purl.org/dc/elements/1.1/">
  <defs
     id="defs2" />
  <sodipodi:namedview
     id="base"
     pagecolor="#ffffff"
     bordercolor="#666666"
     borderopacity="1.0"
     inkscape:pageopacity="0.0"
     inkscape:pageshadow="2"
     inkscape:zoom="5.6"
     inkscape:cx="135.44643"
     inkscape:cy="103.48214"
     inkscape:document-units="mm"
     inkscape:current-layer="layer1"
     showgrid="true"
     inkscape:window-width="2880"
     inkscape:window-height="1620"
     inkscape:window-x="802"
     inkscape:window-y="412"
     inkscape:window-maximized="0"
     units="px"
     inkscape:showpageshadow="0"
     inkscape:pagecheckerboard="0"
     inkscape:deskcolor="#d1d1d1">
    <inkscape:grid
       type="xygrid"
       id="grid815"
       units="px"
       spacingx="1.0583333"
       spacingy="1.0583333" />
  </sodipodi:namedview>
  <metadata
     id="metadata5">
    <rdf:RDF>
      <cc:Work
         rdf:about="">
        <dc:format>image/svg+xml</dc:format>
        <dc:type
           rdf:resource="http://purl.org/dc/dcmitype/StillImage" />
      </cc:Work>
    </rdf:RDF>
  </metadata>
  <g
     inkscape:label="Layer 1"
     inkscape:groupmode="layer"
     id="layer1"
     transform="translate(0,-244.08333)">
    <path
       style="fill:#000000;fill-opacity:1;stroke:#090909;stroke-width:2.0074;stroke-linecap:round;stroke-linejoin:round;stroke-miterlimit:4;stroke-dasharray:none;stroke-opacity:1"
       d="m 100.00002,248.08333 c 6.02221,0 10.03702,12.04442 10.03702,24.08884 v 36.13326 c 0,16.05923 78.28873,60.22211 78.28873,60.22211 v 8.02961 c 0,0 -78.28873,-28.10365 -78.28873,-16.05923 0,48.17769 -4.01481,56.2073 -4.01481,56.2073 l 26.09624,16.05923 -0.0799,8.14387 c 0,0 -28.02376,-8.14387 -32.03856,-8.14387 -4.014792,0 -32.323087,7.94225 -32.323087,7.94225 l 0.204635,-7.94225 26.096245,-16.05923 c 0,0 -4.014807,-8.02961 -4.014807,-56.2073 0,-12.04442 -78.288754,16.05923 -78.288754,16.05923 v -8.02961 c 0,0 78.288754,-44.16288 78.288754,-60.22211 v -36.13326 c 0,-12.04442 4.01479,-24.08884 10.037001,-24.08884 z"
       id="path1473"
       inkscape:connector-curvature="0"
       sodipodi:nodetypes="szzccsccczcccscczzzs" />
  </g>
</svg>
