<?xml version="1.0" encoding="UTF-8" standalone="no"?>
<!-- Created with Inkscape (http://www.inkscape.org/) -->

<svg
   xmlns:dc="http://purl.org/dc/elements/1.1/"
   xmlns:cc="http://creativecommons.org/ns#"
   xmlns:rdf="http://www.w3.org/1999/02/22-rdf-syntax-ns#"
   xmlns:svg="http://www.w3.org/2000/svg"
   xmlns="http://www.w3.org/2000/svg"
   xmlns:sodipodi="http://sodipodi.sourceforge.net/DTD/sodipodi-0.dtd"
   xmlns:inkscape="http://www.inkscape.org/namespaces/inkscape"
   width="50mm"
   height="50mm"
   viewBox="0 0 50 50"
   version="1.1"
   id="svg8"
   inkscape:version="0.92.5 (2060ec1f9f, 2020-04-08)"
   sodipodi:docname="plane_small.svg">
  <defs
     id="defs2" />
  <sodipodi:namedview
     id="base"
     pagecolor="#ffffff"
     bordercolor="#666666"
     borderopacity="1.0"
     inkscape:pageopacity="0.0"
     inkscape:pageshadow="2"
     inkscape:zoom="5.6"
     inkscape:cx="160.13505"
     inkscape:cy="99.010193"
     inkscape:document-units="mm"
     inkscape:current-layer="layer1"
     showgrid="true"
     inkscape:window-width="2880"
     inkscape:window-height="1620"
     inkscape:window-x="950"
     inkscape:window-y="457"
     inkscape:window-maximized="0">
    <inkscape:grid
       type="xygrid"
       id="grid815" />
  </sodipodi:namedview>
  <metadata
     id="metadata5">
    <rdf:RDF>
      <cc:Work
         rdf:about="">
        <dc:format>image/svg+xml</dc:format>
        <dc:type
           rdf:resource="http://purl.org/dc/dcmitype/StillImage" />
        <dc:title></dc:title>
      </cc:Work>
    </rdf:RDF>
  </metadata>
  <g
     inkscape:label="Layer 1"
     inkscape:groupmode="layer"
     id="layer1"
     transform="translate(0,-247)">
    <path
       style="fill:#000000;stroke:#000000;stroke-width:0.5;stroke-linecap:round;stroke-linejoin:round;stroke-opacity:1;stroke-miterlimit:4;stroke-dasharray:none;fill-opacity:0.96533334"
       d="m 1,261 c -1.03340869,0.0668 -1,6 0,7 1,1 21,4 21,4 l 1,12 c 0,0 -8,2 -9,3 -1,1 0,4 2,4 h 18 c 2,0 3,-3 2,-4 -1,-1 -9,-3 -9,-3 l 1,-12 c 0,0 20,-3 21,-4 1,-1 1.011812,-6.95275 0,-7 -1.011812,-0.0473 -21,-1 -21,-1 v -8 c 0,-1 -6,-1 -6,0 v 8 c 0,0 -19.9665913,0.93318 -21,1 z"
       id="path828"
       inkscape:connector-curvature="0"
       sodipodi:nodetypes="zzcczzzzcczzczzcz" />
  </g>
</svg>
