<?xml version="1.0" encoding="UTF-8" standalone="no"?>
<!-- Created with Inkscape (http://www.inkscape.org/) -->

<svg
   xmlns:dc="http://purl.org/dc/elements/1.1/"
   xmlns:cc="http://creativecommons.org/ns#"
   xmlns:rdf="http://www.w3.org/1999/02/22-rdf-syntax-ns#"
   xmlns:svg="http://www.w3.org/2000/svg"
   xmlns="http://www.w3.org/2000/svg"
   xmlns:xlink="http://www.w3.org/1999/xlink"
   xmlns:sodipodi="http://sodipodi.sourceforge.net/DTD/sodipodi-0.dtd"
   xmlns:inkscape="http://www.inkscape.org/namespaces/inkscape"
   width="180mm"
   height="180mm"
   viewBox="0 0 180 180"
   version="1.1"
   id="svg8"
   inkscape:version="0.92.5 (2060ec1f9f, 2020-04-08)"
   sodipodi:docname="logo2.svg"
   inkscape:label="shadow">
  <defs
     id="defs2">
    <linearGradient
       inkscape:collect="always"
       id="linearGradient4707">
      <stop
         style="stop-color:#ffffff;stop-opacity:0.14399999"
         offset="0"
         id="stop4703" />
      <stop
         style="stop-color:#000000;stop-opacity:0.33333334"
         offset="1"
         id="stop4705" />
    </linearGradient>
    <linearGradient
       id="linearGradient4681"
       inkscape:collect="always">
      <stop
         id="stop4677"
         offset="0"
         style="stop-color:#005f3a;stop-opacity:0.34509805" />
      <stop
         id="stop4679"
         offset="1"
         style="stop-color:#198f00;stop-opacity:0.6156863" />
    </linearGradient>
    <linearGradient
       id="linearGradient4675"
       inkscape:collect="always">
      <stop
         id="stop4671"
         offset="0"
         style="stop-color:#005f3a;stop-opacity:0.34509805" />
      <stop
         id="stop4673"
         offset="1"
         style="stop-color:#198f00;stop-opacity:0.6156863" />
    </linearGradient>
    <linearGradient
       id="linearGradient4669"
       inkscape:collect="always">
      <stop
         id="stop4665"
         offset="0"
         style="stop-color:#005f3a;stop-opacity:0.34509805" />
      <stop
         id="stop4667"
         offset="1"
         style="stop-color:#198f00;stop-opacity:0.6156863" />
    </linearGradient>
    <linearGradient
       inkscape:collect="always"
       id="linearGradient4655">
      <stop
         style="stop-color:#005f3a;stop-opacity:0.34509805"
         offset="0"
         id="stop4651" />
      <stop
         style="stop-color:#198f00;stop-opacity:0.6156863"
         offset="1"
         id="stop4653" />
    </linearGradient>
    <linearGradient
       inkscape:collect="always"
       xlink:href="#linearGradient4669"
       id="linearGradient4657"
       x1="84.790886"
       y1="176.10486"
       x2="85.759689"
       y2="105.4804"
       gradientUnits="userSpaceOnUse" />
    <linearGradient
       inkscape:collect="always"
       xlink:href="#linearGradient4675"
       id="linearGradient4659"
       x1="88.759636"
       y1="144.92181"
       x2="85.924812"
       y2="64.790871"
       gradientUnits="userSpaceOnUse" />
    <linearGradient
       inkscape:collect="always"
       xlink:href="#linearGradient4655"
       id="linearGradient4661"
       x1="85.546837"
       y1="123.75515"
       x2="86.680771"
       y2="50.61676"
       gradientUnits="userSpaceOnUse" />
    <linearGradient
       inkscape:collect="always"
       xlink:href="#linearGradient4681"
       id="linearGradient4663"
       x1="79.044273"
       y1="104.07403"
       x2="79.121246"
       y2="26.804258"
       gradientUnits="userSpaceOnUse"
       gradientTransform="translate(-1.1339286,-7.3705357)" />
    <radialGradient
       inkscape:collect="always"
       xlink:href="#linearGradient4707"
       id="radialGradient4709"
       cx="90"
       cy="207"
       fx="90"
       fy="207"
       r="90"
       gradientUnits="userSpaceOnUse"
       gradientTransform="matrix(1.7853506,0,0,1.7853506,-76.013512,-281.38068)" />
  </defs>
  <sodipodi:namedview
     id="base"
     pagecolor="#ffffff"
     bordercolor="#666666"
     borderopacity="1.0"
     inkscape:pageopacity="0.0"
     inkscape:pageshadow="2"
     inkscape:zoom="2.8"
     inkscape:cx="336.34329"
     inkscape:cy="381.24878"
     inkscape:document-units="mm"
     inkscape:current-layer="svg8"
     showgrid="false"
     inkscape:window-width="2639"
     inkscape:window-height="2051"
     inkscape:window-x="474"
     inkscape:window-y="26"
     inkscape:window-maximized="0"
     inkscape:lockguides="false"
     inkscape:snap-others="false"
     inkscape:snap-global="false" />
  <metadata
     id="metadata5">
    <rdf:RDF>
      <cc:Work
         rdf:about="">
        <dc:format>image/svg+xml</dc:format>
        <dc:type
           rdf:resource="http://purl.org/dc/dcmitype/StillImage" />
        <dc:title></dc:title>
      </cc:Work>
    </rdf:RDF>
  </metadata>
  <g
     inkscape:groupmode="layer"
     id="layer5"
     inkscape:label="shadow"
     sodipodi:insensitive="true">
    <rect
       style="opacity:1;fill:#ffffff;fill-opacity:1;fill-rule:nonzero;stroke:none;stroke-width:28.45961761;stroke-linecap:round;stroke-linejoin:round;stroke-miterlimit:4;stroke-dasharray:none;stroke-dashoffset:0;stroke-opacity:1;paint-order:normal"
       id="rect4624"
       width="180"
       height="180"
       x="0"
       y="0" />
    <path
       style="fill:url(#linearGradient4663);fill-opacity:1;stroke:none;stroke-width:0.26618785px;stroke-linecap:butt;stroke-linejoin:miter;stroke-opacity:1"
       d="m -19.341551,36.018231 50.648808,9.539529 39.6875,-7.199936 30.238093,-12.816242 49.32589,7.460196 39.6875,27.162785 V 178.38006 l -209.776779,-0.19129 z"
       id="path4554"
       inkscape:connector-curvature="0"
       sodipodi:nodetypes="ccccccccc" />
    <path
       style="fill:url(#linearGradient4661);fill-opacity:1;stroke:none;stroke-width:0.26618785px;stroke-linecap:butt;stroke-linejoin:miter;stroke-opacity:1"
       d="M -13.671908,64.93341 23.18077,61.015242 50.395055,72.520063 83.467971,71.743421 122.02154,56.44044 157.36232,71.743421 210.84595,55.484005 199.69565,188.04605 -8.191253,189.00249 Z"
       id="path4556"
       inkscape:connector-curvature="0"
       sodipodi:nodetypes="cccccccccc" />
    <path
       style="fill:url(#linearGradient4659);fill-opacity:1;stroke:none;stroke-width:0.26618785px;stroke-linecap:butt;stroke-linejoin:miter;stroke-opacity:1"
       d="m -17.45167,116.8872 38.931547,-22.189315 63.31101,9.946935 40.254463,3.44318 27.78125,-10.329519 61.04316,12.242389 -5.85864,77.6626 -226.40773,-2.10416 z"
       id="path4558"
       inkscape:connector-curvature="0"
       sodipodi:nodetypes="ccccccccc" />
    <path
       style="fill:url(#linearGradient4657);fill-opacity:1;stroke:none;stroke-width:0.26618785px;stroke-linecap:butt;stroke-linejoin:miter;stroke-opacity:1"
       d="m -23.121311,139.37816 42.144343,6.88451 66.334822,-6.77138 56.507436,0.54167 51.97173,8.60792 -4.91369,41.50933 -207.31994,-4.5909 z"
       id="path4560"
       inkscape:connector-curvature="0"
       sodipodi:nodetypes="cccccccc" />
  </g>
  <circle
     style="display:inline;opacity:1;fill:url(#radialGradient4709);fill-opacity:1;fill-rule:nonzero;stroke:none;stroke-width:0.89267528;stroke-linecap:round;stroke-linejoin:round;stroke-miterlimit:4;stroke-dasharray:none;stroke-dashoffset:0;stroke-opacity:0.09599998;paint-order:normal"
     cx="84.668045"
     cy="88.186905"
     r="160.68155"
     id="path4683"
     sodipodi:insensitive="true" />
  <g
     inkscape:label="Layer 1"
     inkscape:groupmode="layer"
     id="layer1"
     style="display:inline"
     transform="translate(0,-117)">
    <path
       style="fill:#000000;fill-opacity:1;stroke:#000000;stroke-width:0;stroke-linecap:butt;stroke-linejoin:miter;stroke-miterlimit:4;stroke-dasharray:none;stroke-opacity:1"
       d="m 44.561564,265.85248 c -0.287606,0.12948 -2.171398,0.15823 -2.157018,-0.25885 0.01447,-0.41701 0.934705,-0.46016 0.977845,-0.79091 0.04315,-0.33075 0.158174,-0.94908 -0.17256,-1.56743 -0.330741,-0.61835 -0.330741,-0.43139 -0.330741,-0.43139 0,0 -0.497824,0.63851 -0.632728,1.30139 -0.172478,1.17197 -0.227757,1.26028 -0.307386,1.35533 -0.07963,0.0951 -1.137829,0.16167 -1.533278,0.18334 -0.44581,0.0242 -0.503304,-0.4386 -0.08627,-0.68307 0.417023,-0.24443 0.941896,-0.17254 0.898755,-0.93469 -0.04315,-0.76214 -0.409833,-2.93355 0.02158,-3.43686 0.431405,-0.50328 0.963472,-0.23007 1.10727,-0.37387 0.143798,-0.14375 -0.575204,-1.20793 -0.86281,-1.61057 -0.2876,-0.40264 0.172564,-1.95569 0.94909,-0.53208 0.776523,1.42365 0.532064,1.52431 0.891566,0.69025 0.3595,-0.83403 0.690246,-1.38048 1.092887,-1.50989 0.402647,-0.12949 0.618348,-0.0432 0.618348,-0.0432 0,0 -0.706474,-0.20729 -0.609198,-0.80994 0.137841,-0.85395 0.465634,-1.43613 1.27068,-1.36146 0.67111,0.0622 1.136032,0.35354 1.131819,1.33373 -0.0028,0.60412 -0.153973,0.82329 -0.384052,0.90957 -0.230083,0.0863 1.078506,-0.10067 1.452389,0.37387 0.373884,0.47455 1.95455,2.48558 1.134886,3.04641 -0.81967,0.56083 -1.411048,-0.19844 -1.61653,0.22383 -0.115768,0.23822 0.0072,0.51173 -0.05042,0.77058 -0.05752,0.25884 0.129421,1.92692 -0.316364,2.22893 -0.445781,0.30197 -1.926932,0.11497 -2.070731,0.23007 -0.143799,0.11498 0.115046,1.46676 -0.417025,1.69685 z"
       id="path851"
       inkscape:connector-curvature="0"
       sodipodi:nodetypes="cccccczcccccccccccccccccccccc" />
    <ellipse
       style="fill:none;fill-opacity:0.50262697;stroke:#000000;stroke-width:0.51654315;stroke-linecap:butt;stroke-linejoin:round;stroke-miterlimit:4;stroke-dasharray:none;stroke-opacity:1"
       id="path849"
       cx="123.22192"
       cy="231.75137"
       rx="5.1958404"
       ry="6.2653017"
       transform="matrix(0.94943544,0.31396232,-0.30021516,0.95387151,0,0)" />
    <path
       style="fill:#000000;fill-opacity:1;stroke:#000000;stroke-width:0;stroke-linecap:butt;stroke-linejoin:miter;stroke-miterlimit:4;stroke-dasharray:none;stroke-opacity:1"
       d="m 52.693901,258.88901 c -0.345721,0.42707 -3.401282,0.86629 -4.45103,0.6362 -1.049748,-0.23007 4.028226,-0.82766 4.45103,-0.6362 z"
       id="path853"
       inkscape:connector-curvature="0"
       sodipodi:nodetypes="ccc" />
    <path
       style="fill:#000000;fill-opacity:1;stroke:#000000;stroke-width:0;stroke-linecap:butt;stroke-linejoin:miter;stroke-miterlimit:4;stroke-dasharray:none;stroke-opacity:0.98774073"
       d="m 46.790478,261.13581 c 0,0 0.790905,1.68246 1.739992,2.43022 0.949087,0.74777 1.554078,1.24367 1.554078,1.24367 0.264375,-0.22371 -0.820694,-1.53127 -1.726636,-2.56664 -0.905948,-1.03536 -1.567434,-1.10725 -1.567434,-1.10725 z"
       id="path855"
       inkscape:connector-curvature="0"
       sodipodi:nodetypes="ccccc" />
    <path
       style="fill:#000000;fill-opacity:0.50262697;stroke:#000000;stroke-width:0;stroke-linecap:butt;stroke-linejoin:miter;stroke-miterlimit:4;stroke-dasharray:none;stroke-opacity:1"
       d="m 48.688652,253.71566 c 0,0 -0.805283,1.23669 -1.164789,2.2577 -0.359502,1.02097 -0.747761,2.43021 -0.747761,2.43021 0,0 2.070732,-4.11269 2.157013,-4.51535 0.08627,-0.40264 -0.244463,-0.17256 -0.244463,-0.17256 z"
       id="path857"
       inkscape:connector-curvature="0" />
    <path
       style="fill:none;stroke:#000000;stroke-width:0.44764733;stroke-linecap:butt;stroke-linejoin:miter;stroke-miterlimit:4;stroke-dasharray:none;stroke-opacity:1"
       d="m 24.860238,221.94084 c 5.206156,17.32672 17.611451,30.74886 17.611451,30.74886"
       id="path859"
       inkscape:connector-curvature="0"
       sodipodi:nodetypes="cc" />
    <path
       style="fill:none;stroke:#000000;stroke-width:0.44764733;stroke-linecap:butt;stroke-linejoin:miter;stroke-miterlimit:4;stroke-dasharray:none;stroke-opacity:1"
       d="m 27.274404,217.34428 7.304307,10.37741 -2.757094,-15.22976"
       id="path861"
       inkscape:connector-curvature="0"
       sodipodi:nodetypes="ccc" />
    <path
       style="fill:none;stroke:#000000;stroke-width:0.44764733;stroke-linecap:butt;stroke-linejoin:miter;stroke-miterlimit:4;stroke-dasharray:none;stroke-opacity:1"
       d="m 37.18109,210.23975 4.939487,14.19609 2.3711,-17.39939"
       id="path863"
       inkscape:connector-curvature="0"
       sodipodi:nodetypes="ccc" />
    <path
       style="fill:none;stroke:#000000;stroke-width:0.44764733;stroke-linecap:butt;stroke-linejoin:miter;stroke-miterlimit:4;stroke-dasharray:none;stroke-opacity:1"
       d="m 53.429098,204.60014 c 0.162703,0.52876 0.39447,17.79507 0.39447,17.79507 l 7.357741,-18.67593"
       id="path867"
       inkscape:connector-curvature="0"
       sodipodi:nodetypes="ccc" />
    <path
       style="fill:none;stroke:#000000;stroke-width:0.44764733;stroke-linecap:butt;stroke-linejoin:miter;stroke-miterlimit:4;stroke-dasharray:none;stroke-opacity:1"
       d="m 65.752344,204.85476 c -0.08135,0.4474 -3.420629,17.97678 -3.420629,17.97678 l 10.34662,-15.4122"
       id="path869"
       inkscape:connector-curvature="0"
       sodipodi:nodetypes="ccc" />
    <path
       style="fill:none;stroke:#000000;stroke-width:0.44764733;stroke-linecap:butt;stroke-linejoin:miter;stroke-miterlimit:4;stroke-dasharray:none;stroke-opacity:1"
       d="m 77.190155,211.23444 -7.561107,15.7039 11.716742,-9.62797"
       id="path871"
       inkscape:connector-curvature="0"
       sodipodi:nodetypes="ccc" />
    <path
       style="fill:none;stroke:#000000;stroke-width:0.44764733;stroke-linecap:butt;stroke-linejoin:miter;stroke-miterlimit:4;stroke-dasharray:none;stroke-opacity:1"
       d="m 48.688652,253.71566 c 0,0 21.359391,-13.2279 36.205068,-30.35128"
       id="path875"
       inkscape:connector-curvature="0" />
    <path
       style="fill:#000000;fill-opacity:1;fill-rule:nonzero;stroke:#000000;stroke-width:0;stroke-linecap:butt;stroke-linejoin:miter;stroke-miterlimit:4;stroke-dasharray:none;stroke-opacity:1"
       d="m 26.578377,223.67581 c 0,0 -3.910734,-1.12564 -4.366826,-2.34055 -0.935899,-2.49305 -0.974134,-4.85817 1.375909,-9.8663 2.37574,-5.06291 11.224573,-11.12182 19.168939,-12.84078 8.460851,-1.83072 15.16428,-1.77336 25.305642,2.63881 7.430938,3.23295 14.264341,10.46737 15.553966,12.35476 1.36949,2.00428 2.415271,4.55515 2.70374,6.61575 0.407161,2.90838 -0.260888,4.13181 -0.260888,4.13181 0,0 -1.89232,-0.90672 -2.502415,-1.55749 -0.610098,-0.65077 -1.9072,-4.78743 -4.816274,-8.77349 -3.519044,-4.82182 -7.358936,-6.58163 -8.009708,-6.785 -0.65077,-0.20335 -6.247177,-1.97026 -15.597531,-0.60557 -6.935273,1.01219 -14.904046,4.06323 -19.235905,7.09148 -4.910248,3.43263 -7.606644,6.7932 -9.318649,9.93657 z"
       id="path826"
       inkscape:connector-curvature="0"
       sodipodi:nodetypes="cccssccccscscc" />
    <path
       style="fill:none;stroke:#000000;stroke-width:0.44764733;stroke-linecap:butt;stroke-linejoin:miter;stroke-miterlimit:4;stroke-dasharray:none;stroke-opacity:1"
       d="m 34.578711,227.72169 7.892978,24.96801 -0.351112,-28.25386"
       id="path877"
       inkscape:connector-curvature="0"
       sodipodi:nodetypes="ccc" />
    <path
       style="fill:none;stroke:#000000;stroke-width:0.44764733;stroke-linecap:butt;stroke-linejoin:miter;stroke-miterlimit:4;stroke-dasharray:none;stroke-opacity:1"
       d="m 53.823568,222.39521 -5.134916,31.32045 13.643063,-30.88412"
       id="path881"
       inkscape:connector-curvature="0"
       sodipodi:nodetypes="ccc" />
    <path
       style="fill:none;stroke:#000000;stroke-width:0.44764733;stroke-linecap:butt;stroke-linejoin:miter;stroke-miterlimit:4;stroke-dasharray:none;stroke-opacity:1"
       d="M 69.629048,226.93834 48.688652,253.71566"
       id="path883"
       inkscape:connector-curvature="0"
       sodipodi:nodetypes="cc" />
    <path
       style="fill:none;stroke:#000000;stroke-width:0.62842816;stroke-linecap:round;stroke-linejoin:miter;stroke-miterlimit:4;stroke-dasharray:none;stroke-opacity:1"
       d="m 42.288661,252.03891 1.484565,6.38568 3.002876,-0.021 2.339618,-5.56239"
       id="path885"
       inkscape:connector-curvature="0"
       sodipodi:nodetypes="cccc" />
  </g>
  <g
     inkscape:groupmode="layer"
     id="layer2"
     inkscape:label="Layer 2"
     style="display:inline"
     transform="translate(0,-117)">
    <path
       style="display:inline;fill:#000000;fill-opacity:1;stroke:#000000;stroke-width:0;stroke-linecap:butt;stroke-linejoin:miter;stroke-miterlimit:4;stroke-dasharray:none;stroke-opacity:1"
       d="m 77.481758,179.9372 c 0,0 -3.749504,0.25187 -4.973239,-0.51298 -1.223737,-0.76483 -3.557863,-4.30919 -3.574886,-7.74724 -0.01736,-3.5069 1.812243,-8.90266 6.607451,-13.2906 5.366749,-4.91096 14.45048,-9.53752 24.699276,-10.14938 10.24877,-0.61188 15.72461,-1.12877 31.05412,4.39711 11.24389,4.05312 15.39647,6.27647 21.65356,13.19667 2.14645,2.37391 4.79928,6.78158 5.0031,11.29894 0.1076,2.38882 -0.48002,5.32089 -0.68399,5.62684 -0.20395,0.30592 -2.95216,0.41599 -3.81798,-0.41976 -3.70894,-3.58021 -7.87162,-10.31813 -10.65669,-13.35655 -2.57774,-2.81222 -7.31193,-8.02941 -17.37851,-11.68525 -7.69646,-2.79508 -12.2842,-2.91256 -13.76288,-2.91256 -1.47868,0 -11.08925,1.37202 -20.408488,7.61539 -7.568919,5.07076 -12.348085,10.49647 -13.760844,17.93937 z"
       id="path847"
       inkscape:connector-curvature="0"
       sodipodi:nodetypes="cccscsccccscssc" />
    <ellipse
       style="display:inline;fill:none;fill-opacity:0.50262697;stroke:#000000;stroke-width:0.6772027;stroke-linecap:butt;stroke-linejoin:round;stroke-miterlimit:4;stroke-dasharray:none;stroke-opacity:1"
       id="path887"
       cx="131.01462"
       cy="227.66957"
       rx="5.8867197"
       ry="7.7241249"
       transform="matrix(0.99610442,0.08818152,-0.08800866,0.99611971,0,0)" />
    <path
       style="display:inline;fill:none;stroke:#000000;stroke-width:0.47404188;stroke-linecap:butt;stroke-linejoin:miter;stroke-miterlimit:4;stroke-dasharray:none;stroke-opacity:1"
       d="m 114.30587,232.39171 c 0,0 -3.55996,2.63238 -3.68533,6.55146 -0.1121,3.50484 1.00453,4.91025 1.86986,6.26231"
       id="path889"
       inkscape:connector-curvature="0"
       sodipodi:nodetypes="ccc" />
    <path
       style="display:inline;fill:none;stroke:#000000;stroke-width:0.28553843px;stroke-linecap:butt;stroke-linejoin:miter;stroke-opacity:1"
       d="m 116.27254,239.94423 c 0,0 -4.24585,0.0445 -6.28294,-0.87486"
       id="path891"
       inkscape:connector-curvature="0"
       sodipodi:nodetypes="cc" />
    <path
       style="display:inline;fill:none;stroke:#000000;stroke-width:0.28553843px;stroke-linecap:butt;stroke-linejoin:miter;stroke-opacity:1"
       d="m 107.24945,232.25503 c 0,0 1.91088,1.67655 0.81123,5.98509 -1.09968,4.30853 -2.57793,4.47077 -2.57793,4.47077"
       id="path893"
       inkscape:connector-curvature="0" />
    <path
       style="display:inline;fill:#000000;fill-opacity:1;stroke:#000000;stroke-width:0;stroke-linecap:butt;stroke-linejoin:miter;stroke-miterlimit:4;stroke-dasharray:none;stroke-opacity:1"
       d="m 104.59942,246.33438 c -0.70307,0.34253 -0.81123,0.39661 -2.41566,0.45069 -1.60443,0.0541 -2.379611,-0.018 -2.325532,-0.50477 0.05407,-0.48673 1.027572,-0.43266 1.135742,-0.90135 0.10822,-0.46872 0.12623,-1.02757 0.37857,-2.66806 0.25238,-1.64047 0.667,-2.72214 1.29794,-3.49731 0.63096,-0.77516 0.63096,-0.36056 0.63096,-0.73911 0,-0.37857 -0.018,-1.74867 0.5228,-1.92893 0.5408,-0.18026 0.30647,0.45069 1.20782,-0.25238 0.90138,-0.70306 1.02757,-0.12624 0.91942,-0.57689 -0.10818,-0.45068 -0.91942,-0.18027 -0.61294,-1.26189 0.30647,-1.08164 0.5949,-1.983 1.47825,-2.00106 0.88332,-0.018 1.5143,0.12625 1.69457,1.64051 0.18026,1.5143 -0.19831,1.31599 -0.12624,1.53232 0.0722,0.21632 1.62246,0.0721 1.87485,0.90136 0.25237,0.82926 1.17178,0.66701 1.44216,1.1718 0.27043,0.50476 0.86534,2.03708 -0.14419,2.63198 -1.00954,0.59489 -1.37011,-0.70308 -1.47824,1.06361 -0.10818,1.76667 0.21632,3.94797 -0.018,4.27249 -0.23433,0.32449 -3.40715,0.25236 -3.6415,0.018 -0.23437,-0.23435 0.27039,-0.75713 -0.0541,-0.88332 -0.32449,-0.12624 -1.00952,-0.28846 -1.24389,0.036 -0.23435,0.3245 -0.50476,1.26194 -0.52279,1.49628 -0.018,0.23436 -3e-5,1e-5 -3e-5,1e-5 z"
       id="path895"
       inkscape:connector-curvature="0"
       sodipodi:nodetypes="cccsscsscccccccsccsccczc" />
    <path
       style="display:inline;fill:none;stroke:#000000;stroke-width:0.54176211;stroke-linecap:butt;stroke-linejoin:miter;stroke-miterlimit:4;stroke-dasharray:none;stroke-opacity:1"
       d="m 74.467221,178.3143 c 0,0 13.10417,30.03255 27.941959,50.73407"
       id="path897"
       inkscape:connector-curvature="0" />
    <path
       style="display:inline;fill:none;stroke:#000000;stroke-width:0.54176211;stroke-linecap:butt;stroke-linejoin:miter;stroke-miterlimit:4;stroke-dasharray:none;stroke-opacity:1"
       d="M 80.137688,168.62491 90.64959,184.36826 89.407004,158.37762"
       id="path901"
       inkscape:connector-curvature="0"
       sodipodi:nodetypes="ccc" />
    <path
       style="display:inline;fill:none;stroke:#000000;stroke-width:0.54176211;stroke-linecap:butt;stroke-linejoin:miter;stroke-miterlimit:4;stroke-dasharray:none;stroke-opacity:1"
       d="m 94.556888,157.35785 c 0.407907,0.8668 7.087472,21.56833 7.087472,21.56833 l 1.32567,-24.98461"
       id="path903"
       inkscape:connector-curvature="0" />
    <path
       style="display:inline;fill:none;stroke:#000000;stroke-width:0.54176211;stroke-linecap:butt;stroke-linejoin:miter;stroke-miterlimit:4;stroke-dasharray:none;stroke-opacity:1"
       d="m 114.69271,153.44264 1.29327,26.72551 8.33268,-24.04297"
       id="path905"
       inkscape:connector-curvature="0"
       sodipodi:nodetypes="ccc" />
    <path
       style="display:inline;fill:none;stroke:#000000;stroke-width:0.54176211;stroke-linecap:butt;stroke-linejoin:miter;stroke-miterlimit:4;stroke-dasharray:none;stroke-opacity:1"
       d="m 134.62179,160.28641 -5.3391,24.81862 14.71113,-16.79805"
       id="path907"
       inkscape:connector-curvature="0"
       sodipodi:nodetypes="ccc" />
    <path
       style="display:inline;fill:none;stroke:#000000;stroke-width:0.54176211;stroke-linecap:butt;stroke-linejoin:miter;stroke-miterlimit:4;stroke-dasharray:none;stroke-opacity:1"
       d="m 153.04126,180.91474 c 0,0 -21.26242,30.59347 -42.6268,49.51038"
       id="path911"
       inkscape:connector-curvature="0"
       sodipodi:nodetypes="cc" />
    <path
       style="display:inline;fill:none;stroke:#000000;stroke-width:0.54176211;stroke-linecap:butt;stroke-linejoin:miter;stroke-miterlimit:4;stroke-dasharray:none;stroke-opacity:1"
       d="M 102.40918,229.04837 90.64959,184.36826"
       id="path913"
       inkscape:connector-curvature="0"
       sodipodi:nodetypes="cc" />
    <path
       style="display:inline;fill:none;stroke:#000000;stroke-width:0.54176211;stroke-linecap:butt;stroke-linejoin:miter;stroke-miterlimit:4;stroke-dasharray:none;stroke-opacity:1"
       d="m 101.64436,178.92618 0.76482,50.12219"
       id="path915"
       inkscape:connector-curvature="0" />
    <path
       style="display:inline;fill:none;stroke:#000000;stroke-width:0.54176211;stroke-linecap:butt;stroke-linejoin:miter;stroke-miterlimit:4;stroke-dasharray:none;stroke-opacity:1"
       d="m 115.98598,180.16815 -5.57152,50.25694 18.86823,-45.32006"
       id="path917"
       inkscape:connector-curvature="0"
       sodipodi:nodetypes="ccc" />
    <path
       style="display:inline;fill:none;stroke:#000000;stroke-width:0.71766818;stroke-linecap:round;stroke-linejoin:miter;stroke-miterlimit:4;stroke-dasharray:none;stroke-opacity:1"
       d="m 102.20521,228.25805 2.54946,9.25451 3.36529,0.0509 2.52396,-7.77582"
       id="path921"
       inkscape:connector-curvature="0"
       sodipodi:nodetypes="cccc" />
  </g>
</svg>
