<?xml version="1.0" encoding="UTF-8" standalone="no"?>
<!-- Created with Inkscape (http://www.inkscape.org/) -->

<svg
   xmlns:dc="http://purl.org/dc/elements/1.1/"
   xmlns:cc="http://creativecommons.org/ns#"
   xmlns:rdf="http://www.w3.org/1999/02/22-rdf-syntax-ns#"
   xmlns:svg="http://www.w3.org/2000/svg"
   xmlns="http://www.w3.org/2000/svg"
   xmlns:sodipodi="http://sodipodi.sourceforge.net/DTD/sodipodi-0.dtd"
   xmlns:inkscape="http://www.inkscape.org/namespaces/inkscape"
   width="180mm"
   height="180mm"
   viewBox="0 0 180 180"
   version="1.1"
   id="svg8"
   inkscape:version="0.92.5 (2060ec1f9f, 2020-04-08)"
   sodipodi:docname="logo.svg"
   inkscape:label="shadow">
  <defs
     id="defs2" />
  <sodipodi:namedview
     id="base"
     pagecolor="#ffffff"
     bordercolor="#666666"
     borderopacity="1.0"
     inkscape:pageopacity="0.0"
     inkscape:pageshadow="2"
     inkscape:zoom="2.8"
     inkscape:cx="347.97201"
     inkscape:cy="283.51329"
     inkscape:document-units="mm"
     inkscape:current-layer="layer3"
     showgrid="false"
     inkscape:window-width="3840"
     inkscape:window-height="2087"
     inkscape:window-x="0"
     inkscape:window-y="0"
     inkscape:window-maximized="1"
     inkscape:lockguides="false" />
  <metadata
     id="metadata5">
    <rdf:RDF>
      <cc:Work
         rdf:about="">
        <dc:format>image/svg+xml</dc:format>
        <dc:type
           rdf:resource="http://purl.org/dc/dcmitype/StillImage" />
        <dc:title></dc:title>
      </cc:Work>
    </rdf:RDF>
  </metadata>
  <g
     inkscape:groupmode="layer"
     id="layer3"
     inkscape:label="backdrop"
     style="display:inline"
     transform="translate(0,-117)">
    <path
       style="display:inline;fill:#ffffff;fill-opacity:1;stroke:#000000;stroke-width:0;stroke-linecap:butt;stroke-linejoin:round;stroke-miterlimit:4;stroke-dasharray:none;stroke-opacity:1"
       d="m 22.284039,250.21576 -3.217782,-87.66803 44.889303,6.1506 49.37701,-14.40358 50.34026,14.86608 -1.69071,90.54843 -46.24862,-8.91219 -48.829246,10.63576 z"
       id="path1005"
       inkscape:connector-curvature="0"
       sodipodi:nodetypes="ccccccccc" />
    <path
       style="display:inline;fill:none;fill-opacity:1;stroke:#000000;stroke-width:2.34850121;stroke-linecap:butt;stroke-linejoin:round;stroke-miterlimit:4;stroke-dasharray:none;stroke-opacity:1"
       d="m 22.284039,250.21576 -3.217782,-87.66803 44.889303,6.1506 49.37701,-14.40358 50.34026,14.86608 -1.69071,90.54843 -46.24862,-8.91219 -48.829246,10.63576 z"
       id="path964"
       inkscape:connector-curvature="0"
       sodipodi:nodetypes="ccccccccc" />
    <path
       style="display:inline;fill:#000000;fill-opacity:0.19607843;stroke:#000000;stroke-width:0;stroke-linecap:butt;stroke-linejoin:miter;stroke-miterlimit:4;stroke-dasharray:none;stroke-opacity:1"
       d="m 113.33257,154.29475 2.40093,96.50232 46.24862,8.91219 1.69071,-90.54843 z"
       id="path977"
       inkscape:connector-curvature="0"
       sodipodi:nodetypes="ccccc" />
    <path
       style="display:inline;fill:#000000;fill-opacity:0.19607843;stroke:#000000;stroke-width:0;stroke-linecap:butt;stroke-linejoin:miter;stroke-miterlimit:4;stroke-dasharray:none;stroke-opacity:1"
       d="m 19.066257,162.54773 3.217782,87.66803 44.620215,11.21707 -2.948694,-92.7345 z"
       id="path979"
       inkscape:connector-curvature="0"
       sodipodi:nodetypes="ccccc" />
  </g>
  <g
     inkscape:label="Layer 1"
     inkscape:groupmode="layer"
     id="layer1"
     style="display:inline"
     transform="translate(0,-117)">
    <path
       style="fill:#000000;fill-opacity:1;stroke:#000000;stroke-width:0;stroke-linecap:butt;stroke-linejoin:miter;stroke-miterlimit:4;stroke-dasharray:none;stroke-opacity:1"
       d="m 55.618777,245.75172 c -0.167045,0.0752 -1.261179,0.0919 -1.252826,-0.15034 0.0084,-0.24221 0.54289,-0.26727 0.567946,-0.45937 0.02506,-0.1921 0.09187,-0.55124 -0.100226,-0.91039 -0.192098,-0.35914 -0.192098,-0.25056 -0.192098,-0.25056 0,0 -0.289144,0.37086 -0.367498,0.75587 -0.100178,0.6807 -0.132285,0.73199 -0.178535,0.7872 -0.04625,0.0552 -0.660866,0.0939 -0.890549,0.10648 -0.258933,0.0141 -0.292326,-0.25474 -0.05011,-0.39673 0.242213,-0.14198 0.547067,-0.10022 0.52201,-0.54289 -0.02506,-0.44266 -0.238037,-1.70384 0.01253,-1.99617 0.250566,-0.29232 0.559597,-0.13363 0.643118,-0.21715 0.08352,-0.0835 -0.334087,-0.70159 -0.501132,-0.93544 -0.167042,-0.23387 0.100227,-1.1359 0.551244,-0.30904 0.451017,0.82687 0.309031,0.88533 0.517835,0.40091 0.208803,-0.48443 0.400904,-0.80181 0.634764,-0.87698 0.233863,-0.0752 0.359145,-0.0251 0.359145,-0.0251 0,0 -0.41033,-0.12039 -0.35383,-0.47041 0.08006,-0.496 0.270446,-0.83413 0.738029,-0.79077 0.38979,0.0362 0.659823,0.20535 0.657377,0.77466 -0.0016,0.35088 -0.08943,0.47817 -0.223063,0.52828 -0.133636,0.0501 0.626411,-0.0585 0.843568,0.21716 0.217157,0.27562 1.13523,1.44366 0.659158,1.7694 -0.476076,0.32573 -0.819558,-0.11526 -0.938904,0.13 -0.06724,0.13836 0.0041,0.29722 -0.02928,0.44756 -0.03341,0.15034 0.07517,1.11919 -0.183748,1.29459 -0.258916,0.17539 -1.11919,0.0668 -1.202711,0.13363 -0.08352,0.0668 0.06682,0.85192 -0.242213,0.98556 z"
       id="path851"
       inkscape:connector-curvature="0"
       sodipodi:nodetypes="cccccczcccccccccccccccccccccc" />
    <ellipse
       style="fill:none;fill-opacity:0.50262697;stroke:#000000;stroke-width:0.30001566;stroke-linecap:butt;stroke-linejoin:round;stroke-miterlimit:4;stroke-dasharray:none;stroke-opacity:1"
       id="path849"
       cx="127.36184"
       cy="211.99854"
       rx="3.0178182"
       ry="3.6389766"
       transform="matrix(0.94943544,0.31396232,-0.30021516,0.95387151,0,0)" />
    <path
       style="fill:#000000;fill-opacity:1;stroke:#000000;stroke-width:0;stroke-linecap:butt;stroke-linejoin:miter;stroke-miterlimit:4;stroke-dasharray:none;stroke-opacity:1"
       d="m 60.342154,241.70724 c -0.200799,0.24805 -1.975513,0.50316 -2.585221,0.36952 -0.609709,-0.13363 2.339651,-0.48072 2.585221,-0.36952 z"
       id="path853"
       inkscape:connector-curvature="0"
       sodipodi:nodetypes="ccc" />
    <path
       style="fill:#000000;fill-opacity:1;stroke:#000000;stroke-width:0;stroke-linecap:butt;stroke-linejoin:miter;stroke-miterlimit:4;stroke-dasharray:none;stroke-opacity:0.98774073"
       d="m 56.913362,243.01221 c 0,0 0.459369,0.9772 1.010613,1.41151 0.551243,0.43432 0.90263,0.72234 0.90263,0.72234 0.153553,-0.12993 -0.47667,-0.88938 -1.002854,-1.49074 -0.526188,-0.60135 -0.910389,-0.64311 -0.910389,-0.64311 z"
       id="path855"
       inkscape:connector-curvature="0"
       sodipodi:nodetypes="ccccc" />
    <path
       style="fill:#000000;fill-opacity:0.50262697;stroke:#000000;stroke-width:0;stroke-linecap:butt;stroke-linejoin:miter;stroke-miterlimit:4;stroke-dasharray:none;stroke-opacity:1"
       d="m 58.015849,238.70248 c 0,0 -0.46772,0.71829 -0.676527,1.3113 -0.208803,0.593 -0.43431,1.41151 -0.43431,1.41151 0,0 1.202711,-2.38872 1.252825,-2.62258 0.05011,-0.23386 -0.141988,-0.10023 -0.141988,-0.10023 z"
       id="path857"
       inkscape:connector-curvature="0" />
    <path
       style="fill:none;stroke:#000000;stroke-width:0.25999999;stroke-linecap:butt;stroke-linejoin:miter;stroke-miterlimit:4;stroke-dasharray:none;stroke-opacity:1"
       d="m 44.175966,220.24721 c 3.02381,10.06362 10.228982,17.85938 10.228982,17.85938"
       id="path859"
       inkscape:connector-curvature="0"
       sodipodi:nodetypes="cc" />
    <path
       style="fill:none;stroke:#000000;stroke-width:0.25999999;stroke-linecap:butt;stroke-linejoin:miter;stroke-miterlimit:4;stroke-dasharray:none;stroke-opacity:1"
       d="m 45.578148,217.57747 4.242446,6.02735 -1.60136,-8.84567"
       id="path861"
       inkscape:connector-curvature="0"
       sodipodi:nodetypes="ccc" />
    <path
       style="fill:none;stroke:#000000;stroke-width:0.25999999;stroke-linecap:butt;stroke-linejoin:miter;stroke-miterlimit:4;stroke-dasharray:none;stroke-opacity:1"
       d="m 51.332093,213.45105 2.868924,8.2453 1.377169,-10.10582"
       id="path863"
       inkscape:connector-curvature="0"
       sodipodi:nodetypes="ccc" />
    <path
       style="fill:none;stroke:#000000;stroke-width:0.25999999;stroke-linecap:butt;stroke-linejoin:miter;stroke-miterlimit:4;stroke-dasharray:none;stroke-opacity:1"
       d="m 60.769168,210.17549 c 0.0945,0.30711 0.229113,10.33563 0.229113,10.33563 l 4.273482,-10.84724"
       id="path867"
       inkscape:connector-curvature="0"
       sodipodi:nodetypes="ccc" />
    <path
       style="fill:none;stroke:#000000;stroke-width:0.25999999;stroke-linecap:butt;stroke-linejoin:miter;stroke-miterlimit:4;stroke-dasharray:none;stroke-opacity:1"
       d="m 67.926685,210.32337 c -0.04725,0.25986 -1.98675,10.44118 -1.98675,10.44118 l 6.009465,-8.95163"
       id="path869"
       inkscape:connector-curvature="0"
       sodipodi:nodetypes="ccc" />
    <path
       style="fill:none;stroke:#000000;stroke-width:0.25999999;stroke-linecap:butt;stroke-linejoin:miter;stroke-miterlimit:4;stroke-dasharray:none;stroke-opacity:1"
       d="m 74.569929,214.02879 -4.391599,9.12105 6.805251,-5.59206"
       id="path871"
       inkscape:connector-curvature="0"
       sodipodi:nodetypes="ccc" />
    <path
       style="fill:none;stroke:#000000;stroke-width:0.25999999;stroke-linecap:butt;stroke-linejoin:miter;stroke-miterlimit:4;stroke-dasharray:none;stroke-opacity:1"
       d="m 58.015849,238.70248 c 0,0 12.405839,-7.68295 21.028421,-17.62845"
       id="path875"
       inkscape:connector-curvature="0" />
    <path
       style="fill:#000000;fill-opacity:1;fill-rule:nonzero;stroke:#000000;stroke-width:0;stroke-linecap:butt;stroke-linejoin:miter;stroke-miterlimit:4;stroke-dasharray:none;stroke-opacity:1"
       d="m 45.173886,221.25491 c 0,0 -2.271411,-0.65378 -2.536316,-1.35943 -0.543583,-1.44799 -0.565791,-2.82169 0.799148,-5.73048 1.379864,-2.94061 6.519392,-6.45972 11.133594,-7.45811 4.914183,-1.06331 8.80763,-1.02999 14.697878,1.53266 4.315995,1.87774 8.284933,6.0796 9.033966,7.17582 0.795419,1.16411 1.402823,2.64569 1.57037,3.84252 0.236486,1.68923 -0.151527,2.39981 -0.151527,2.39981 0,0 -1.099087,-0.52663 -1.453439,-0.90461 -0.354353,-0.37797 -1.107729,-2.7806 -2.79736,-5.09576 -2.043911,-2.80059 -4.274175,-3.82271 -4.652153,-3.94083 -0.377976,-0.11811 -3.628449,-1.14436 -9.059268,-0.35173 -4.028106,0.5879 -8.656484,2.35998 -11.172489,4.11884 -2.851942,1.99372 -4.418047,3.94558 -5.412404,5.7713 z"
       id="path826"
       inkscape:connector-curvature="0"
       sodipodi:nodetypes="cccssccccscscc" />
    <path
       style="fill:none;stroke:#000000;stroke-width:0.25999999;stroke-linecap:butt;stroke-linejoin:miter;stroke-miterlimit:4;stroke-dasharray:none;stroke-opacity:1"
       d="m 49.820594,223.60482 4.584354,14.50177 -0.203931,-16.41024"
       id="path877"
       inkscape:connector-curvature="0"
       sodipodi:nodetypes="ccc" />
    <path
       style="fill:none;stroke:#000000;stroke-width:0.25999999;stroke-linecap:butt;stroke-linejoin:miter;stroke-miterlimit:4;stroke-dasharray:none;stroke-opacity:1"
       d="m 60.998281,220.51112 -2.982432,18.19136 7.924086,-17.93793"
       id="path881"
       inkscape:connector-curvature="0"
       sodipodi:nodetypes="ccc" />
    <path
       style="fill:none;stroke:#000000;stroke-width:0.25999999;stroke-linecap:butt;stroke-linejoin:miter;stroke-miterlimit:4;stroke-dasharray:none;stroke-opacity:1"
       d="M 70.17833,223.14984 58.015849,238.70248"
       id="path883"
       inkscape:connector-curvature="0"
       sodipodi:nodetypes="cc" />
    <path
       style="fill:none;stroke:#000000;stroke-width:0.36500001;stroke-linecap:round;stroke-linejoin:miter;stroke-miterlimit:4;stroke-dasharray:none;stroke-opacity:1"
       d="m 54.298642,237.72861 0.862257,3.70889 1.744113,-0.0122 1.358884,-3.23072"
       id="path885"
       inkscape:connector-curvature="0"
       sodipodi:nodetypes="cccc" />
  </g>
  <g
     inkscape:groupmode="layer"
     id="layer2"
     inkscape:label="Layer 2"
     style="display:inline"
     transform="translate(0,-117)">
    <path
       style="display:inline;fill:#000000;fill-opacity:1;stroke:#000000;stroke-width:0;stroke-linecap:butt;stroke-linejoin:miter;stroke-miterlimit:4;stroke-dasharray:none;stroke-opacity:1"
       d="m 87.440385,191.02161 c 0,0 -2.768377,0.18595 -3.671899,-0.37875 -0.903523,-0.5647 -2.626882,-3.18162 -2.639451,-5.72004 -0.01282,-2.58925 1.338036,-6.57312 4.878489,-9.81288 3.962439,-3.6259 10.669244,-7.04184 18.236246,-7.4936 7.56699,-0.45176 11.60998,-0.8334 22.92824,3.24653 8.30172,2.99254 11.3677,4.63411 15.9875,9.74351 1.58479,1.75274 3.54345,5.00705 3.69395,8.34237 0.0795,1.76373 -0.35442,3.92858 -0.50502,4.15446 -0.15058,0.22588 -2.17967,0.30714 -2.81893,-0.30991 -2.73843,-2.64338 -5.81186,-7.6182 -7.86817,-9.86157 -1.90322,-2.07634 -5.39863,-5.92836 -12.8311,-8.62757 -5.68255,-2.06371 -9.06981,-2.15044 -10.16156,-2.15044 -1.09176,0 -8.18755,1.013 -15.068232,5.62268 -5.58837,3.7439 -9.116979,7.74988 -10.160063,13.24521 z"
       id="path847"
       inkscape:connector-curvature="0"
       sodipodi:nodetypes="cccscsccccscssc" />
    <ellipse
       style="display:inline;fill:none;fill-opacity:0.50262697;stroke:#000000;stroke-width:0.5;stroke-linecap:butt;stroke-linejoin:round;stroke-miterlimit:4;stroke-dasharray:none;stroke-opacity:1"
       id="path887"
       cx="131.96738"
       cy="223.37131"
       rx="4.3463502"
       ry="5.7029638"
       transform="matrix(0.99610442,0.08818152,-0.08800866,0.99611971,0,0)" />
    <path
       style="display:inline;fill:none;stroke:#000000;stroke-width:0.34999999;stroke-linecap:butt;stroke-linejoin:miter;stroke-miterlimit:4;stroke-dasharray:none;stroke-opacity:1"
       d="m 114.62878,229.75041 c 0,0 -2.62844,1.94356 -2.72099,4.83715 -0.0828,2.58773 0.74168,3.62539 1.38057,4.62365"
       id="path889"
       inkscape:connector-curvature="0"
       sodipodi:nodetypes="ccc" />
    <path
       style="display:inline;fill:none;stroke:#000000;stroke-width:0.21082199px;stroke-linecap:butt;stroke-linejoin:miter;stroke-opacity:1"
       d="m 116.08084,235.32667 c 0,0 -3.13485,0.0329 -4.6389,-0.64593"
       id="path891"
       inkscape:connector-curvature="0"
       sodipodi:nodetypes="cc" />
    <path
       style="display:inline;fill:none;stroke:#000000;stroke-width:0.21082199px;stroke-linecap:butt;stroke-linejoin:miter;stroke-opacity:1"
       d="m 109.4188,229.64949 c 0,0 1.41087,1.23785 0.59895,4.41898 -0.81192,3.18113 -1.90335,3.30091 -1.90335,3.30091"
       id="path893"
       inkscape:connector-curvature="0" />
    <path
       style="display:inline;fill:#000000;fill-opacity:1;stroke:#000000;stroke-width:0;stroke-linecap:butt;stroke-linejoin:miter;stroke-miterlimit:4;stroke-dasharray:none;stroke-opacity:1"
       d="m 107.4622,240.04472 c -0.51909,0.2529 -0.59895,0.29283 -1.78355,0.33276 -1.1846,0.0399 -1.75694,-0.0133 -1.71701,-0.37268 0.0399,-0.35937 0.75868,-0.31945 0.83855,-0.66551 0.0799,-0.34606 0.0932,-0.75868 0.27951,-1.96991 0.18634,-1.21121 0.49247,-2.00983 0.95831,-2.58217 0.46586,-0.57232 0.46586,-0.2662 0.46586,-0.54571 0,-0.27951 -0.0133,-1.29109 0.386,-1.42419 0.3993,-0.13309 0.22627,0.33276 0.89177,-0.18634 0.66551,-0.51909 0.75868,-0.0932 0.67883,-0.42593 -0.0799,-0.33275 -0.67883,-0.13309 -0.45255,-0.9317 0.22628,-0.7986 0.43923,-1.46411 1.09143,-1.47744 0.6522,-0.0133 1.11806,0.0932 1.25116,1.21123 0.1331,1.11806 -0.14641,0.97165 -0.0932,1.13137 0.0533,0.15972 1.19791,0.0533 1.38425,0.66551 0.18634,0.61226 0.86517,0.49247 1.06481,0.86516 0.19965,0.37268 0.63889,1.50405 -0.10648,1.94328 -0.74536,0.43923 -1.01158,-0.5191 -1.09143,0.7853 -0.0799,1.30439 0.15972,2.91491 -0.0133,3.1545 -0.17302,0.23959 -2.51562,0.18634 -2.68864,0.0133 -0.17304,-0.17303 0.19964,-0.55902 -0.0399,-0.65219 -0.23958,-0.0932 -0.74537,-0.21297 -0.9184,0.0266 -0.17303,0.23958 -0.37268,0.93172 -0.38599,1.10474 -0.0133,0.17303 -3e-5,1e-5 -3e-5,1e-5 z"
       id="path895"
       inkscape:connector-curvature="0"
       sodipodi:nodetypes="cccsscsscccccccsccsccczc" />
    <path
       style="display:inline;fill:none;stroke:#000000;stroke-width:0.40000001;stroke-linecap:butt;stroke-linejoin:miter;stroke-miterlimit:4;stroke-dasharray:none;stroke-opacity:1"
       d="m 85.214657,189.82336 c 0,0 9.675221,22.17397 20.630423,37.45856"
       id="path897"
       inkscape:connector-curvature="0" />
    <path
       style="display:inline;fill:none;stroke:#000000;stroke-width:0.40000001;stroke-linecap:butt;stroke-linejoin:miter;stroke-miterlimit:4;stroke-dasharray:none;stroke-opacity:1"
       d="m 89.401341,182.66938 7.761267,11.6238 -0.91744,-19.1897"
       id="path901"
       inkscape:connector-curvature="0"
       sodipodi:nodetypes="ccc" />
    <path
       style="display:inline;fill:none;stroke:#000000;stroke-width:0.40000001;stroke-linecap:butt;stroke-linejoin:miter;stroke-miterlimit:4;stroke-dasharray:none;stroke-opacity:1"
       d="m 100.04749,174.35055 c 0.30117,0.63999 5.2329,15.92458 5.2329,15.92458 l 0.9788,-18.44692"
       id="path903"
       inkscape:connector-curvature="0" />
    <path
       style="display:inline;fill:none;stroke:#000000;stroke-width:0.40000001;stroke-linecap:butt;stroke-linejoin:miter;stroke-miterlimit:4;stroke-dasharray:none;stroke-opacity:1"
       d="m 114.91439,171.45983 0.95487,19.73229 6.15228,-17.75168"
       id="path905"
       inkscape:connector-curvature="0"
       sodipodi:nodetypes="ccc" />
    <path
       style="display:inline;fill:none;stroke:#000000;stroke-width:0.40000001;stroke-linecap:butt;stroke-linejoin:miter;stroke-miterlimit:4;stroke-dasharray:none;stroke-opacity:1"
       d="m 129.62865,176.5128 -3.94201,18.32437 10.86168,-12.40252"
       id="path907"
       inkscape:connector-curvature="0"
       sodipodi:nodetypes="ccc" />
    <path
       style="display:inline;fill:none;stroke:#000000;stroke-width:0.40000001;stroke-linecap:butt;stroke-linejoin:miter;stroke-miterlimit:4;stroke-dasharray:none;stroke-opacity:1"
       d="m 143.22834,191.74335 c 0,0 -15.69872,22.58811 -31.47271,36.55507"
       id="path911"
       inkscape:connector-curvature="0"
       sodipodi:nodetypes="cc" />
    <path
       style="display:inline;fill:none;stroke:#000000;stroke-width:0.40000001;stroke-linecap:butt;stroke-linejoin:miter;stroke-miterlimit:4;stroke-dasharray:none;stroke-opacity:1"
       d="M 105.84508,227.28192 97.162608,194.29318"
       id="path913"
       inkscape:connector-curvature="0"
       sodipodi:nodetypes="cc" />
    <path
       style="display:inline;fill:none;stroke:#000000;stroke-width:0.40000001;stroke-linecap:butt;stroke-linejoin:miter;stroke-miterlimit:4;stroke-dasharray:none;stroke-opacity:1"
       d="m 105.28039,190.27513 0.56469,37.00679"
       id="path915"
       inkscape:connector-curvature="0" />
    <path
       style="display:inline;fill:none;stroke:#000000;stroke-width:0.40000001;stroke-linecap:butt;stroke-linejoin:miter;stroke-miterlimit:4;stroke-dasharray:none;stroke-opacity:1"
       d="m 115.86926,191.19212 -4.11363,37.10627 13.93101,-33.46122"
       id="path917"
       inkscape:connector-curvature="0"
       sodipodi:nodetypes="ccc" />
    <path
       style="display:inline;fill:none;stroke:#000000;stroke-width:0.52987701;stroke-linecap:round;stroke-linejoin:miter;stroke-miterlimit:4;stroke-dasharray:none;stroke-opacity:1"
       d="m 105.69449,226.69839 1.88234,6.8329 2.48469,0.0377 1.86352,-5.74114"
       id="path921"
       inkscape:connector-curvature="0"
       sodipodi:nodetypes="cccc" />
  </g>
</svg>
