<?xml version="1.0" encoding="UTF-8" standalone="no"?>
<!-- Created with Inkscape (http://www.inkscape.org/) -->

<svg
   xmlns:dc="http://purl.org/dc/elements/1.1/"
   xmlns:cc="http://creativecommons.org/ns#"
   xmlns:rdf="http://www.w3.org/1999/02/22-rdf-syntax-ns#"
   xmlns:svg="http://www.w3.org/2000/svg"
   xmlns="http://www.w3.org/2000/svg"
   xmlns:xlink="http://www.w3.org/1999/xlink"
   xmlns:sodipodi="http://sodipodi.sourceforge.net/DTD/sodipodi-0.dtd"
   xmlns:inkscape="http://www.inkscape.org/namespaces/inkscape"
   width="180mm"
   height="180mm"
   viewBox="0 0 180 180"
   version="1.1"
   id="svg8"
   inkscape:version="0.92.5 (2060ec1f9f, 2020-04-08)"
   sodipodi:docname="logo2_2.svg"
   inkscape:label="shadow">
  <defs
     id="defs2">
    <linearGradient
       inkscape:collect="always"
       id="linearGradient4707">
      <stop
         style="stop-color:#ffffff;stop-opacity:0.14399999"
         offset="0"
         id="stop4703" />
      <stop
         style="stop-color:#000000;stop-opacity:0.25600001"
         offset="1"
         id="stop4705" />
    </linearGradient>
    <linearGradient
       id="linearGradient4681"
       inkscape:collect="always">
      <stop
         id="stop4677"
         offset="0"
         style="stop-color:#035337;stop-opacity:0.98039216" />
      <stop
         id="stop4679"
         offset="1"
         style="stop-color:#81ff67;stop-opacity:1" />
    </linearGradient>
    <linearGradient
       id="linearGradient4675"
       inkscape:collect="always">
      <stop
         id="stop4671"
         offset="0"
         style="stop-color:#035337;stop-opacity:0.98039216" />
      <stop
         id="stop4673"
         offset="1"
         style="stop-color:#1da300;stop-opacity:1" />
    </linearGradient>
    <linearGradient
       id="linearGradient4669"
       inkscape:collect="always">
      <stop
         id="stop4665"
         offset="0"
         style="stop-color:#035337;stop-opacity:0.98039216" />
      <stop
         id="stop4667"
         offset="1"
         style="stop-color:#188500;stop-opacity:1" />
    </linearGradient>
    <linearGradient
       inkscape:collect="always"
       id="linearGradient4655">
      <stop
         style="stop-color:#035337;stop-opacity:0.98039216"
         offset="0"
         id="stop4651" />
      <stop
         style="stop-color:#26cb05;stop-opacity:1"
         offset="1"
         id="stop4653" />
    </linearGradient>
    <linearGradient
       inkscape:collect="always"
       xlink:href="#linearGradient4669"
       id="linearGradient4657"
       x1="65.703087"
       y1="176.29385"
       x2="63.648083"
       y2="116.6307"
       gradientUnits="userSpaceOnUse"
       gradientTransform="translate(0.56696429,1.1339286)" />
    <linearGradient
       inkscape:collect="always"
       xlink:href="#linearGradient4675"
       id="linearGradient4659"
       x1="98.02005"
       y1="143.78789"
       x2="99.153976"
       y2="90.493248"
       gradientUnits="userSpaceOnUse"
       gradientTransform="translate(-3.0238096,2.2678572)" />
    <linearGradient
       inkscape:collect="always"
       xlink:href="#linearGradient4655"
       id="linearGradient4661"
       x1="85.168861"
       y1="122.43224"
       x2="85.357857"
       y2="53.640572"
       gradientUnits="userSpaceOnUse"
       gradientTransform="translate(-5.2916667,-0.1889881)" />
    <linearGradient
       inkscape:collect="always"
       xlink:href="#linearGradient4681"
       id="linearGradient4663"
       x1="79.422249"
       y1="94.435638"
       x2="77.798332"
       y2="39.655449"
       gradientUnits="userSpaceOnUse"
       gradientTransform="translate(-1.1339286,-7.3705357)" />
    <radialGradient
       inkscape:collect="always"
       xlink:href="#linearGradient4707"
       id="radialGradient4709"
       cx="90"
       cy="207"
       fx="90"
       fy="207"
       r="90"
       gradientUnits="userSpaceOnUse"
       gradientTransform="matrix(1.7853506,0,0,1.7853506,-76.013512,-281.38068)" />
  </defs>
  <sodipodi:namedview
     id="base"
     pagecolor="#ffffff"
     bordercolor="#666666"
     borderopacity="1.0"
     inkscape:pageopacity="0.0"
     inkscape:pageshadow="2"
     inkscape:zoom="1.4"
     inkscape:cx="299.35919"
     inkscape:cy="341.55249"
     inkscape:document-units="mm"
     inkscape:current-layer="layer5"
     showgrid="false"
     inkscape:window-width="2639"
     inkscape:window-height="2051"
     inkscape:window-x="474"
     inkscape:window-y="26"
     inkscape:window-maximized="0"
     inkscape:lockguides="false"
     inkscape:snap-others="false"
     inkscape:snap-global="false" />
  <metadata
     id="metadata5">
    <rdf:RDF>
      <cc:Work
         rdf:about="">
        <dc:format>image/svg+xml</dc:format>
        <dc:type
           rdf:resource="http://purl.org/dc/dcmitype/StillImage" />
        <dc:title />
      </cc:Work>
    </rdf:RDF>
  </metadata>
  <g
     inkscape:groupmode="layer"
     id="layer5"
     inkscape:label="shadow">
    <rect
       style="opacity:1;fill:#ffffff;fill-opacity:1;fill-rule:nonzero;stroke:none;stroke-width:28.45961761;stroke-linecap:round;stroke-linejoin:round;stroke-miterlimit:4;stroke-dasharray:none;stroke-dashoffset:0;stroke-opacity:1;paint-order:normal"
       id="rect4624"
       width="180"
       height="180"
       x="0"
       y="0" />
    <path
       style="fill:url(#linearGradient4663);fill-opacity:1;stroke:none;stroke-width:0.26618785px;stroke-linecap:butt;stroke-linejoin:miter;stroke-opacity:1"
       d="M -19.341551,36.018231 18.645055,39.699129 43.969459,17.191157 103.12273,29.69932 163.97689,18.449695 190.24624,60.164563 V 178.38006 l -209.776779,-0.19129 z"
       id="path4554"
       inkscape:connector-curvature="0"
       sodipodi:nodetypes="ccccccccc" />
    <path
       style="fill:url(#linearGradient4661);fill-opacity:1;stroke:none;stroke-width:0.26618785px;stroke-linecap:butt;stroke-linejoin:miter;stroke-opacity:1"
       d="m -18.963575,64.744422 40.443452,-4.296144 26.458333,7.914047 33.072915,-10.415035 35.718745,-1.695838 33.26191,17.759826 55.5625,-18.716261 -11.1503,132.562043 -207.8869,0.95644 z"
       id="path4556"
       inkscape:connector-curvature="0"
       sodipodi:nodetypes="cccccccccc" />
    <path
       style="fill:url(#linearGradient4659);fill-opacity:1;stroke:none;stroke-width:0.26618785px;stroke-linecap:butt;stroke-linejoin:miter;stroke-opacity:1"
       d="m -20.286492,114.24137 33.261904,-22.567294 68.791665,15.238604 40.254463,3.44318 33.07292,-10.707497 55.75149,12.620367 -5.85864,77.6626 -226.40773,-2.10416 z"
       id="path4558"
       inkscape:connector-curvature="0"
       sodipodi:nodetypes="ccccccccc" />
    <path
       style="fill:url(#linearGradient4657);fill-opacity:1;stroke:none;stroke-width:0.26618785px;stroke-linecap:butt;stroke-linejoin:miter;stroke-opacity:1"
       d="m -22.554347,140.51209 42.144343,6.88451 66.334822,-6.77138 56.507432,0.54167 51.97173,8.60792 -4.91369,41.50933 -207.319936,-4.5909 z"
       id="path4560"
       inkscape:connector-curvature="0"
       sodipodi:nodetypes="cccccccc" />
  </g>
  <circle
     style="display:inline;opacity:1;fill:url(#radialGradient4709);fill-opacity:1;fill-rule:nonzero;stroke:none;stroke-width:0.89267528;stroke-linecap:round;stroke-linejoin:round;stroke-miterlimit:4;stroke-dasharray:none;stroke-dashoffset:0;stroke-opacity:0.09599998;paint-order:normal"
     cx="84.668045"
     cy="88.186905"
     r="160.68155"
     id="path4683"
     sodipodi:insensitive="true" />
  <g
     inkscape:label="Layer 1"
     inkscape:groupmode="layer"
     id="layer1"
     style="display:none"
     transform="translate(0,-117)">
    <path
       style="fill:#000000;fill-opacity:1;stroke:#000000;stroke-width:0;stroke-linecap:butt;stroke-linejoin:miter;stroke-miterlimit:4;stroke-dasharray:none;stroke-opacity:1"
       d="m 40.205534,268.44938 c -0.386239,0.17388 -2.916067,0.21249 -2.896755,-0.34761 0.01943,-0.56002 1.255257,-0.61798 1.313192,-1.06216 0.05794,-0.44417 0.212418,-1.27456 -0.23174,-2.10497 -0.444166,-0.83041 -0.444166,-0.57933 -0.444166,-0.57933 0,0 -0.668551,0.85748 -0.849719,1.7477 -0.231628,1.57389 -0.305864,1.69247 -0.412802,1.82013 -0.106938,0.1277 -1.528042,0.21712 -2.059108,0.24621 -0.598699,0.0325 -0.67591,-0.58901 -0.115857,-0.91732 0.56004,-0.32825 1.264915,-0.23171 1.206979,-1.25524 -0.05794,-1.02351 -0.550382,-3.93959 0.02898,-4.61551 0.579353,-0.67589 1.29389,-0.30898 1.487003,-0.50208 0.193112,-0.19306 -0.772468,-1.62219 -1.158707,-2.16292 -0.386229,-0.54072 0.231745,-2.62638 1.274576,-0.71455 1.042828,1.91188 0.714533,2.04707 1.197324,0.92697 0.482789,-1.12006 0.926963,-1.85391 1.467688,-2.0277 0.540732,-0.1739 0.830406,-0.0581 0.830406,-0.0581 0,0 -0.948755,-0.27838 -0.818118,-1.0877 0.185112,-1.1468 0.625319,-1.92864 1.706453,-1.82837 0.901263,0.0836 1.525627,0.47479 1.51997,1.79113 -0.0038,0.81129 -0.206777,1.10563 -0.51576,1.2215 -0.308989,0.1159 1.448373,-0.13518 1.950476,0.50209 0.502107,0.6373 2.624854,3.338 1.524091,4.09116 -1.100772,0.75317 -1.89496,-0.2665 -2.170912,0.3006 -0.155469,0.31991 0.0096,0.68722 -0.06772,1.03483 -0.07725,0.34762 0.173805,2.58775 -0.42486,2.99333 -0.598658,0.40554 -2.587762,0.1544 -2.780877,0.30897 -0.193115,0.15442 0.154501,1.96979 -0.560041,2.27878 z"
       id="path851"
       inkscape:connector-curvature="0"
       sodipodi:nodetypes="cccccczcccccccccccccccccccccc" />
    <ellipse
       style="fill:none;fill-opacity:0.50262697;stroke:#000000;stroke-width:0.69368893;stroke-linecap:butt;stroke-linejoin:round;stroke-miterlimit:4;stroke-dasharray:none;stroke-opacity:1"
       id="path849"
       cx="120.15141"
       cy="233.28979"
       rx="6.9777269"
       ry="8.4139547"
       transform="matrix(0.94943544,0.31396232,-0.30021516,0.95387151,0,0)" />
    <path
       style="fill:#000000;fill-opacity:1;stroke:#000000;stroke-width:0;stroke-linecap:butt;stroke-linejoin:miter;stroke-miterlimit:4;stroke-dasharray:none;stroke-opacity:1"
       d="m 51.126815,259.09782 c -0.464284,0.57355 -4.567735,1.16339 -5.977488,0.85438 -1.409754,-0.30897 5.409685,-1.11149 5.977488,-0.85438 z"
       id="path853"
       inkscape:connector-curvature="0"
       sodipodi:nodetypes="ccc" />
    <path
       style="fill:#000000;fill-opacity:1;stroke:#000000;stroke-width:0;stroke-linecap:butt;stroke-linejoin:miter;stroke-miterlimit:4;stroke-dasharray:none;stroke-opacity:0.98774073"
       d="m 43.198843,262.11516 c 0,0 1.062142,2.25945 2.336714,3.26364 1.274571,1.00422 2.08704,1.67018 2.08704,1.67018 0.355041,-0.30041 -1.102146,-2.05639 -2.318777,-3.44685 -1.216638,-1.39043 -2.104977,-1.48697 -2.104977,-1.48697 z"
       id="path855"
       inkscape:connector-curvature="0"
       sodipodi:nodetypes="ccccc" />
    <path
       style="fill:#000000;fill-opacity:0.50262697;stroke:#000000;stroke-width:0;stroke-linecap:butt;stroke-linejoin:miter;stroke-miterlimit:4;stroke-dasharray:none;stroke-opacity:1"
       d="m 45.747987,252.15031 c 0,0 -1.081452,1.66081 -1.564247,3.03196 -0.482793,1.37111 -1.004203,3.26363 -1.004203,3.26363 0,0 2.780878,-5.5231 2.89675,-6.06386 0.115855,-0.54073 -0.3283,-0.23173 -0.3283,-0.23173 z"
       id="path857"
       inkscape:connector-curvature="0" />
    <path
       style="fill:none;stroke:#000000;stroke-width:0.47104371;stroke-linecap:butt;stroke-linejoin:miter;stroke-miterlimit:4;stroke-dasharray:none;stroke-opacity:0.78431373"
       d="m 19.969119,219.98354 c 5.478257,18.2323 18.531917,32.35595 18.531917,32.35595"
       id="path859"
       inkscape:connector-curvature="0"
       sodipodi:nodetypes="cc" />
    <path
       style="fill:none;stroke:#000000;stroke-width:0.47104371;stroke-linecap:butt;stroke-linejoin:miter;stroke-miterlimit:4;stroke-dasharray:none;stroke-opacity:0.78431373"
       d="m 24.647618,214.54538 7.084712,11.12023 -2.299838,-16.22619"
       id="path861"
       inkscape:connector-curvature="0"
       sodipodi:nodetypes="ccc" />
    <path
       style="fill:none;stroke:#000000;stroke-width:0.47104371;stroke-linecap:butt;stroke-linejoin:miter;stroke-miterlimit:4;stroke-dasharray:none;stroke-opacity:0.78431373"
       d="m 35.673436,207.00272 5.19765,14.93805 3.497287,-17.37333"
       id="path863"
       inkscape:connector-curvature="0"
       sodipodi:nodetypes="ccc" />
    <path
       style="fill:none;stroke:#000000;stroke-width:0.47104371;stroke-linecap:butt;stroke-linejoin:miter;stroke-miterlimit:4;stroke-dasharray:none;stroke-opacity:0.78431373"
       d="m 53.376756,203.00671 c -0.0856,0.47078 -0.191723,17.04545 -0.191723,17.04545 l 8.949684,-17.42043"
       id="path869"
       inkscape:connector-curvature="0"
       sodipodi:nodetypes="ccc" />
    <path
       style="fill:none;stroke:#000000;stroke-width:0.47104371;stroke-linecap:butt;stroke-linejoin:miter;stroke-miterlimit:4;stroke-dasharray:none;stroke-opacity:0.78431373"
       d="M 72.829095,206.77987 65.00644,223.9727 78.738725,214.64333"
       id="path871"
       inkscape:connector-curvature="0"
       sodipodi:nodetypes="ccc" />
    <path
       style="fill:none;stroke:#000000;stroke-width:0.47104371;stroke-linecap:butt;stroke-linejoin:miter;stroke-miterlimit:4;stroke-dasharray:none;stroke-opacity:0.78431373"
       d="m 45.04293,253.41907 c 0,0 22.475743,-13.91925 38.097332,-31.93759"
       id="path875"
       inkscape:connector-curvature="0" />
    <path
       style="fill:#000000;fill-opacity:1;fill-rule:nonzero;stroke:#000000;stroke-width:0;stroke-linecap:butt;stroke-linejoin:miter;stroke-miterlimit:4;stroke-dasharray:none;stroke-opacity:1"
       d="m 21.777057,221.80919 c 0,0 -4.115129,-1.18448 -4.595059,-2.46288 -0.984814,-2.62335 -1.025047,-5.11209 1.447821,-10.38197 2.499909,-5.32752 11.811228,-11.7031 20.170807,-13.5119 8.903059,-1.92641 15.956844,-1.86605 26.628246,2.77672 7.819318,3.40193 15.00987,11.01445 16.366897,13.00049 1.441067,2.10903 2.541506,4.79322 2.845052,6.96152 0.428441,3.06039 -0.274524,4.34776 -0.274524,4.34776 0,0 -1.991222,-0.95411 -2.633204,-1.63889 -0.641985,-0.68478 -2.00688,-5.03765 -5.067997,-9.23204 -3.702968,-5.07383 -7.743552,-6.92562 -8.428337,-7.13962 -0.684783,-0.21398 -6.573687,-2.07323 -16.412739,-0.63722 -7.297746,1.06509 -15.683009,4.2756 -20.241273,7.46212 -5.166883,3.61204 -8.004207,7.14825 -9.80569,10.45591 z"
       id="path826"
       inkscape:connector-curvature="0"
       sodipodi:nodetypes="cccssccccscscc" />
    <path
       style="fill:none;stroke:#000000;stroke-width:0.47104371;stroke-linecap:butt;stroke-linejoin:miter;stroke-miterlimit:4;stroke-dasharray:none;stroke-opacity:0.78431373"
       d="m 31.665512,225.46516 6.835524,26.87433 2.37005,-30.59918"
       id="path877"
       inkscape:connector-curvature="0"
       sodipodi:nodetypes="ccc" />
    <path
       style="fill:none;stroke:#000000;stroke-width:0.84416527;stroke-linecap:round;stroke-linejoin:miter;stroke-miterlimit:4;stroke-dasharray:none;stroke-opacity:0.78431373"
       d="m 38.432048,252.12759 0.714792,6.34655 4.032697,-0.0283 2.173467,-5.8827"
       id="path885"
       inkscape:connector-curvature="0"
       sodipodi:nodetypes="cccc" />
    <path
       style="fill:none;stroke:#000000;stroke-width:0.47099999;stroke-linecap:butt;stroke-linejoin:miter;stroke-miterlimit:4;stroke-dasharray:none;stroke-opacity:0.78431373"
       d="m 53.214312,219.85765 -7.978945,33.10969 19.978397,-29.33283"
       id="path5604"
       inkscape:connector-curvature="0"
       sodipodi:nodetypes="ccc" />
  </g>
  <g
     inkscape:groupmode="layer"
     id="layer2"
     inkscape:label="Layer 2"
     style="display:none"
     transform="translate(0,-117)">
    <path
       style="display:inline;fill:#000000;fill-opacity:1;stroke:#000000;stroke-width:0;stroke-linecap:butt;stroke-linejoin:miter;stroke-miterlimit:4;stroke-dasharray:none;stroke-opacity:1"
       d="m 70.098706,177.87311 c 0,0 -4.189697,0.28143 -5.557098,-0.57321 -1.367403,-0.85463 -3.975556,-4.81509 -3.994578,-8.65676 -0.0194,-3.91861 2.025001,-9.94784 7.383166,-14.85092 5.996805,-5.48751 16.146966,-10.65723 27.59897,-11.34092 11.451974,-0.68372 17.570674,-1.26128 34.699864,4.91333 12.56393,4.52896 17.20402,7.01333 24.19569,14.74596 2.39844,2.65261 5.36271,7.57773 5.59047,12.62544 0.12023,2.66927 -0.53638,5.94556 -0.76429,6.28742 -0.2279,0.34184 -3.29875,0.46484 -4.26621,-0.46904 -4.14438,-4.00052 -8.79575,-11.52947 -11.90779,-14.9246 -2.88037,-3.14238 -8.17035,-8.97207 -19.41874,-13.0571 -8.60003,-3.12322 -13.72637,-3.2545 -15.37864,-3.2545 -1.65229,0 -12.391124,1.5331 -22.804448,8.50944 -8.45751,5.66607 -13.79775,11.72875 -15.376366,20.04546 z"
       id="path847"
       inkscape:connector-curvature="0"
       sodipodi:nodetypes="cccscsccccscssc" />
    <ellipse
       style="display:inline;fill:none;fill-opacity:0.50262697;stroke:#000000;stroke-width:0.94310582;stroke-linecap:butt;stroke-linejoin:round;stroke-miterlimit:4;stroke-dasharray:none;stroke-opacity:1"
       id="path887"
       cx="127.91673"
       cy="232.21565"
       rx="8.1981354"
       ry="10.756997"
       transform="matrix(0.99610442,0.08818152,-0.08800866,0.99611971,0,0)" />
    <path
       style="display:inline;fill:none;stroke:#000000;stroke-width:0.66017401;stroke-linecap:butt;stroke-linejoin:miter;stroke-miterlimit:4;stroke-dasharray:none;stroke-opacity:1"
       d="m 112.32714,234.31169 c 0,0 -4.95776,3.66599 -5.13237,9.12389 -0.15611,4.88101 1.39896,6.83825 2.60407,8.7212"
       id="path889"
       inkscape:connector-curvature="0"
       sodipodi:nodetypes="ccc" />
    <path
       style="display:inline;fill:none;stroke:#000000;stroke-width:0.39765486px;stroke-linecap:butt;stroke-linejoin:miter;stroke-opacity:1"
       d="m 115.06603,244.82971 c 0,0 -5.91298,0.062 -8.74993,-1.21838"
       id="path891"
       inkscape:connector-curvature="0"
       sodipodi:nodetypes="cc" />
    <path
       style="display:inline;fill:none;stroke:#000000;stroke-width:0.39765486px;stroke-linecap:butt;stroke-linejoin:miter;stroke-opacity:1"
       d="m 102.50004,234.12135 c 0,0 2.66118,2.33485 1.12975,8.33513 -1.53147,6.00027 -3.59015,6.22622 -3.59015,6.22622"
       id="path893"
       inkscape:connector-curvature="0" />
    <path
       style="display:inline;fill:#000000;fill-opacity:1;stroke:#000000;stroke-width:0;stroke-linecap:butt;stroke-linejoin:miter;stroke-miterlimit:4;stroke-dasharray:none;stroke-opacity:1"
       d="m 98.809473,253.72895 c -0.97913,0.47702 -1.12975,0.55233 -3.364156,0.62765 -2.234399,0.0753 -3.313968,-0.0251 -3.238652,-0.70297 0.0753,-0.67785 1.431052,-0.60254 1.581685,-1.25525 0.150713,-0.65278 0.175791,-1.43106 0.527217,-3.71568 0.351482,-2.28462 0.928897,-3.791 1.807574,-4.87054 0.878709,-1.07952 0.878709,-0.50211 0.878709,-1.02931 0,-0.52722 -0.02514,-2.43529 0.728062,-2.68632 0.753156,-0.25104 0.426815,0.62764 1.682085,-0.35148 1.255293,-0.97913 1.431033,-0.17582 1.280413,-0.8034 -0.15064,-0.62764 -1.280413,-0.25106 -0.853597,-1.75738 0.426807,-1.50633 0.828477,-2.76163 2.058677,-2.78677 1.23014,-0.0251 2.10889,0.17582 2.35995,2.28465 0.25102,2.1089 -0.27619,1.83271 -0.17582,2.13399 0.10068,0.30125 2.25952,0.10035 2.61101,1.25528 0.35146,1.15487 1.63188,0.92891 2.00842,1.63189 0.37662,0.70296 1.20512,2.83695 -0.20081,3.66543 -1.40592,0.82848 -1.90807,-0.97914 -2.05866,1.48124 -0.15066,2.46036 0.30126,5.49814 -0.0251,5.95008 -0.32634,0.4519 -4.74495,0.35144 -5.07133,0.0251 -0.3264,-0.32637 0.37656,-1.05442 -0.0754,-1.23016 -0.45189,-0.17581 -1.405906,-0.40172 -1.732301,0.0502 -0.326362,0.45191 -0.702946,1.75743 -0.728077,2.08378 -0.02514,0.32639 -3.2e-5,2e-5 -3.2e-5,2e-5 z"
       id="path895"
       inkscape:connector-curvature="0"
       sodipodi:nodetypes="cccsscsscccccccsccsccczc" />
    <path
       style="display:inline;fill:none;stroke:#000000;stroke-width:0.60536498;stroke-linecap:butt;stroke-linejoin:miter;stroke-miterlimit:4;stroke-dasharray:none;stroke-opacity:0.78431373"
       d="m 66.730261,176.05968 c 0,0 14.6426,33.55836 31.222355,56.69024"
       id="path897"
       inkscape:connector-curvature="0" />
    <path
       style="display:inline;fill:none;stroke:#000000;stroke-width:0.60536498;stroke-linecap:butt;stroke-linejoin:miter;stroke-miterlimit:4;stroke-dasharray:none;stroke-opacity:0.78431373"
       d="m 73.066441,165.23275 11.746,17.59162 -1.388466,-29.04194"
       id="path901"
       inkscape:connector-curvature="0"
       sodipodi:nodetypes="ccc" />
    <path
       style="display:inline;fill:none;stroke:#000000;stroke-width:0.60536498;stroke-linecap:butt;stroke-linejoin:miter;stroke-miterlimit:4;stroke-dasharray:none;stroke-opacity:0.78431373"
       d="m 89.178455,152.64294 c 0.455796,0.96856 7.919541,24.10045 7.919541,24.10045 l 1.48131,-27.91781"
       id="path903"
       inkscape:connector-curvature="0" />
    <path
       style="display:inline;fill:none;stroke:#000000;stroke-width:0.60536498;stroke-linecap:butt;stroke-linejoin:miter;stroke-miterlimit:4;stroke-dasharray:none;stroke-opacity:0.78431373"
       d="m 111.67822,148.26809 1.4451,29.86308 9.31094,-26.86562"
       id="path905"
       inkscape:connector-curvature="0"
       sodipodi:nodetypes="ccc" />
    <path
       style="display:inline;fill:none;stroke:#000000;stroke-width:0.60536498;stroke-linecap:butt;stroke-linejoin:miter;stroke-miterlimit:4;stroke-dasharray:none;stroke-opacity:0.78431373"
       d="m 133.94697,155.91531 -5.9659,27.73233 16.43821,-18.77015"
       id="path907"
       inkscape:connector-curvature="0"
       sodipodi:nodetypes="ccc" />
    <path
       style="display:inline;fill:none;stroke:#000000;stroke-width:0.60536498;stroke-linecap:butt;stroke-linejoin:miter;stroke-miterlimit:4;stroke-dasharray:none;stroke-opacity:0.78431373"
       d="m 154.52889,178.96541 c 0,0 -23.75863,34.18514 -47.63119,55.3229"
       id="path911"
       inkscape:connector-curvature="0"
       sodipodi:nodetypes="cc" />
    <path
       style="display:inline;fill:none;stroke:#000000;stroke-width:0.60536498;stroke-linecap:butt;stroke-linejoin:miter;stroke-miterlimit:4;stroke-dasharray:none;stroke-opacity:0.78431373"
       d="M 97.952616,232.74992 84.812441,182.82437"
       id="path913"
       inkscape:connector-curvature="0"
       sodipodi:nodetypes="cc" />
    <path
       style="display:inline;fill:none;stroke:#000000;stroke-width:0.60536498;stroke-linecap:butt;stroke-linejoin:miter;stroke-miterlimit:4;stroke-dasharray:none;stroke-opacity:0.78431373"
       d="m 97.097996,176.74339 0.85462,56.00653"
       id="path915"
       inkscape:connector-curvature="0" />
    <path
       style="display:inline;fill:none;stroke:#000000;stroke-width:0.60536498;stroke-linecap:butt;stroke-linejoin:miter;stroke-miterlimit:4;stroke-dasharray:none;stroke-opacity:0.78431373"
       d="m 113.12332,178.13117 -6.22562,56.1571 21.08337,-50.64063"
       id="path917"
       inkscape:connector-curvature="0"
       sodipodi:nodetypes="ccc" />
    <path
       style="display:inline;fill:none;stroke:#000000;stroke-width:0.9994601;stroke-linecap:round;stroke-linejoin:miter;stroke-miterlimit:4;stroke-dasharray:none;stroke-opacity:0.78431373"
       d="m 97.675833,232.20927 1.349846,9.23397 4.686661,0.0708 3.53459,-7.91063"
       id="path921"
       inkscape:connector-curvature="0"
       sodipodi:nodetypes="cccc" />
  </g>
  <circle
     style="opacity:1;fill:#cc650d;fill-opacity:0.44;fill-rule:nonzero;stroke:none;stroke-width:0.5;stroke-linecap:round;stroke-linejoin:round;stroke-miterlimit:4;stroke-dasharray:none;stroke-dashoffset:0;stroke-opacity:1;paint-order:normal"
     id="path4632"
     cx="108.66815"
     cy="63.394344"
     r="37.230652" />
  <g
     inkscape:groupmode="layer"
     id="layer3"
     inkscape:label="chevrons">
    <path
       style="fill:#cc650d;fill-opacity:1;stroke:#000000;stroke-width:0.5;stroke-linecap:round;stroke-linejoin:round;stroke-miterlimit:4;stroke-dasharray:none;stroke-opacity:1"
       d="m 80.313817,65.470119 10.958052,1.202711 4.677217,17.238886 7.349914,-14.298921 9.88897,3.340873 12.56167,-30.869633 z"
       id="path4583"
       inkscape:connector-curvature="0" />
    <path
       style="fill:#cc650d;fill-opacity:1;stroke:#000000;stroke-width:0.5;stroke-linecap:round;stroke-linejoin:round;stroke-miterlimit:4;stroke-dasharray:none;stroke-opacity:1"
       d="M 95.681814,83.644446 97.81997,67.474639 126.01691,42.351304 91.271869,66.806466"
       id="path4585"
       inkscape:connector-curvature="0" />
    <path
       style="fill:#cc650d;fill-opacity:1;stroke:#000000;stroke-width:0.5;stroke-linecap:round;stroke-linejoin:round;stroke-miterlimit:4;stroke-dasharray:none;stroke-opacity:1"
       d="m 103.63308,69.412344 c -0.53454,-0.133635 -5.879925,-2.338609 -5.879925,-2.338609"
       id="path4587"
       inkscape:connector-curvature="0" />
    <path
       style="fill:#cc650d;fill-opacity:1;stroke:#000000;stroke-width:0.5;stroke-linecap:round;stroke-linejoin:round;stroke-miterlimit:4;stroke-dasharray:none;stroke-opacity:1"
       d="m 18.296844,111.06782 10.958053,1.20271 4.677217,17.23889 7.34991,-14.29893 9.888975,3.34088 12.56167,-30.869635 z"
       id="path4583-3"
       inkscape:connector-curvature="0" />
    <path
       style="fill:#cc650d;fill-opacity:1;stroke:#000000;stroke-width:0.5;stroke-linecap:round;stroke-linejoin:round;stroke-miterlimit:4;stroke-dasharray:none;stroke-opacity:1"
       d="M 33.664842,129.24215 35.802998,113.07234 63.999939,87.949004 29.254897,112.40416"
       id="path4585-6"
       inkscape:connector-curvature="0" />
    <path
       style="fill:#cc650d;fill-opacity:1;stroke:#000000;stroke-width:0.5;stroke-linecap:round;stroke-linejoin:round;stroke-miterlimit:4;stroke-dasharray:none;stroke-opacity:1"
       d="m 41.616111,115.01004 c -0.534538,-0.13363 -5.879928,-2.33861 -5.879928,-2.33861"
       id="path4587-7"
       inkscape:connector-curvature="0" />
    <path
       style="fill:#cc650d;fill-opacity:1;stroke:#000000;stroke-width:0.5;stroke-linecap:round;stroke-linejoin:round;stroke-miterlimit:4;stroke-dasharray:none;stroke-opacity:1"
       d="m 87.006411,127.68208 10.958052,1.20271 4.677217,17.23889 7.34991,-14.29893 9.88897,3.34088 12.56167,-30.86963 z"
       id="path4583-5"
       inkscape:connector-curvature="0" />
    <path
       style="fill:#cc650d;fill-opacity:1;stroke:#000000;stroke-width:0.5;stroke-linecap:round;stroke-linejoin:round;stroke-miterlimit:4;stroke-dasharray:none;stroke-opacity:1"
       d="m 102.37441,145.85641 2.13815,-16.16981 28.19694,-25.12333 -34.745037,24.45516"
       id="path4585-3"
       inkscape:connector-curvature="0" />
    <path
       style="fill:#cc650d;fill-opacity:1;stroke:#000000;stroke-width:0.5;stroke-linecap:round;stroke-linejoin:round;stroke-miterlimit:4;stroke-dasharray:none;stroke-opacity:1"
       d="m 110.32567,131.6243 c -0.53453,-0.13363 -5.87992,-2.33861 -5.87992,-2.33861"
       id="path4587-5"
       inkscape:connector-curvature="0" />
  </g>
</svg>
