<?xml version="1.0" encoding="utf-8"?>
<!-- Generator: Adobe Illustrator 26.1.0, SVG Export Plug-In . SVG Version: 6.00 Build 0)  -->
<svg version="1.1" id="Layer_1" xmlns="http://www.w3.org/2000/svg" xmlns:xlink="http://www.w3.org/1999/xlink" x="0px" y="0px"
	 viewBox="0 0 237.96 315.27" enable-background="new 0 0 237.96 315.27" xml:space="preserve">
<linearGradient id="SVGID_1_" gradientUnits="userSpaceOnUse" x1="71.8972" y1="-17.7663" x2="169.9646" y2="324.2353">
	<stop  offset="0" style="stop-color:#FFFFFF"/>
	<stop  offset="0.4364" style="stop-color:#D2FFF2"/>
	<stop  offset="0.7975" style="stop-color:#B3FFE8"/>
	<stop  offset="1" style="stop-color:#A8FFE5"/>
</linearGradient>
<path fill="url(#SVGID_1_)" d="M28.67,108.46c8.14-13.99,8.14-31.27,0-45.27L2.64,18.44C1.1,16.02,0,13.6,0,10.51
	C0,4.79,5.29,0.17,10.79,0.17c7.27,0,9.69,5.51,12.77,10.79l30.83,52.63l30.83-52.63C88.3,5.67,90.72,0.17,97.99,0.17
	c5.5,0,10.79,4.62,10.79,10.35c0,3.08-1.1,5.5-2.64,7.93L80.11,63.19c-8.14,13.99-8.14,31.27,0,45.27l26.03,44.75
	c1.54,2.42,2.64,4.84,2.64,7.93c0,5.73-5.28,10.35-10.79,10.35c-7.27,0-9.69-5.5-12.77-10.79l-30.83-52.63l-30.83,52.63
	c-3.08,5.28-5.5,10.79-12.77,10.79c-5.5,0-10.79-4.62-10.79-10.35c0-3.08,1.1-5.5,2.64-7.93L28.67,108.46z M58.06,222.45
	c0-4.08,1.79-6.38,6.38-6.38c4.59,0,6.38,2.3,6.38,6.38v92.82H53.98l-33.28-76.5v-0.13h-0.26v70.13c0,4.08-1.78,6.38-6.38,6.38
	s-6.38-2.29-6.38-6.38v-92.82h16.83l33.28,77.39h-0.13h0.26L58.06,222.45z M117.43,222.45c1.02-3.44,2.42-6.5,6.5-6.5
	c4.21,0,5.74,3.19,6.63,6.5l24.61,86.32c0.89,3.06-2.55,6.38-6.12,6.38c-3.95,0-5.99-3.32-6.89-6.38l-4.72-15.3h-27.16l-4.85,15.3
	c-0.89,3.06-2.93,6.38-6.89,6.38c-3.57,0-7.01-3.32-6.12-6.38L117.43,222.45z M124.06,246.17h-0.26l-9.95,34.55h20.02L124.06,246.17
	z M219.31,242.72v-20.4c0-4.08,1.79-6.38,6.38-6.38c4.59,0,6.38,2.3,6.38,6.38v20.15c0,1.66-0.13,3.44-0.77,4.97l-24.35,62.09
	c-1.28,3.19-2.42,5.61-6.38,5.61c-3.95,0-5.1-2.42-6.38-5.61l-24.35-62.09c-0.64-1.53-0.77-3.32-0.77-4.97v-20.15
	c0-4.08,1.79-6.38,6.38-6.38c4.59,0,6.38,2.3,6.38,6.38v20.4l18.74,48.71L219.31,242.72z M237.96,160.21c0-6.08-4.92-11-11-11h-37.8
	c-4.27,0-8.24-2.3-10.38-5.99l-27.4-47.46c-3.62-6.27-3.62-14.05,0-20.32l27.4-47.46c2.13-3.7,6.11-5.99,10.38-5.99h37.8
	c6.08,0,11-4.92,11-11s-4.92-11-11-11h-37.8c-12.1,0-23.38,6.51-29.43,16.99l-27.4,47.46c-7.54,13.05-7.54,29.27,0,42.32l27.4,47.46
	c6.05,10.48,17.33,16.99,29.43,16.99h37.8C233.04,171.21,237.96,166.29,237.96,160.21z"/>
</svg>
