<?xml version="1.0" encoding="UTF-8" standalone="no"?>
<!-- Generator: Adobe Illustrator 26.1.0, SVG Export Plug-In . SVG Version: 6.00 Build 0)  -->

<svg
   xmlns:dc="http://purl.org/dc/elements/1.1/"
   xmlns:cc="http://creativecommons.org/ns#"
   xmlns:rdf="http://www.w3.org/1999/02/22-rdf-syntax-ns#"
   xmlns:svg="http://www.w3.org/2000/svg"
   xmlns="http://www.w3.org/2000/svg"
   xmlns:xlink="http://www.w3.org/1999/xlink"
   xmlns:sodipodi="http://sodipodi.sourceforge.net/DTD/sodipodi-0.dtd"
   xmlns:inkscape="http://www.inkscape.org/namespaces/inkscape"
   version="1.1"
   id="Layer_1"
   x="0px"
   y="0px"
   viewBox="0 0 820.96 802.98"
   enable-background="new 0 0 820.96 802.98"
   xml:space="preserve"
   sodipodi:docname="xcnav.logo.wings.foreground.svg"
   inkscape:version="0.92.5 (2060ec1f9f, 2020-04-08)"><metadata
   id="metadata484"><rdf:RDF><cc:Work
       rdf:about=""><dc:format>image/svg+xml</dc:format><dc:type
         rdf:resource="http://purl.org/dc/dcmitype/StillImage" /></cc:Work></rdf:RDF></metadata><defs
   id="defs482" />
<g
   id="g477">
	<g
   id="g130">
		<g
   id="g12">
			<g
   id="g6">
				<g
   id="g4">
					<path
   d="m 251.82,267.91 c -6.44,5.11 -13.48,9.88 -21.29,12.64 -3.92,1.38 -9.99,3.2 -13.32,-0.32 0.88,1.24 1.76,2.48 2.64,3.71 -0.12,-0.18 -0.25,-0.36 -0.37,-0.53 0.5,0.73 0.99,1.46 1.49,2.18 -2.12,-4.26 0.9,-9.53 3.17,-13.11 4.3,-6.79 10.24,-12.62 16.44,-17.65 6.37,-5.16 13.52,-9.9 21.29,-12.64 3.95,-1.4 9.98,-3.21 13.32,0.32 -0.88,-1.24 -1.76,-2.48 -2.64,-3.71 0.12,0.18 0.25,0.36 0.37,0.53 -0.5,-0.73 -0.99,-1.46 -1.49,-2.18 2.11,4.25 -0.92,9.56 -3.17,13.11 -4.32,6.82 -10.26,12.54 -16.44,17.65 -0.19,0.15 4.23,5.81 4.13,5.9 5.86,-4.84 11.43,-10.2 15.71,-16.53 2.35,-3.47 5.81,-8.89 4.3,-13.32 -0.82,-2.41 -3.13,-5.47 -4.86,-7.29 -3.1,-3.24 -8.35,-1.98 -12.12,-0.78 -14.19,4.48 -27.73,15.55 -36.6,27.31 -2.83,3.75 -6.79,9.21 -6.22,14.23 0.32,2.84 2.94,5.98 4.71,8.08 3.04,3.61 7.82,2.76 11.94,1.53 8.53,-2.53 16.23,-7.76 23.12,-13.24 0.17,-0.12 -4.18,-5.84 -4.11,-5.89 z"
   id="path2"
   inkscape:connector-curvature="0" />
				</g>
			</g>
			<ellipse
   transform="matrix(0.7771,-0.6294,0.6294,0.7771,-109.6237,213.2105)"
   cx="246.2"
   cy="261.37"
   rx="21.139999"
   ry="2.6300001"
   id="ellipse8" />
			<polygon
   points="210.96,258.54 214.53,255.82 219.46,261.37 225.08,261.37 228.48,268.57 235.45,263.64 241.23,263.98 248.72,258.71 250.76,250.89 248.72,246.97 248.72,238.64 247.35,236.76 251.61,228.6 252.81,224.52 249.04,224.52 248.6,228.09 240.71,238 236.15,236.62 232.39,238.47 232.39,242.89 226.1,241.62 223.88,243.91 221.33,242.55 216.91,243.06 214.19,247.14 206.54,245.95 201.33,254.63 198.54,257.69 192.76,256.5 191.23,258.71 198.88,263.98 201.33,261.37 203.47,261.37 207.9,257.52 "
   id="polygon10" />
		</g>
		<g
   id="g128">
			<linearGradient
   id="SVGID_1_"
   gradientUnits="userSpaceOnUse"
   x1="460.3381"
   y1="92.307999"
   x2="460.2352"
   y2="66.989998">
				<stop
   offset="0"
   style="stop-color:#8B00C2"
   id="stop14" />
				<stop
   offset="0.3841"
   style="stop-color:#7400A7"
   id="stop16" />
				<stop
   offset="0.7415"
   style="stop-color:#640095"
   id="stop18" />
				<stop
   offset="1"
   style="stop-color:#5F008F"
   id="stop20" />
			</linearGradient>
			<path
   d="m 474.26,78.25 c -1.43,16.21 -12.29,18.44 -13.31,17.93 -4.24,-2.12 -6.27,-9.23 -14.65,-16.41 13.24,-5.98 25.85,-7.06 27.96,-1.52 z"
   id="path23"
   inkscape:connector-curvature="0"
   style="fill:url(#SVGID_1_)" />
			<g
   id="g126">
				<defs
   id="defs26">
					<path
   id="SVGID_00000006695727617191777380000016877603181243091606_"
   d="m 159.49,220.96 c -5.26,-6.85 -20.14,-24.17 -17.84,-40.86 2.3,-16.69 13.81,-63.96 64.45,-107.61 39.82,-34.32 120.77,-82.16 185.3,-70.78 34.14,6.02 45.62,16.57 53.52,27.05 12.84,17.05 29.35,37.4 29.35,49.49 -12.66,-6.91 -36.59,8.67 -73.35,23.59 -40.71,16.52 -86.89,35.45 -128.91,56.34 -39.38,19.57 -70.67,39.14 -99.27,57.6 -6.52,4.2 -9.46,10.11 -13.25,5.18 z"
   inkscape:connector-curvature="0" />
				</defs>
				<clipPath
   id="SVGID_00000052075820823035128980000018295842619583286160_">
					<use
   xlink:href="#SVGID_00000006695727617191777380000016877603181243091606_"
   overflow="visible"
   id="use28"
   style="overflow:visible"
   x="0"
   y="0"
   width="100%"
   height="100%" />
				</clipPath>
				
					<linearGradient
   id="SVGID_00000092432844227640714190000012623296997308311205_"
   gradientUnits="userSpaceOnUse"
   x1="139.3054"
   y1="186.4664"
   x2="439.10431"
   y2="15.5516">
					<stop
   offset="0"
   style="stop-color:#8B00C2"
   id="stop31" />
					<stop
   offset="0.1888"
   style="stop-color:#AD1BD3"
   id="stop33" />
					<stop
   offset="0.3915"
   style="stop-color:#CA33E1"
   id="stop35" />
					<stop
   offset="0.5668"
   style="stop-color:#DC42EA"
   id="stop37" />
					<stop
   offset="0.6936"
   style="stop-color:#E247ED"
   id="stop39" />
					<stop
   offset="0.7856"
   style="stop-color:#E044EE"
   id="stop41" />
					<stop
   offset="0.8515"
   style="stop-color:#D83BF0"
   id="stop43" />
					<stop
   offset="0.9092"
   style="stop-color:#CC2BF4"
   id="stop45" />
					<stop
   offset="0.9619"
   style="stop-color:#BB15FA"
   id="stop47" />
					<stop
   offset="1"
   style="stop-color:#AA00FF"
   id="stop49" />
				</linearGradient>
				
					<path
   clip-path="url(#SVGID_00000052075820823035128980000018295842619583286160_)"
   d="m 159.49,220.96 c -5.26,-6.85 -20.14,-24.17 -17.84,-40.86 2.3,-16.69 13.81,-63.96 64.45,-107.61 39.82,-34.32 120.77,-82.16 185.3,-70.78 34.14,6.02 45.62,16.57 53.52,27.05 12.84,17.05 29.35,37.4 29.35,49.49 -12.66,-6.91 -36.59,8.67 -73.35,23.59 -40.71,16.52 -86.89,35.45 -128.91,56.34 -39.38,19.57 -70.67,39.14 -99.27,57.6 -6.52,4.2 -9.46,10.11 -13.25,5.18 z"
   id="path52"
   inkscape:connector-curvature="0"
   style="fill:url(#SVGID_00000092432844227640714190000012623296997308311205_)" />
				
					<linearGradient
   id="SVGID_00000037683858016189230810000002790837885428641205_"
   gradientUnits="userSpaceOnUse"
   x1="264.4469"
   y1="34.247501"
   x2="315.44269"
   y2="149.58701">
					<stop
   offset="0"
   style="stop-color:#FF80D0"
   id="stop54" />
					<stop
   offset="0.0185"
   style="stop-color:#FD7CD2;stop-opacity:0.9577"
   id="stop56" />
					<stop
   offset="0.1868"
   style="stop-color:#EE5FE1;stop-opacity:0.5731"
   id="stop58" />
					<stop
   offset="0.3323"
   style="stop-color:#E54DEA;stop-opacity:0.2405"
   id="stop60" />
					<stop
   offset="0.4375"
   style="stop-color:#E247ED;stop-opacity:0"
   id="stop62" />
					<stop
   offset="0.6784"
   style="stop-color:#E047EB;stop-opacity:0.4283"
   id="stop64" />
					<stop
   offset="0.7663"
   style="stop-color:#D947E5;stop-opacity:0.5845"
   id="stop66" />
					<stop
   offset="0.8292"
   style="stop-color:#CD48DA;stop-opacity:0.6963"
   id="stop68" />
					<stop
   offset="0.8801"
   style="stop-color:#BC49CA;stop-opacity:0.7868"
   id="stop70" />
					<stop
   offset="0.9237"
   style="stop-color:#A64AB5;stop-opacity:0.8644"
   id="stop72" />
					<stop
   offset="0.9619"
   style="stop-color:#8C4C9C;stop-opacity:0.9322"
   id="stop74" />
					<stop
   offset="0.9961"
   style="stop-color:#6C4E7E;stop-opacity:0.9931"
   id="stop76" />
					<stop
   offset="1"
   style="stop-color:#684E7A"
   id="stop78" />
				</linearGradient>
				
					<path
   clip-path="url(#SVGID_00000052075820823035128980000018295842619583286160_)"
   d="m 159.49,220.96 c -5.26,-6.85 -20.14,-24.17 -17.84,-40.86 2.3,-16.69 13.81,-63.96 64.45,-107.61 39.82,-34.32 120.77,-82.16 185.3,-70.78 34.14,6.02 45.62,16.57 53.52,27.05 12.84,17.05 29.35,37.4 29.35,49.49 -12.66,-6.91 -36.59,8.67 -73.35,23.59 -40.71,16.52 -86.89,35.45 -128.91,56.34 -39.38,19.57 -70.67,39.14 -99.27,57.6 -6.52,4.2 -9.46,10.11 -13.25,5.18 z"
   id="path81"
   inkscape:connector-curvature="0"
   style="fill:url(#SVGID_00000037683858016189230810000002790837885428641205_)" />
				
					<linearGradient
   id="SVGID_00000121247927293224854580000014362617110380885650_"
   gradientUnits="userSpaceOnUse"
   x1="159.5475"
   y1="203.8194"
   x2="454.1774"
   y2="35.851398">
					<stop
   offset="0"
   style="stop-color:#C2C2C2"
   id="stop83" />
					<stop
   offset="0.0579"
   style="stop-color:#CACACA"
   id="stop85" />
					<stop
   offset="0.3132"
   style="stop-color:#E7E7E7"
   id="stop87" />
					<stop
   offset="0.534"
   style="stop-color:#F9F9F9"
   id="stop89" />
					<stop
   offset="0.6936"
   style="stop-color:#FFFFFF"
   id="stop91" />
					<stop
   offset="0.8019"
   style="stop-color:#FCFCFC"
   id="stop93" />
					<stop
   offset="0.8795"
   style="stop-color:#F3F3F3"
   id="stop95" />
					<stop
   offset="0.9471"
   style="stop-color:#E3E3E3"
   id="stop97" />
					<stop
   offset="1"
   style="stop-color:#D1D1D1"
   id="stop99" />
				</linearGradient>
				
					<path
   clip-path="url(#SVGID_00000052075820823035128980000018295842619583286160_)"
   d="M 183.57,213.73 C 175.39,201.91 170.59,197.86 175.88,187.77 181.17,177.68 236.2,119.45 350.92,74.3 466.05,29 460.5,53.44 469.34,62.45 454.2,38.82 452.32,29.11 346.55,69.49 240.78,109.87 170.65,173.91 161.8,195.31 c -4.46,10.79 2.25,15.33 10.22,27.52 z"
   id="path102"
   inkscape:connector-curvature="0"
   style="fill:url(#SVGID_00000121247927293224854580000014362617110380885650_)" />
				
					<linearGradient
   id="SVGID_00000011012366861262715500000009018021723200658860_"
   gradientUnits="userSpaceOnUse"
   x1="293.55981"
   y1="67.0989"
   x2="136.0002"
   y2="184.5117">
					<stop
   offset="0"
   style="stop-color:#54525E"
   id="stop104" />
					<stop
   offset="0.4922"
   style="stop-color:#3F3654"
   id="stop106" />
					<stop
   offset="1"
   style="stop-color:#150724"
   id="stop108" />
				</linearGradient>
				
					<path
   clip-path="url(#SVGID_00000052075820823035128980000018295842619583286160_)"
   d="m 170.1,225.75 c -11.06,-15.87 -21.26,-23.91 -7.32,-44.23 11.04,-16.1 47.71,-54.33 132.8,-94.85 -52.18,17.81 -83.2,29.48 -94.25,17.93 -6.58,-6.88 -17.76,-22.17 -17.76,-22.17 -36.54,39.48 -76.92,107.27 -24.52,146.7 z"
   id="path111"
   inkscape:connector-curvature="0"
   style="fill:url(#SVGID_00000011012366861262715500000009018021723200658860_)" />
				
					<linearGradient
   id="SVGID_00000121980537749644607390000014063305540453937045_"
   gradientUnits="userSpaceOnUse"
   x1="396.4512"
   y1="51.889198"
   x2="444.1575"
   y2="22.3237">
					<stop
   offset="0"
   style="stop-color:#55525E"
   id="stop113" />
					<stop
   offset="0.4922"
   style="stop-color:#3D3654"
   id="stop115" />
					<stop
   offset="1"
   style="stop-color:#2A0F4D"
   id="stop117" />
				</linearGradient>
				
					<path
   clip-path="url(#SVGID_00000052075820823035128980000018295842619583286160_)"
   d="m 397.99,45.94 c 27.89,-8.17 48.76,-14.74 59.84,0 10.91,-8.17 -1.19,-24.52 -10.32,-33.17 -9.13,-8.65 -34.25,-14.17 -25.54,-2.28 8.72,11.89 19.57,14.88 -23.98,35.45 z"
   id="path120"
   inkscape:connector-curvature="0"
   style="fill:url(#SVGID_00000121980537749644607390000014063305540453937045_)" />
				<path
   clip-path="url(#SVGID_00000052075820823035128980000018295842619583286160_)"
   d="m 189.82,77.67 c 0,0 9.13,14.42 13.46,19.23 4.33,4.81 11.06,5.77 19.23,5.29 8.17,-0.48 19.23,-1.4 38.94,-7.43 -27.89,3.11 -42.31,5.14 -50.48,-4.77 -8.17,-9.91 -14.42,-20.97 -14.42,-20.97 z"
   id="path122"
   inkscape:connector-curvature="0"
   style="fill:#ffffff" />
				<path
   clip-path="url(#SVGID_00000052075820823035128980000018295842619583286160_)"
   d="M 411.46,33.92 C 426.36,24.3 429.47,23.37 417.1,8.45 404.73,-6.47 396.8,-5.9 406.77,5.11 c 9.97,11.01 20.78,18.57 4.69,28.81 z"
   id="path124"
   inkscape:connector-curvature="0"
   style="fill:#ffffff" />
			</g>
		</g>
	</g>
	<g
   id="g273">
		<g
   id="g144">
			<g
   id="g136">
				<g
   id="g134">
					<path
   d="m 571.12,318.92 c -6.39,5.11 -13.12,10.01 -20.51,13.59 -2.57,1.25 -8.73,4.64 -11.45,2 1.1,1.56 2.19,3.12 3.29,4.69 -2.14,-3.37 3.38,-9.49 5.2,-11.72 4.91,-6.02 10.72,-11.33 16.74,-16.21 6.18,-5.01 12.77,-9.74 19.91,-13.3 2.63,-1.31 9.22,-5.03 12.05,-2.29 -1.1,-1.56 -2.19,-3.12 -3.29,-4.69 2.06,3.26 -3.04,9.01 -4.79,11.21 -4.98,6.25 -10.99,11.66 -17.15,16.72 -0.15,0.12 3.42,4.71 3.34,4.78 6,-4.92 11.83,-10.18 16.74,-16.21 2.02,-2.48 6.26,-7.14 5.57,-10.76 -0.33,-1.72 -2.45,-4.7 -3.74,-5.79 -2.74,-2.32 -7.57,0.16 -10.31,1.4 -13.76,6.25 -26.69,16.93 -36.61,28.22 -2.53,2.88 -7.49,7.86 -7.42,12.11 0.03,2.08 2.06,4.69 3.43,6.11 2.67,2.75 7.05,0.65 10.08,-0.67 8.08,-3.55 15.4,-8.93 22.26,-14.41 0.13,-0.11 -3.4,-4.73 -3.34,-4.78 z"
   id="path132"
   inkscape:connector-curvature="0" />
				</g>
			</g>
			<g
   id="g140">
				<ellipse
   transform="matrix(0.7771,-0.6294,0.6294,0.7771,-71.7574,427.5601)"
   cx="567.76001"
   cy="315.09"
   rx="16.780001"
   ry="1.92"
   id="ellipse138" />
			</g>
			<polygon
   points="526.13,324.59 532.7,320.94 536.59,321.91 538.78,325.07 545.36,323.37 554.36,319.23 561.91,318.5 565.8,315.09 568.24,306.09 572.37,295.38 575.54,290.51 571.64,288.32 568.24,292.21 567.99,297.08 566.11,300.85 561.42,301.22 562.15,296.6 557.77,291.73 552.42,291.97 550.22,297.33 549.74,302.68 543.65,305.84 538.3,308.77 532.94,308.77 534.89,312.42 527.83,314.12 521.75,319.96 516.39,318.26 514.69,322.64 519.8,324.59 "
   id="polygon142" />
		</g>
		<g
   id="g271">
			
				<linearGradient
   id="SVGID_00000112602938808718279570000007747351719124429472_"
   gradientUnits="userSpaceOnUse"
   x1="795.23468"
   y1="147.0414"
   x2="798.78461"
   y2="177.01781">
				<stop
   offset="0"
   style="stop-color:#072900"
   id="stop146" />
				<stop
   offset="0.1081"
   style="stop-color:#123D00"
   id="stop148" />
				<stop
   offset="0.2533"
   style="stop-color:#1D5100"
   id="stop150" />
				<stop
   offset="0.4207"
   style="stop-color:#255F00"
   id="stop152" />
				<stop
   offset="0.6287"
   style="stop-color:#2A6700"
   id="stop154" />
				<stop
   offset="1"
   style="stop-color:#2B6900"
   id="stop156" />
			</linearGradient>
			<path
   d="m 770.98,141.86 c 9.15,-3.52 53.44,-2.73 47.6,9.46 -5.61,9.36 -15.3,19.74 -24.38,27.28 -4.23,-7.54 -19.08,-17 -23.22,-36.74 z"
   id="path159"
   inkscape:connector-curvature="0"
   style="fill:url(#SVGID_00000112602938808718279570000007747351719124429472_)" />
			<g
   id="g269">
				<defs
   id="defs162">
					<path
   id="SVGID_00000163789692065720296360000007498189737093788093_"
   d="m 818.61,151.42 c 1.65,-2.06 4.22,-8.17 0.28,-14.7 -12.2,-20.25 -33.01,-51.59 -52.98,-65.18 -22.77,-15.5 -66.98,-19.85 -120.49,3.38 -53.51,23.24 -92.9,51.53 -123.88,93.42 -30.98,41.89 -26.68,71.89 -22.75,80.99 4.85,11.23 18.44,28.36 21.91,33.84 0.66,1.05 10.42,-6.33 25.8,-17.75 50.76,-37.72 126.61,-69.39 208.59,-100.97 74.89,-28.84 62.41,-11.92 63.52,-13.03 z"
   inkscape:connector-curvature="0" />
				</defs>
				<clipPath
   id="SVGID_00000151534617947928819510000009265213755265767061_">
					<use
   xlink:href="#SVGID_00000163789692065720296360000007498189737093788093_"
   overflow="visible"
   id="use164"
   style="overflow:visible"
   x="0"
   y="0"
   width="100%"
   height="100%" />
				</clipPath>
				
					<linearGradient
   id="SVGID_00000175320357741043566600000006077842018263652270_"
   gradientUnits="userSpaceOnUse"
   x1="492.8208"
   y1="238.2865"
   x2="786.04327"
   y2="84.050598">
					<stop
   offset="0.013"
   style="stop-color:#004A82"
   id="stop167" />
					<stop
   offset="0.0147"
   style="stop-color:#004A82"
   id="stop169" />
					<stop
   offset="0.2237"
   style="stop-color:#006DA6"
   id="stop171" />
					<stop
   offset="0.4202"
   style="stop-color:#0086BF"
   id="stop173" />
					<stop
   offset="0.5976"
   style="stop-color:#0096CF"
   id="stop175" />
					<stop
   offset="0.7394"
   style="stop-color:#009BD4"
   id="stop177" />
					<stop
   offset="0.814"
   style="stop-color:#0098D1"
   id="stop179" />
					<stop
   offset="0.8757"
   style="stop-color:#008EC7"
   id="stop181" />
					<stop
   offset="0.9327"
   style="stop-color:#017EB5"
   id="stop183" />
					<stop
   offset="0.9866"
   style="stop-color:#02679D"
   id="stop185" />
					<stop
   offset="1"
   style="stop-color:#026096"
   id="stop187" />
				</linearGradient>
				
					<path
   clip-path="url(#SVGID_00000151534617947928819510000009265213755265767061_)"
   d="m 818.61,151.42 c 1.65,-2.06 4.22,-8.17 0.28,-14.7 -12.2,-20.25 -33.01,-51.59 -52.98,-65.18 -22.77,-15.5 -66.98,-19.85 -120.49,3.38 -53.51,23.24 -92.9,51.53 -123.88,93.42 -30.98,41.89 -26.68,71.89 -22.75,80.99 4.85,11.23 18.44,28.36 21.91,33.84 0.66,1.05 10.42,-6.33 25.8,-17.75 50.76,-37.72 126.61,-69.39 208.59,-100.97 74.89,-28.84 62.41,-11.92 63.52,-13.03 z"
   id="path190"
   inkscape:connector-curvature="0"
   style="fill:url(#SVGID_00000175320357741043566600000006077842018263652270_)" />
				
					<radialGradient
   id="SVGID_00000083771895428907698410000000526544726453914256_"
   cx="601.07422"
   cy="236.62601"
   r="150.1772"
   fx="600.87207"
   fy="238.3602"
   gradientTransform="matrix(0.8688,-0.4952,0.0856,0.1501,58.6429,498.7892)"
   gradientUnits="userSpaceOnUse">
					<stop
   offset="0.013"
   style="stop-color:#005782"
   id="stop192" />
					<stop
   offset="0.2068"
   style="stop-color:#005880;stop-opacity:0.8036"
   id="stop194" />
					<stop
   offset="1"
   style="stop-color:#005A7A;stop-opacity:0"
   id="stop196" />
				</radialGradient>
				
					<path
   clip-path="url(#SVGID_00000151534617947928819510000009265213755265767061_)"
   d="m 818.61,151.42 c 1.65,-2.06 4.22,-8.17 0.28,-14.7 -12.2,-20.25 -33.01,-51.59 -52.98,-65.18 -22.77,-15.5 -66.98,-19.85 -120.49,3.38 -53.51,23.24 -92.9,51.53 -123.88,93.42 -30.98,41.89 -26.68,71.89 -22.75,80.99 4.85,11.23 18.44,28.36 21.91,33.84 0.66,1.05 10.42,-6.33 25.8,-17.75 50.76,-37.72 126.61,-69.39 208.59,-100.97 74.89,-28.84 62.41,-11.92 63.52,-13.03 z"
   id="path199"
   inkscape:connector-curvature="0"
   style="fill:url(#SVGID_00000083771895428907698410000000526544726453914256_)" />
				
					<radialGradient
   id="SVGID_00000118355804744336240690000009870619110539306165_"
   cx="815.02502"
   cy="148.10989"
   r="251.1127"
   fx="814.68707"
   fy="151.0097"
   gradientTransform="matrix(0.9455,-0.3256,0.079,0.2295,32.7062,379.4871)"
   gradientUnits="userSpaceOnUse">
					<stop
   offset="0.013"
   style="stop-color:#005782"
   id="stop201" />
					<stop
   offset="0.2114"
   style="stop-color:#006997;stop-opacity:0.799"
   id="stop203" />
					<stop
   offset="0.5155"
   style="stop-color:#0080B1;stop-opacity:0.4909"
   id="stop205" />
					<stop
   offset="0.7879"
   style="stop-color:#008DC1;stop-opacity:0.2149"
   id="stop207" />
					<stop
   offset="1"
   style="stop-color:#0092C7;stop-opacity:0"
   id="stop209" />
				</radialGradient>
				
					<path
   clip-path="url(#SVGID_00000151534617947928819510000009265213755265767061_)"
   d="m 818.61,151.42 c 1.65,-2.06 4.22,-8.17 0.28,-14.7 -12.2,-20.25 -33.01,-51.59 -52.98,-65.18 -22.77,-15.5 -66.98,-19.85 -120.49,3.38 -53.51,23.24 -92.9,51.53 -123.88,93.42 -30.98,41.89 -26.68,71.89 -22.75,80.99 4.85,11.23 18.44,28.36 21.91,33.84 0.66,1.05 10.42,-6.33 25.8,-17.75 50.76,-37.72 126.61,-69.39 208.59,-100.97 74.89,-28.84 62.41,-11.92 63.52,-13.03 z"
   id="path212"
   inkscape:connector-curvature="0"
   style="fill:url(#SVGID_00000118355804744336240690000009870619110539306165_)" />
				
					<linearGradient
   id="SVGID_00000083801532624696003170000006750013045377225885_"
   gradientUnits="userSpaceOnUse"
   x1="501.8476"
   y1="212.4847"
   x2="775.72992"
   y2="68.817398">
					<stop
   offset="0"
   style="stop-color:#2B8709"
   id="stop214" />
					<stop
   offset="0.5988"
   style="stop-color:#9EE004"
   id="stop216" />
					<stop
   offset="0.7036"
   style="stop-color:#9BDD04"
   id="stop218" />
					<stop
   offset="0.7902"
   style="stop-color:#90D304"
   id="stop220" />
					<stop
   offset="0.8702"
   style="stop-color:#7FC204"
   id="stop222" />
					<stop
   offset="0.9459"
   style="stop-color:#67AB03"
   id="stop224" />
					<stop
   offset="1"
   style="stop-color:#519603"
   id="stop226" />
				</linearGradient>
				
					<path
   clip-path="url(#SVGID_00000151534617947928819510000009265213755265767061_)"
   d="m 504.06,205.23 c 13.87,-29.4 71.29,-73.23 112.62,-46.88 0.83,-59.36 57.14,-88.21 97.91,-93.2 36.13,-4.42 58.5,9.13 88.21,47.15 C 781.44,83.73 758.42,47.95 689.91,65.42 584.15,92.4 520.15,169.73 504.06,205.23 Z"
   id="path229"
   inkscape:connector-curvature="0"
   style="fill:url(#SVGID_00000083801532624696003170000006750013045377225885_)" />
				
					<linearGradient
   id="SVGID_00000064330223179002888210000016094152918383511993_"
   gradientUnits="userSpaceOnUse"
   x1="500.17291"
   y1="207.75819"
   x2="780.50201"
   y2="73.256798">
					<stop
   offset="0"
   style="stop-color:#949494"
   id="stop231" />
					<stop
   offset="0.1117"
   style="stop-color:#B0B0B0"
   id="stop233" />
					<stop
   offset="0.2722"
   style="stop-color:#D2D2D2"
   id="stop235" />
					<stop
   offset="0.4246"
   style="stop-color:#EBEBEB"
   id="stop237" />
					<stop
   offset="0.5642"
   style="stop-color:#FAFAFA"
   id="stop239" />
					<stop
   offset="0.6789"
   style="stop-color:#FFFFFF"
   id="stop241" />
					<stop
   offset="0.7606"
   style="stop-color:#FCFCFC"
   id="stop243" />
					<stop
   offset="0.828"
   style="stop-color:#F1F1F1"
   id="stop245" />
					<stop
   offset="0.8904"
   style="stop-color:#E0E0E0"
   id="stop247" />
					<stop
   offset="0.9494"
   style="stop-color:#C8C8C8"
   id="stop249" />
					<stop
   offset="1"
   style="stop-color:#ADADAD"
   id="stop251" />
				</linearGradient>
				
					<path
   clip-path="url(#SVGID_00000151534617947928819510000009265213755265767061_)"
   d="m 504.06,205.23 c 13.87,-29.4 77.39,-64.35 118.72,-38 0.83,-59.36 47.43,-94.31 83.49,-99.3 36.06,-4.99 54.92,-4.16 96.53,44.38 -21.36,-28.57 -47.71,-58.25 -99.3,-46.6 -51.59,11.65 -84.6,39.67 -99.3,75.72 -37.18,0 -83.22,26.63 -100.14,63.8 z"
   id="path254"
   inkscape:connector-curvature="0"
   style="fill:url(#SVGID_00000064330223179002888210000016094152918383511993_)" />
				
					<radialGradient
   id="SVGID_00000038403477819417188320000014168605107175845277_"
   cx="652.05792"
   cy="71.120903"
   r="334.51669"
   fx="651.60779"
   fy="74.983803"
   gradientTransform="matrix(0.8688,-0.4952,0.0851,0.1493,79.525,383.4268)"
   gradientUnits="userSpaceOnUse">
					<stop
   offset="0"
   style="stop-color:#9CFFD4;stop-opacity:0.7"
   id="stop256" />
					<stop
   offset="0.1402"
   style="stop-color:#8FF5DF;stop-opacity:0.6018"
   id="stop258" />
					<stop
   offset="0.4376"
   style="stop-color:#7AE4F1;stop-opacity:0.3937"
   id="stop260" />
					<stop
   offset="0.7276"
   style="stop-color:#6DDAFB;stop-opacity:0.1907"
   id="stop262" />
					<stop
   offset="1"
   style="stop-color:#69D7FF;stop-opacity:0"
   id="stop264" />
				</radialGradient>
				
					<path
   clip-path="url(#SVGID_00000151534617947928819510000009265213755265767061_)"
   d="m 818.61,151.42 c 1.65,-2.06 4.22,-8.17 0.28,-14.7 -12.2,-20.25 -33.01,-51.59 -52.98,-65.18 -22.77,-15.5 -66.98,-19.85 -120.49,3.38 -53.51,23.24 -92.9,51.53 -123.88,93.42 -30.98,41.89 -26.68,71.89 -22.75,80.99 4.85,11.23 18.44,28.36 21.91,33.84 0.66,1.05 10.42,-6.33 25.8,-17.75 50.76,-37.72 126.61,-69.39 208.59,-100.97 74.89,-28.84 62.41,-11.92 63.52,-13.03 z"
   id="path267"
   inkscape:connector-curvature="0"
   style="fill:url(#SVGID_00000038403477819417188320000014168605107175845277_)" />
			</g>
		</g>
	</g>
	<g
   id="g475">
		<g
   id="g287">
			<g
   id="g279">
				<g
   id="g277">
					<path
   d="m 184.54,618.72 c -7.51,5.51 -15.34,10.81 -23.77,14.82 -2.56,1.22 -9.85,5.34 -12.53,2.54 1.17,1.66 2.33,3.33 3.5,4.99 -1.92,-3.41 4.14,-9.13 6.07,-11.25 6.29,-6.89 13.62,-12.89 21.1,-18.44 7.31,-5.42 14.99,-10.54 23.18,-14.54 2.63,-1.28 10.33,-5.75 13.13,-2.82 -1.17,-1.66 -2.33,-3.33 -3.5,-4.99 1.9,3.38 -4.19,9.19 -6.07,11.25 -6.3,6.91 -13.64,12.85 -21.11,18.44 -0.09,0.07 3.51,4.98 3.5,4.99 6.93,-5.19 13.7,-10.69 19.7,-16.94 2.36,-2.46 8.34,-7.79 7.78,-11.8 -0.24,-1.71 -2.59,-5.12 -3.95,-6.08 -3.09,-2.19 -8.93,1.05 -11.8,2.39 -15.39,7.18 -29.95,18.11 -42.02,29.98 -5.2,5.11 -14.23,12.94 -6.18,19.6 3.07,2.54 8.42,-0.37 11.52,-1.78 8.89,-4.04 17.1,-9.61 24.95,-15.37 0.07,-0.05 -3.49,-4.99 -3.5,-4.99 z"
   id="path275"
   inkscape:connector-curvature="0" />
				</g>
			</g>
			<g
   id="g283">
				<ellipse
   transform="matrix(0.8034,-0.5955,0.5955,0.8034,-330.5109,229.1404)"
   cx="181.72"
   cy="615.04999"
   rx="19.700001"
   ry="1.6900001"
   id="ellipse281" />
			</g>
			<polygon
   points="134.72,608.55 130.39,611 133.59,614.58 136.8,614.02 145.65,616.46 144.33,621.93 138.68,624.38 139.24,627.01 143.95,627.95 149.87,625.75 151.49,622.49 157.89,621.74 161.47,622.68 165.43,620.42 171.02,622.03 185.58,610.25 182.57,605.73 183.89,598.76 186.52,592.17 191.04,585.57 190.86,581.62 192.93,578.6 191.61,576.15 187.09,578.23 187.28,581.62 185.39,587.27 181.63,592.17 173.53,593.67 171.32,592.46 172.69,589.69 168.19,584.63 161.82,585.75 160.32,590.06 160.91,597.06 159.02,601.4 153.37,599.32 151.11,601.96 151.68,606.48 148.29,605.54 146.59,608.74 146.21,611.57 138.87,610.63 "
   id="polygon285" />
		</g>
		<g
   id="g473">
			
				<linearGradient
   id="SVGID_00000077283062631127157850000011634544961045618333_"
   gradientUnits="userSpaceOnUse"
   x1="416.36801"
   y1="434.64099"
   x2="414.99811"
   y2="442.61209">
				<stop
   offset="0"
   style="stop-color:#7D0027"
   id="stop289" />
				<stop
   offset="0.1259"
   style="stop-color:#8E0021"
   id="stop291" />
				<stop
   offset="0.5247"
   style="stop-color:#BE000F"
   id="stop293" />
				<stop
   offset="0.8288"
   style="stop-color:#DD0004"
   id="stop295" />
				<stop
   offset="1"
   style="stop-color:#E80000"
   id="stop297" />
			</linearGradient>
			<path
   d="m 421.03,445.92 c 5.13,-4.03 8.42,-12.27 4.03,-14.47 -4.4,-2.2 -22.89,-5.49 -17.76,-1.28 5.13,4.21 10.99,10.25 13.73,15.75 z"
   id="path300"
   inkscape:connector-curvature="0"
   style="fill:url(#SVGID_00000077283062631127157850000011634544961045618333_)" />
			<g
   id="g471">
				<defs
   id="defs303">
					<path
   id="SVGID_00000111190220621011783070000006560006599479982765_"
   d="m 426.89,436.58 c 5.86,-7.87 -22.81,-62.08 -45.88,-76.2 -29.05,-17.78 -74.06,-21.85 -140.11,2.81 -68.1,25.43 -127.69,67.51 -168.98,125.01 -36.93,51.43 -27.54,89.19 -19.96,98.59 8.05,9.99 24.13,22.83 29.44,27.42 -0.61,-5.51 15.63,-18.81 26.33,-26.43 49.22,-35.05 76.29,-46.6 209.06,-114.27 70.39,-35.88 107.43,-49.65 110.1,-36.93 z"
   inkscape:connector-curvature="0" />
				</defs>
				<clipPath
   id="SVGID_00000028314571446712491720000013213145838777026214_">
					<use
   xlink:href="#SVGID_00000111190220621011783070000006560006599479982765_"
   overflow="visible"
   id="use305"
   style="overflow:visible"
   x="0"
   y="0"
   width="100%"
   height="100%" />
				</clipPath>
				
					<linearGradient
   id="SVGID_00000134223799977529089910000004367440248495568779_"
   gradientUnits="userSpaceOnUse"
   x1="39.4594"
   y1="573.56982"
   x2="390.71909"
   y2="360.88321">
					<stop
   offset="0"
   style="stop-color:#E3A600"
   id="stop308" />
					<stop
   offset="0.4367"
   style="stop-color:#F6C000"
   id="stop310" />
					<stop
   offset="0.7206"
   style="stop-color:#FFCB00"
   id="stop312" />
					<stop
   offset="0.8242"
   style="stop-color:#FFC500"
   id="stop314" />
					<stop
   offset="0.9652"
   style="stop-color:#FFB300"
   id="stop316" />
					<stop
   offset="1"
   style="stop-color:#FFAE00"
   id="stop318" />
				</linearGradient>
				
					
				
					<linearGradient
   id="SVGID_00000147201587541346947740000005012731954288397961_"
   gradientUnits="userSpaceOnUse"
   x1="24.933599"
   y1="542.39893"
   x2="379.1748"
   y2="326.00449">
					<stop
   offset="0"
   style="stop-color:#661940"
   id="stop323" />
					<stop
   offset="0.1001"
   style="stop-color:#8F2441"
   id="stop325" />
					<stop
   offset="0.2157"
   style="stop-color:#B73041"
   id="stop327" />
					<stop
   offset="0.3296"
   style="stop-color:#D63941"
   id="stop329" />
					<stop
   offset="0.4396"
   style="stop-color:#ED3F42"
   id="stop331" />
					<stop
   offset="0.5441"
   style="stop-color:#FA4342"
   id="stop333" />
					<stop
   offset="0.637"
   style="stop-color:#FF4442"
   id="stop335" />
					<stop
   offset="0.7313"
   style="stop-color:#FC4241"
   id="stop337" />
					<stop
   offset="0.8021"
   style="stop-color:#F23B3D"
   id="stop339" />
					<stop
   offset="0.8652"
   style="stop-color:#E22F38"
   id="stop341" />
					<stop
   offset="0.9239"
   style="stop-color:#CB1F2F"
   id="stop343" />
					<stop
   offset="0.979"
   style="stop-color:#AE0A25"
   id="stop345" />
					<stop
   offset="1"
   style="stop-color:#A10020"
   id="stop347" />
				</linearGradient>
				
					<path
   clip-path="url(#SVGID_00000028314571446712491720000013213145838777026214_)"
   d="m 71.12,609.1 c -17.67,-26.66 -8.17,-72.16 24.39,-105.04 31.46,-31.78 30.74,-39.51 32.74,-58.99 24.29,2.5 22.81,3.27 73.43,-17.03 44.08,-17.68 70.17,-2.11 87.64,19.46 -16.06,-39.57 -6.15,-53.12 27.62,-72.14 8.43,-4.75 15.05,-6.95 18.41,-10.43 5.61,-5.8 4.22,-11.57 2.16,-12.24 9.7,3.8 15.81,9.34 30.31,12.76 9.76,2.3 29.53,5.48 42.28,27.42 12.74,21.94 3.58,-31.48 3.58,-31.48 0,0 -37.56,-128.27 -225.36,-13.71 C 0.52,462.24 -21.65,595.2 71.12,609.1 Z"
   id="path350"
   inkscape:connector-curvature="0"
   style="fill:url(#SVGID_00000147201587541346947740000005012731954288397961_)" />
				
					<radialGradient
   id="SVGID_00000034065206458724607660000010776622892048387738_"
   cx="248.9767"
   cy="480.44971"
   r="362.05411"
   gradientTransform="matrix(0.8947,-0.4467,0.1421,0.2846,-42.0376,454.9575)"
   gradientUnits="userSpaceOnUse">
					<stop
   offset="0.6023"
   style="stop-color:#FF0049;stop-opacity:0"
   id="stop352" />
					<stop
   offset="0.6549"
   style="stop-color:#FF0A45;stop-opacity:0.1662"
   id="stop354" />
					<stop
   offset="0.7454"
   style="stop-color:#FF263B;stop-opacity:0.4523"
   id="stop356" />
					<stop
   offset="0.8623"
   style="stop-color:#FF532A;stop-opacity:0.8215"
   id="stop358" />
					<stop
   offset="0.9188"
   style="stop-color:#FF6B21"
   id="stop360" />
				</radialGradient>
				
					<path
   clip-path="url(#SVGID_00000028314571446712491720000013213145838777026214_)"
   d="m 426.31,436.13 c 6.03,-8.71 -22.22,-61.63 -45.29,-75.75 -29.05,-17.78 -74.06,-21.85 -140.11,2.81 -68.11,25.43 -127.7,67.51 -168.99,125.01 -36.93,51.43 -27.54,89.19 -19.96,98.59 8.05,9.99 24.13,22.83 29.44,27.42 -0.61,-5.51 15.63,-18.81 26.33,-26.43 49.22,-35.05 76.29,-46.6 209.06,-114.27 70.39,-35.88 106.84,-50.1 109.52,-37.38 z"
   id="path363"
   inkscape:connector-curvature="0"
   style="fill:url(#SVGID_00000034065206458724607660000010776622892048387738_)" />
				
					<linearGradient
   id="SVGID_00000119822011507937746630000014040833595837103533_"
   gradientUnits="userSpaceOnUse"
   x1="187.1283"
   y1="399.6568"
   x2="248.9346"
   y2="525.56018">
					<stop
   offset="0.6023"
   style="stop-color:#E8B200;stop-opacity:0"
   id="stop365" />
					<stop
   offset="0.69"
   style="stop-color:#E7AC00;stop-opacity:0.1595"
   id="stop367" />
					<stop
   offset="0.8095"
   style="stop-color:#E29A00;stop-opacity:0.3765"
   id="stop369" />
					<stop
   offset="0.9466"
   style="stop-color:#DB7E00;stop-opacity:0.6257"
   id="stop371" />
					<stop
   offset="0.9875"
   style="stop-color:#D97400;stop-opacity:0.7"
   id="stop373" />
				</linearGradient>
				
					<linearGradient
   id="SVGID_00000105398839407084399120000013879483307022688957_"
   gradientUnits="userSpaceOnUse"
   x1="44.4002"
   y1="480.4649"
   x2="427.73199"
   y2="480.4649">
					<stop
   offset="0"
   style="stop-color:#34D9D4"
   id="stop376" />
					<stop
   offset="0.0563"
   style="stop-color:#3EDCD8"
   id="stop378" />
					<stop
   offset="0.3594"
   style="stop-color:#6EECED"
   id="stop380" />
					<stop
   offset="0.5905"
   style="stop-color:#8DF6FA"
   id="stop382" />
					<stop
   offset="0.7206"
   style="stop-color:#98FAFF"
   id="stop384" />
					<stop
   offset="0.7564"
   style="stop-color:#92F8FE"
   id="stop386" />
					<stop
   offset="0.8053"
   style="stop-color:#80F4FB"
   id="stop388" />
					<stop
   offset="0.8616"
   style="stop-color:#64EDF7"
   id="stop390" />
					<stop
   offset="0.9236"
   style="stop-color:#3CE4F1"
   id="stop392" />
					<stop
   offset="0.9894"
   style="stop-color:#09D7E9"
   id="stop394" />
					<stop
   offset="1"
   style="stop-color:#00D5E8"
   id="stop396" />
				</linearGradient>
				
					
				
					<linearGradient
   id="SVGID_00000004510697602925707530000003115674201196355491_"
   gradientUnits="userSpaceOnUse"
   x1="44.766998"
   y1="582.82452"
   x2="409.61719"
   y2="386.7381">
					<stop
   offset="0"
   style="stop-color:#C43800"
   id="stop401" />
					<stop
   offset="0.0736"
   style="stop-color:#CF5000"
   id="stop403" />
					<stop
   offset="0.2119"
   style="stop-color:#E07800"
   id="stop405" />
					<stop
   offset="0.3484"
   style="stop-color:#ED9700"
   id="stop407" />
					<stop
   offset="0.4807"
   style="stop-color:#F7AD00"
   id="stop409" />
					<stop
   offset="0.6069"
   style="stop-color:#FDBA00"
   id="stop411" />
					<stop
   offset="0.7206"
   style="stop-color:#FFBF00"
   id="stop413" />
					<stop
   offset="0.8234"
   style="stop-color:#FFBD00"
   id="stop415" />
					<stop
   offset="0.8767"
   style="stop-color:#FFB500"
   id="stop417" />
					<stop
   offset="0.9185"
   style="stop-color:#FFA800"
   id="stop419" />
					<stop
   offset="0.9544"
   style="stop-color:#FF9500"
   id="stop421" />
					<stop
   offset="0.9862"
   style="stop-color:#FF7C00"
   id="stop423" />
					<stop
   offset="1"
   style="stop-color:#FF6F00"
   id="stop425" />
				</linearGradient>
				
					<path
   clip-path="url(#SVGID_00000028314571446712491720000013213145838777026214_)"
   d="m 80.51,618.87 c -8.05,-5.89 -27,-44.61 22.78,-95.38 27.32,-27.86 41.72,-42.24 49.18,-65.46 -11.06,-2.98 -17.53,-7 -22.78,-11.88 30.13,10.31 33.77,15.57 88.82,-6.63 26.2,-10.57 53.34,-6.72 72.34,10.7 -1.88,-22.54 -7.21,-40.34 34.45,-61 17.73,-8.79 19.95,-17.28 16.25,-33.27 3.62,3.17 5.46,7.68 6.16,13.72 12.32,5.74 21.2,7.12 34.52,10.88 11.84,3.34 25.32,5.79 33.57,22.06 8.25,16.27 11.32,6.68 11.32,6.68 0,0 15.84,17.28 5.33,42.82 -10.51,25.53 -317.27,192.1 -351.94,166.76 z"
   id="path428"
   inkscape:connector-curvature="0"
   style="fill:url(#SVGID_00000004510697602925707530000003115674201196355491_)" />
				
					<radialGradient
   id="SVGID_00000077288302682618405050000004433629429612432825_"
   cx="147.7007"
   cy="569.39062"
   r="380.1488"
   gradientTransform="matrix(0.8632,-0.5049,0.054,0.0924,-10.5602,591.3613)"
   gradientUnits="userSpaceOnUse">
					<stop
   offset="0"
   style="stop-color:#C43800;stop-opacity:0.5"
   id="stop430" />
					<stop
   offset="0.4117"
   style="stop-color:#C43800;stop-opacity:0"
   id="stop432" />
				</radialGradient>
				
					<path
   clip-path="url(#SVGID_00000028314571446712491720000013213145838777026214_)"
   d="m 80.51,618.87 c -8.05,-5.89 -27,-44.61 22.78,-95.38 27.32,-27.86 41.72,-42.24 49.18,-65.46 -11.06,-2.98 -17.53,-7 -22.78,-11.88 30.13,10.31 33.77,15.57 88.82,-6.63 26.2,-10.57 53.34,-6.72 72.34,10.7 -1.88,-22.54 -7.21,-40.34 34.45,-61 17.73,-8.79 19.95,-17.28 16.25,-33.27 3.62,3.17 5.46,7.68 6.16,13.72 12.32,5.74 21.2,7.12 34.52,10.88 11.84,3.34 25.32,5.79 33.57,22.06 8.25,16.27 11.32,6.68 11.32,6.68 0,0 15.84,17.28 5.33,42.82 -10.51,25.53 -317.27,192.1 -351.94,166.76 z"
   id="path435"
   inkscape:connector-curvature="0"
   style="fill:url(#SVGID_00000077288302682618405050000004433629429612432825_)" />
				
					<radialGradient
   id="SVGID_00000127748407446686363940000013193160534694224055_"
   cx="388.02969"
   cy="446.1095"
   r="214.14349"
   gradientTransform="matrix(0.9166,-0.3997,0.067,0.1537,2.4537,532.6572)"
   gradientUnits="userSpaceOnUse">
					<stop
   offset="0"
   style="stop-color:#C43800;stop-opacity:0.5"
   id="stop437" />
					<stop
   offset="0.4117"
   style="stop-color:#C43800;stop-opacity:0"
   id="stop439" />
				</radialGradient>
				
					<path
   clip-path="url(#SVGID_00000028314571446712491720000013213145838777026214_)"
   d="m 80.51,618.87 c -8.05,-5.89 -27,-44.61 22.78,-95.38 27.32,-27.86 41.72,-42.24 49.18,-65.46 -11.06,-2.98 -17.53,-7 -22.78,-11.88 30.13,10.31 33.77,15.57 88.82,-6.63 26.2,-10.57 53.34,-6.72 72.34,10.7 -1.88,-22.54 -7.21,-40.34 34.45,-61 17.73,-8.79 19.95,-17.28 16.25,-33.27 3.62,3.17 5.46,7.68 6.16,13.72 12.32,5.74 21.2,7.12 34.52,10.88 11.84,3.34 25.32,5.79 33.57,22.06 8.25,16.27 11.32,6.68 11.32,6.68 0,0 15.84,17.28 5.33,42.82 -10.51,25.53 -317.27,192.1 -351.94,166.76 z"
   id="path442"
   inkscape:connector-curvature="0"
   style="fill:url(#SVGID_00000127748407446686363940000013193160534694224055_)" />
				
					<linearGradient
   id="SVGID_00000029763442763300037400000004347397641888444843_"
   gradientUnits="userSpaceOnUse"
   x1="61.069801"
   y1="558.42493"
   x2="378.95029"
   y2="364.24219">
					<stop
   offset="0"
   style="stop-color:#87A1A1"
   id="stop444" />
					<stop
   offset="0.0609"
   style="stop-color:#9BB1B1"
   id="stop446" />
					<stop
   offset="0.1863"
   style="stop-color:#BFCDCD"
   id="stop448" />
					<stop
   offset="0.3128"
   style="stop-color:#DBE3E3"
   id="stop450" />
					<stop
   offset="0.4393"
   style="stop-color:#EFF2F2"
   id="stop452" />
					<stop
   offset="0.5659"
   style="stop-color:#FBFCFC"
   id="stop454" />
					<stop
   offset="0.6929"
   style="stop-color:#FFFFFF"
   id="stop456" />
					<stop
   offset="0.8063"
   style="stop-color:#FCFCFC"
   id="stop458" />
					<stop
   offset="0.8756"
   style="stop-color:#F4F4F4"
   id="stop460" />
					<stop
   offset="0.933"
   style="stop-color:#E6E6E6"
   id="stop462" />
					<stop
   offset="0.9837"
   style="stop-color:#D1D1D1"
   id="stop464" />
					<stop
   offset="1"
   style="stop-color:#C9C9C9"
   id="stop466" />
				</linearGradient>
				
					<path
   clip-path="url(#SVGID_00000028314571446712491720000013213145838777026214_)"
   d="m 410.1,392.86 c -12.74,-21.94 -32.52,-25.12 -42.28,-27.42 -14.5,-3.41 -20.6,-8.95 -30.31,-12.76 2.07,0.67 3.45,6.44 -2.16,12.24 -3.36,3.48 -9.98,5.68 -18.41,10.43 -33.77,19.02 -43.68,32.57 -27.62,72.14 -17.47,-21.57 -43.56,-37.14 -87.64,-19.46 -50.62,20.3 -49.14,19.53 -73.43,17.03 -2,19.48 -1.27,27.21 -32.74,58.99 -32.56,32.89 -42.06,78.39 -24.39,105.04 l 9.39,9.77 c -8.05,-5.89 -27,-44.61 22.78,-95.38 27.32,-27.86 41.72,-42.24 49.18,-65.46 -11.06,-2.98 -17.53,-7 -22.78,-11.88 30.13,10.31 33.77,15.57 88.82,-6.63 26.2,-10.57 53.34,-6.72 72.34,10.7 -1.88,-22.54 -7.21,-40.34 34.45,-61 17.73,-8.79 19.95,-17.28 16.25,-33.27 3.62,3.17 5.46,7.68 6.16,13.72 12.32,5.74 21.2,7.12 34.52,10.88 11.84,3.34 25.32,5.79 33.57,22.06 z"
   id="path469"
   inkscape:connector-curvature="0"
   style="fill:url(#SVGID_00000029763442763300037400000004347397641888444843_)" />
			</g>
		</g>
	</g>
</g>
</svg>