<?xml version="1.0" encoding="utf-8"?>
<!-- Generator: Adobe Illustrator 26.1.0, SVG Export Plug-In . SVG Version: 6.00 Build 0)  -->
<svg version="1.1" id="Layer_1" xmlns="http://www.w3.org/2000/svg" xmlns:xlink="http://www.w3.org/1999/xlink" x="0px" y="0px"
	 viewBox="0 0 820.96 802.98" enable-background="new 0 0 820.96 802.98" xml:space="preserve">
<g>
	<g>
		<g opacity="0.15">
			<g>
				<g>
					<path d="M139.58,694.47c6.22-4.82,12.3-9.92,17.63-15.72c2.03-2.21,7-6.87,6.42-10.36c-0.24-1.43-2.3-4.35-3.4-5.16
						c-2.69-1.98-7.42,0.68-9.97,1.88c-13.92,6.55-27.04,16.81-37.77,27.75c-4.63,4.72-11.98,11.33-5.19,17.28
						c2.71,2.38,7.41-0.27,10.2-1.58C125.39,704.83,132.65,699.72,139.58,694.47c0.09-0.07-3.13-4.43-3.11-4.44
						c-6.61,5.01-13.5,9.84-20.95,13.53c-2.28,1.13-8.67,4.84-11.11,2.43c1.04,1.48,2.07,2.96,3.11,4.44c-1.7-3,3.5-8.13,5.24-10.09
						c5.49-6.22,11.94-11.67,18.52-16.7c6.58-5.04,13.51-9.84,20.95-13.53c2.39-1.19,8.64-4.87,11.11-2.43
						c-1.04-1.48-2.07-2.96-3.11-4.44c1.69,2.98-3.59,8.23-5.24,10.09c-5.51,6.23-11.96,11.63-18.52,16.7
						C136.37,690.1,139.62,694.44,139.58,694.47z"/>
				</g>
			</g>
			<g>
				<ellipse transform="matrix(0.7938 -0.6081 0.6081 0.7938 -390.0785 223.0087)" cx="133.87" cy="686.82" rx="17.53" ry="1.5"/>
			</g>
			<polygon points="98.17,685.74 101.05,682.38 103.91,683.37 109.21,683.15 114.32,681.13 117.59,674.57 117.1,672.38 
				114.39,672.87 111.17,667.79 113.69,662.61 117.75,662.39 123.59,664.6 127.76,664.05 127.37,658.71 130.18,657.42 
				129.33,649.21 131.42,646.86 133.24,641.13 134.55,635.65 138.98,636.17 141.15,641.37 140.81,646.34 139.5,650.26 
				140.55,652.86 143.93,656.31 148.93,656.52 152.41,652.29 154.52,653.42 154.17,657.68 150.84,662.2 147.65,662.78 
				145.44,668.08 145.37,671.37 142.46,674.2 142.47,679.38 128.82,688.95 125.69,685.26 119.4,684.68 113.12,685.32 106.37,687.57 
				103.03,686.43 99.94,687.47 			"/>
		</g>
		<g opacity="0.04">
			<defs>
				<path id="SVGID_1_" opacity="0.04" d="M0.58,744.9c-3.78,4.57,11.81,38.16,25.28,47.4c16.96,11.64,43.99,15.51,84.6,2.7
					c41.87-13.2,79.14-36.71,105.85-70.1c23.89-29.86,19.41-52.93,15.13-58.84c-4.54-6.28-13.84-14.53-16.9-17.46
					c0.2,3.34-10.02,10.86-16.71,15.12c-30.79,19.6-47.48,25.71-129.68,62.36C24.56,745.51,1.79,752.65,0.58,744.9z"/>
			</defs>
			<clipPath id="SVGID_00000150798359868779012300000011554749268108780945_">
				<use xlink:href="#SVGID_1_"  overflow="visible"/>
			</clipPath>
			
				<linearGradient id="SVGID_00000013881894287746512300000001495490266203384454_" gradientUnits="userSpaceOnUse" x1="1315.2009" y1="302.3279" x2="1527.3604" y2="173.8661" gradientTransform="matrix(-0.9986 -0.052 0.052 -0.9986 1536.2833 1044.6786)">
				<stop  offset="0" style="stop-color:#E3A600"/>
				<stop  offset="0.4367" style="stop-color:#F6C000"/>
				<stop  offset="0.7206" style="stop-color:#FFCB00"/>
				<stop  offset="0.8242" style="stop-color:#FFC500"/>
				<stop  offset="0.9652" style="stop-color:#FFB300"/>
				<stop  offset="1" style="stop-color:#FFAE00"/>
			</linearGradient>
			
				<path clip-path="url(#SVGID_00000150798359868779012300000011554749268108780945_)" fill="url(#SVGID_00000013881894287746512300000001495490266203384454_)" d="
				M0.91,745.19c-3.91,5.06,11.47,37.87,24.94,47.11c16.96,11.64,43.99,15.51,84.6,2.7c41.87-13.2,79.14-36.71,105.85-70.1
				c23.89-29.86,19.41-52.93,15.13-58.84c-4.54-6.28-13.84-14.53-16.9-17.46c0.2,3.34-10.02,10.86-16.71,15.12
				c-30.79,19.6-47.48,25.71-129.68,62.36C24.56,745.51,2.13,752.94,0.91,745.19z"/>
			
				<linearGradient id="SVGID_00000007411791939044924620000017551830118782772608_" gradientUnits="userSpaceOnUse" x1="1105.8134" y1="-104.9517" x2="1319.7736" y2="-235.653" gradientTransform="matrix(-0.629 0.7774 0.7774 0.629 1017.9193 -118.3994)">
				<stop  offset="0" style="stop-color:#661940"/>
				<stop  offset="0.1001" style="stop-color:#8F2441"/>
				<stop  offset="0.2157" style="stop-color:#B73041"/>
				<stop  offset="0.3296" style="stop-color:#D63941"/>
				<stop  offset="0.4396" style="stop-color:#ED3F42"/>
				<stop  offset="0.5441" style="stop-color:#FA4342"/>
				<stop  offset="0.637" style="stop-color:#FF4442"/>
				<stop  offset="0.7313" style="stop-color:#FC4241"/>
				<stop  offset="0.8021" style="stop-color:#F23B3D"/>
				<stop  offset="0.8652" style="stop-color:#E22F38"/>
				<stop  offset="0.9239" style="stop-color:#CB1F2F"/>
				<stop  offset="0.979" style="stop-color:#AE0A25"/>
				<stop  offset="1" style="stop-color:#A10020"/>
			</linearGradient>
			
				<path display="none" clip-path="url(#SVGID_00000150798359868779012300000011554749268108780945_)" fill="url(#SVGID_00000007411791939044924620000017551830118782772608_)" d="
				M254.52,722.26c-5.8-18.42-30.78-31.25-58.59-28.46c-26.88,2.7-30.23-0.58-40.14-7.04c-8.06,12.35-7.13,11.95-35.9,28.01
				c-25.05,13.98-27.65,32.15-24.16,48.54c-12.48-22.57-22.6-23.07-44.37-14.44c-5.43,2.15-8.98,4.43-11.89,4.68
				c-4.86,0.43-7.04-2.41-6.57-3.64c-1.9,6-1.62,10.97-5.52,19.08c-2.63,5.45-8.65,15.95-3.19,30.27
				c5.46,14.32-16.14-10.28-16.14-10.28s-45.96-66.37,79.19-111.02C212.39,633.3,283.24,673.41,254.52,722.26z"/>
			
				<radialGradient id="SVGID_00000110464767586030366260000013692969031727979440_" cx="1441.7485" cy="246.0838" r="218.6792" gradientTransform="matrix(-0.9167 0.3996 -0.1271 -0.2915 1462.1675 219.6094)" gradientUnits="userSpaceOnUse">
				<stop  offset="0.6023" style="stop-color:#FF0049;stop-opacity:0"/>
				<stop  offset="0.6549" style="stop-color:#FF0A45;stop-opacity:0.1662"/>
				<stop  offset="0.7454" style="stop-color:#FF263B;stop-opacity:0.4523"/>
				<stop  offset="0.8623" style="stop-color:#FF532A;stop-opacity:0.8215"/>
				<stop  offset="0.9188" style="stop-color:#FF6B21"/>
			</radialGradient>
			
				<path display="none" clip-path="url(#SVGID_00000150798359868779012300000011554749268108780945_)" fill="url(#SVGID_00000110464767586030366260000013692969031727979440_)" d="
				M0.91,745.19c-3.91,5.06,11.47,37.87,24.94,47.11c16.96,11.64,43.99,15.51,84.6,2.7c41.87-13.2,79.14-36.71,105.85-70.1
				c23.89-29.86,19.41-52.93,15.13-58.84c-4.54-6.28-13.84-14.53-16.9-17.46c0.2,3.34-10.02,10.86-16.71,15.12
				c-30.79,19.6-47.48,25.71-129.68,62.36C24.56,745.51,2.13,752.94,0.91,745.19z"/>
			
				<linearGradient id="SVGID_00000129885159100155621330000011702117943852027274_" gradientUnits="userSpaceOnUse" x1="1404.3923" y1="197.2852" x2="1441.723" y2="273.3303" gradientTransform="matrix(-0.9986 -0.052 0.052 -0.9986 1536.2833 1044.6786)">
				<stop  offset="0.6023" style="stop-color:#E8B200;stop-opacity:0"/>
				<stop  offset="0.69" style="stop-color:#E7AC00;stop-opacity:0.1595"/>
				<stop  offset="0.8095" style="stop-color:#E29A00;stop-opacity:0.3765"/>
				<stop  offset="0.9466" style="stop-color:#DB7E00;stop-opacity:0.6257"/>
				<stop  offset="0.9875" style="stop-color:#D97400;stop-opacity:0.7"/>
			</linearGradient>
			
				<linearGradient id="SVGID_00000127723199959903336320000018403883713976947586_" gradientUnits="userSpaceOnUse" x1="1318.1851" y1="246.093" x2="1549.7159" y2="246.093" gradientTransform="matrix(-0.9986 -0.052 0.052 -0.9986 1536.2833 1044.6786)">
				<stop  offset="0" style="stop-color:#34D9D4"/>
				<stop  offset="0.0563" style="stop-color:#3EDCD8"/>
				<stop  offset="0.3594" style="stop-color:#6EECED"/>
				<stop  offset="0.5905" style="stop-color:#8DF6FA"/>
				<stop  offset="0.7206" style="stop-color:#98FAFF"/>
				<stop  offset="0.7564" style="stop-color:#92F8FE"/>
				<stop  offset="0.8053" style="stop-color:#80F4FB"/>
				<stop  offset="0.8616" style="stop-color:#64EDF7"/>
				<stop  offset="0.9236" style="stop-color:#3CE4F1"/>
				<stop  offset="0.9894" style="stop-color:#09D7E9"/>
				<stop  offset="1" style="stop-color:#00D5E8"/>
			</linearGradient>
			
				<path display="none" clip-path="url(#SVGID_00000150798359868779012300000011554749268108780945_)" fill="url(#SVGID_00000129885159100155621330000011702117943852027274_)" stroke="url(#SVGID_00000127723199959903336320000018403883713976947586_)" stroke-width="0.7248" stroke-miterlimit="10" d="
				M0.91,745.19c-3.91,5.06,11.47,37.87,24.94,47.11c16.96,11.64,43.99,15.51,84.6,2.7c41.87-13.2,79.14-36.71,105.85-70.1
				c23.89-29.86,19.41-52.93,15.13-58.84c-4.54-6.28-13.84-14.53-16.9-17.46c0.2,3.34-10.02,10.86-16.71,15.12
				c-30.79,19.6-47.48,25.71-129.68,62.36C24.56,745.51,2.13,752.94,0.91,745.19z"/>
			
				<linearGradient id="SVGID_00000036229439699729155450000001454200439464595887_" gradientUnits="userSpaceOnUse" x1="1117.7927" y1="-80.5348" x2="1338.1606" y2="-198.9702" gradientTransform="matrix(-0.629 0.7774 0.7774 0.629 1017.9193 -118.3994)">
				<stop  offset="0" style="stop-color:#C43800"/>
				<stop  offset="0.0736" style="stop-color:#CF5000"/>
				<stop  offset="0.2119" style="stop-color:#E07800"/>
				<stop  offset="0.3484" style="stop-color:#ED9700"/>
				<stop  offset="0.4807" style="stop-color:#F7AD00"/>
				<stop  offset="0.6069" style="stop-color:#FDBA00"/>
				<stop  offset="0.7206" style="stop-color:#FFBF00"/>
				<stop  offset="0.8234" style="stop-color:#FFBD00"/>
				<stop  offset="0.8767" style="stop-color:#FFB500"/>
				<stop  offset="0.9185" style="stop-color:#FFA800"/>
				<stop  offset="0.9544" style="stop-color:#FF9500"/>
				<stop  offset="0.9862" style="stop-color:#FF7C00"/>
				<stop  offset="1" style="stop-color:#FF6F00"/>
			</linearGradient>
			
				<path display="none" clip-path="url(#SVGID_00000150798359868779012300000011554749268108780945_)" fill="url(#SVGID_00000036229439699729155450000001454200439464595887_)" d="
				M255.53,730.37c0.3-6.02-10.69-29.62-53.44-25.54c-23.46,2.24-35.68,3.54-49.42-1.78c2.8-6.32,3.37-10.89,3.08-15.21
				c-6.61,18.07-5.52,21.77-36.86,39.19c-14.92,8.29-23.42,22.49-22.46,38.03c-9.87-9.44-16.2-18.71-41.73-7
				c-10.86,4.98-15.7,2.8-21.8-5.01c0.12,2.91,1.53,5.48,4.1,8.11c-1.98,7.96-4.71,12.66-8.01,20.34
				c-2.93,6.83-6.9,14.09-2.39,24.14c4.51,10.05-1.17,7.85-1.17,7.85s2.09,14,18.08,18.77S254.26,756.28,255.53,730.37z"/>
			
				<radialGradient id="SVGID_00000103250982609818104230000008818095505822920613_" cx="1380.5782" cy="299.8037" r="229.6082" gradientTransform="matrix(-0.8882 0.4594 -0.0492 -0.0951 1414.1826 67.8621)" gradientUnits="userSpaceOnUse">
				<stop  offset="0" style="stop-color:#C43800;stop-opacity:0.5"/>
				<stop  offset="0.4117" style="stop-color:#C43800;stop-opacity:0"/>
			</radialGradient>
			
				<path display="none" clip-path="url(#SVGID_00000150798359868779012300000011554749268108780945_)" fill="url(#SVGID_00000103250982609818104230000008818095505822920613_)" d="
				M215.22,645.81c4.67,3.8,14.89,27.75-16.74,56.82c-17.35,15.95-26.49,24.17-31.72,37.94c6.57,2.15,10.35,4.77,13.37,7.88
				c-17.85-7.17-19.88-10.45-53.78,1.21c-16.14,5.55-32.38,2.38-43.3-8.72c0.43,13.65,3.08,24.56-22.7,35.71
				c-10.97,4.75-12.58,9.8-10.85,19.56c-2.08-2.03-3.05-4.8-3.29-8.47c-7.25-3.85-12.56-4.96-20.48-7.64
				c-7.04-2.38-15.09-4.29-19.56-14.36s-6.62-4.38-6.62-4.38s-9.01-10.92-1.87-25.99S195.11,629.44,215.22,645.81z"/>
			
				<radialGradient id="SVGID_00000167360151508925227100000008639387285733178526_" cx="1525.7358" cy="225.3425" r="129.3418" gradientTransform="matrix(-0.9362 0.3515 -0.0589 -0.1569 1465.9509 239.3813)" gradientUnits="userSpaceOnUse">
				<stop  offset="0" style="stop-color:#C43800;stop-opacity:0.5"/>
				<stop  offset="0.4117" style="stop-color:#C43800;stop-opacity:0"/>
			</radialGradient>
			
				<path display="none" clip-path="url(#SVGID_00000150798359868779012300000011554749268108780945_)" fill="url(#SVGID_00000167360151508925227100000008639387285733178526_)" d="
				M215.22,645.81c4.67,3.8,14.89,27.75-16.74,56.82c-17.35,15.95-26.49,24.17-31.72,37.94c6.57,2.15,10.35,4.77,13.37,7.88
				c-17.85-7.17-19.88-10.45-53.78,1.21c-16.14,5.55-32.38,2.38-43.3-8.72c0.43,13.65,3.08,24.56-22.7,35.71
				c-10.97,4.75-12.58,9.8-10.85,19.56c-2.08-2.03-3.05-4.8-3.29-8.47c-7.25-3.85-12.56-4.96-20.48-7.64
				c-7.04-2.38-15.09-4.29-19.56-14.36s-6.62-4.38-6.62-4.38s-9.01-10.92-1.87-25.99S195.11,629.44,215.22,645.81z"/>
			
				<linearGradient id="SVGID_00000168838743961756021260000000564925722673088690_" gradientUnits="userSpaceOnUse" x1="1328.2534" y1="293.1805" x2="1520.252" y2="175.8949" gradientTransform="matrix(-0.9986 -0.052 0.052 -0.9986 1536.2833 1044.6786)">
				<stop  offset="0" style="stop-color:#87A1A1"/>
				<stop  offset="0.0609" style="stop-color:#9BB1B1"/>
				<stop  offset="0.1863" style="stop-color:#BFCDCD"/>
				<stop  offset="0.3128" style="stop-color:#DBE3E3"/>
				<stop  offset="0.4393" style="stop-color:#EFF2F2"/>
				<stop  offset="0.5659" style="stop-color:#FBFCFC"/>
				<stop  offset="0.6929" style="stop-color:#FFFFFF"/>
				<stop  offset="0.8063" style="stop-color:#FCFCFC"/>
				<stop  offset="0.8756" style="stop-color:#F4F4F4"/>
				<stop  offset="0.933" style="stop-color:#E6E6E6"/>
				<stop  offset="0.9837" style="stop-color:#D1D1D1"/>
				<stop  offset="1" style="stop-color:#C9C9C9"/>
			</linearGradient>
			
				<path display="none" clip-path="url(#SVGID_00000150798359868779012300000011554749268108780945_)" fill="url(#SVGID_00000168838743961756021260000000564925722673088690_)" d="
				M9.33,771.79c7,13.64,18.83,16.17,24.64,17.87c8.64,2.51,12.15,6.05,17.88,8.65c-1.23-0.47-1.88-3.99,1.69-7.32
				c2.14-2,6.2-3.11,11.43-5.71C85.94,774.86,92.34,767,83.9,742.63c9.86,13.56,25.11,23.77,52.25,14.49
				c31.17-10.66,30.25-10.24,44.83-7.97c1.82-11.69,1.62-16.37,21.6-34.55c20.67-18.81,27.83-45.96,18.01-62.59l-5.36-6.19
				c4.67,3.8,14.89,27.75-16.74,56.82c-17.35,15.95-26.49,24.17-31.72,37.94c6.57,2.15,10.35,4.77,13.37,7.88
				c-17.85-7.17-19.88-10.45-53.78,1.21c-16.14,5.55-32.38,2.38-43.3-8.72c0.43,13.65,3.08,24.56-22.7,35.71
				c-10.97,4.75-12.58,9.8-10.85,19.56c-2.08-2.03-3.05-4.8-3.29-8.47c-7.25-3.85-12.56-4.96-20.48-7.64
				c-7.04-2.38-15.09-4.29-19.56-14.36L9.33,771.79z"/>
		</g>
	</g>
	<g>
		<g opacity="0.04">
			
				<linearGradient id="SVGID_00000129884417099826631380000002626498939155721393_" gradientUnits="userSpaceOnUse" x1="1114.8074" y1="233.0723" x2="1280.0851" y2="146.1357" gradientTransform="matrix(-1 0 0 -1 1657.9626 675.4486)">
				<stop  offset="0.013" style="stop-color:#00822B"/>
				<stop  offset="0.0147" style="stop-color:#00822B"/>
				<stop  offset="0.2237" style="stop-color:#00A649"/>
				<stop  offset="0.4202" style="stop-color:#00BF5F"/>
				<stop  offset="0.5976" style="stop-color:#00CF6C"/>
				<stop  offset="0.7394" style="stop-color:#00D471"/>
				<stop  offset="0.7977" style="stop-color:#00D26E"/>
				<stop  offset="0.8458" style="stop-color:#01CC63"/>
				<stop  offset="0.8903" style="stop-color:#02C352"/>
				<stop  offset="0.9327" style="stop-color:#03B53A"/>
				<stop  offset="0.9731" style="stop-color:#05A41B"/>
				<stop  offset="1" style="stop-color:#079602"/>
			</linearGradient>
			<path fill="url(#SVGID_00000129884417099826631380000002626498939155721393_)" d="M359.52,491.34c-0.93,1.16-2.38,4.6-0.16,8.29
				c6.88,11.41,18.61,29.08,29.86,36.74c12.83,8.73,37.75,11.19,67.92-1.91c30.16-13.1,52.36-29.04,69.83-52.66
				c17.46-23.61,15.04-40.52,12.82-45.65c-2.73-6.33-10.39-15.98-12.35-19.07c-0.37-0.59-5.88,3.57-14.54,10.01
				c-28.61,21.26-71.36,39.11-117.57,56.91C353.11,500.25,360.15,490.71,359.52,491.34z"/>
			
				<linearGradient id="SVGID_00000138558014293169469350000000095950795686318265_" gradientUnits="userSpaceOnUse" x1="1282.6512" y1="154.4188" x2="1287.7611" y2="197.5678" gradientTransform="matrix(-1 0 0 -1 1657.9626 675.4486)">
				<stop  offset="0" style="stop-color:#00515C"/>
				<stop  offset="0.0111" style="stop-color:#005360"/>
				<stop  offset="0.1149" style="stop-color:#00637F"/>
				<stop  offset="0.2289" style="stop-color:#007098"/>
				<stop  offset="0.3551" style="stop-color:#007AAC"/>
				<stop  offset="0.4998" style="stop-color:#0081BA"/>
				<stop  offset="0.6793" style="stop-color:#0085C2"/>
				<stop  offset="1" style="stop-color:#0086C4"/>
			</linearGradient>
			<path fill="url(#SVGID_00000138558014293169469350000000095950795686318265_)" d="M386.37,496.73
				c-0.92,5.49-13.24,25.26-2.19,35.61c-5.46-3.84-24.73-29.57-25.89-35.82c-1.15-6.25,9.87-16.25,14.99-20.5
				C375.66,480.27,387.37,490.72,386.37,496.73z"/>
		</g>
		<g opacity="0.1">
			<g>
				<g>
					<path d="M513.33,384.55c5.5-4.97,10.83-10.26,15.19-16.28c1.78-2.46,5.3-6.84,4.28-10.18c-0.43-1.39-2.3-4.15-3.43-5.02
						c-2.65-2.03-6.95,0.44-9.46,1.72c-12.65,6.46-24.32,17.1-33.09,28.18c-2.17,2.74-6.74,7.82-6.17,11.71
						c0.25,1.73,2.08,4.15,3.27,5.33c2.51,2.47,6.49,0.34,9.21-1C500.56,395.35,507.16,389.98,513.33,384.55
						c0.18-0.16-3.24-4.35-3.12-4.45c-5.72,5.04-11.77,9.9-18.48,13.57c-2.4,1.31-7.88,4.7-10.57,2.37
						c0.89,1.26,1.78,2.53,2.68,3.79c-1.62-2.36,3.23-8.52,4.38-10.12c4.53-6.28,10.13-11.84,15.93-16.93
						c5.47-4.81,11.33-9.42,17.75-12.92c2.4-1.31,7.88-4.7,10.57-2.37c-0.89-1.26-1.78-2.53-2.68-3.79
						c1.63,2.38-3.2,8.49-4.38,10.12c-4.36,6.02-9.69,11.31-15.19,16.28C510.02,380.27,513.47,384.42,513.33,384.55z"/>
				</g>
			</g>
			<g>
				<ellipse transform="matrix(0.7461 -0.6659 0.6659 0.7461 -122.1763 433.1299)" cx="506.81" cy="376.76" rx="15.64" ry="1.79"/>
			</g>
			<polygon points="483.04,380.23 481.6,376.32 485.7,373.77 490.21,374.28 493.96,373.11 495,368.85 490.64,368.83 486.82,364.07 
				487.84,359.18 493.1,357.97 498.1,358.32 501.92,353.2 505.41,348.71 506.21,343.79 508.29,340.32 509.24,336.05 511.79,329.26 
				510.9,325.6 514.28,324.6 516.83,328.22 516.59,333.68 515.17,340.32 517.75,349.11 518.02,352.9 517.78,357.39 512.63,365.06 
				510.83,371.89 507.11,374.96 498.46,375.85 487.99,378.05 			"/>
		</g>
	</g>
	<g>
		<g opacity="0.1">
			<g>
				<g>
					<path d="M200.84,334.4c5.48-5.58,10.62-11.69,14.21-18.67c1.94-3.78,4.46-9.18,2.44-13.41c-1.07-2.25-3.04-5.27-4.91-6.94
						c-3.29-2.96-8.65-0.97-12.13,0.55c-13.81,6.03-26.33,18.7-33.87,31.57c-2.29,3.91-5.58,9.79-4.27,14.55
						c0.72,2.59,3.11,5.7,4.89,7.63c3.33,3.62,8.74,1.74,12.64,0.04C187.81,346.24,194.7,340.43,200.84,334.4
						c0.32-0.31-4.37-5.66-4.13-5.9c-6.01,5.9-12.71,11.54-20.43,15.07c-3.74,1.71-9.86,4.1-13.12,0.31
						c1.35,1.93,2.71,3.86,4.06,5.79c-2.73-4.29,0.39-10.55,2.46-14.44c4-7.51,9.72-14.17,15.87-19.99
						c5.59-5.29,11.91-10.31,19.02-13.4c3.66-1.59,9.42-3.7,12.56-0.06c-1.35-1.93-2.71-3.86-4.06-5.79
						c2.61,4.11-0.22,10.09-2.16,13.85c-3.59,6.99-8.73,13.1-14.21,18.67C196.37,328.86,201.11,334.13,200.84,334.4z"/>
				</g>
			</g>
			<ellipse transform="matrix(0.7072 -0.7071 0.7071 0.7072 -172.5731 228.9877)" cx="190.15" cy="322.83" rx="21.14" ry="2.63"/>
			<polygon points="187.24,325.05 179.24,326.26 175.57,323.82 167.28,322.95 165.55,321.4 157,324.78 152.81,325.55 153.2,321.8 
				156.8,321.73 167.48,314.92 166.59,310.24 168.82,306.7 173.21,307.16 172.6,300.77 175.12,298.81 174.03,296.13 175,291.78 
				179.35,289.5 178.96,281.77 184.74,274.5 186.64,267.84 186.96,263.72 190,261.91 192.71,266.89 191.4,270.06 193.93,273.87 
				190.76,280.53 192.98,284.65 191.08,291.63 192.95,296.23 192.36,301.82 199.17,305.95 193.53,312.37 193.26,318.16 			"/>
		</g>
		
			<linearGradient id="SVGID_00000011741778276535726780000004253254787835916730_" gradientUnits="userSpaceOnUse" x1="748.5602" y1="178.4055" x2="898.8945" y2="92.7001" gradientTransform="matrix(-0.9996 -0.0279 0.0279 -0.9996 956.5197 570.89)">
			<stop  offset="0" style="stop-color:#8B00C2"/>
			<stop  offset="0.1888" style="stop-color:#AD1BD3"/>
			<stop  offset="0.3915" style="stop-color:#CA33E1"/>
			<stop  offset="0.5668" style="stop-color:#DC42EA"/>
			<stop  offset="0.6936" style="stop-color:#E247ED"/>
			<stop  offset="0.7856" style="stop-color:#E044EE"/>
			<stop  offset="0.8515" style="stop-color:#D83BF0"/>
			<stop  offset="0.9092" style="stop-color:#CC2BF4"/>
			<stop  offset="0.9619" style="stop-color:#BB15FA"/>
			<stop  offset="1" style="stop-color:#AA00FF"/>
		</linearGradient>
		<path opacity="0.12" fill="url(#SVGID_00000011741778276535726780000004253254787835916730_)" d="M203.59,354.1
			c2.54,3.51,9.76,12.4,8.37,20.73c-1.39,8.33-7.82,31.87-33.81,53.04c-20.44,16.65-61.68,39.49-93.87,32.89
			c-17.03-3.5-22.64-8.94-26.45-14.31c-6.2-8.72-14.19-19.16-14.02-25.22c6.25,3.64,18.46-3.83,37.1-10.8
			c20.64-7.71,44.05-16.55,65.41-26.43c20.01-9.26,35.97-18.63,50.57-27.49C200.2,354.5,201.76,351.57,203.59,354.1z"/>
	</g>
</g>
</svg>
