<?xml version="1.0" encoding="utf-8"?>
<!-- Generator: Adobe Illustrator 26.1.0, SVG Export Plug-In . SVG Version: 6.00 Build 0)  -->
<svg version="1.1" id="Layer_1" xmlns="http://www.w3.org/2000/svg" xmlns:xlink="http://www.w3.org/1999/xlink" x="0px" y="0px"
	 viewBox="0 0 332.85 288.1" enable-background="new 0 0 332.85 288.1" xml:space="preserve">
<g>
	<g>
		<g>
			<g>
				<path d="M110.4,267.91c-6.44,5.11-13.48,9.88-21.29,12.64c-3.92,1.38-9.99,3.2-13.32-0.32c0.88,1.24,1.76,2.48,2.64,3.71
					c-0.12-0.18-0.25-0.36-0.37-0.53c0.5,0.73,0.99,1.46,1.49,2.18c-2.12-4.26,0.9-9.53,3.17-13.11
					c4.3-6.79,10.24-12.62,16.44-17.65c6.37-5.16,13.52-9.9,21.29-12.64c3.95-1.4,9.98-3.21,13.32,0.32
					c-0.88-1.24-1.76-2.48-2.64-3.71c0.12,0.18,0.25,0.36,0.37,0.53c-0.5-0.73-0.99-1.46-1.49-2.18c2.11,4.25-0.92,9.56-3.17,13.11
					C122.53,257.08,116.59,262.8,110.4,267.91c-0.19,0.15,4.23,5.81,4.13,5.9c5.86-4.84,11.43-10.2,15.71-16.53
					c2.35-3.47,5.81-8.89,4.3-13.32c-0.82-2.41-3.13-5.47-4.86-7.29c-3.1-3.24-8.35-1.98-12.12-0.78
					c-14.19,4.48-27.73,15.55-36.6,27.31c-2.83,3.75-6.79,9.21-6.22,14.23c0.32,2.84,2.94,5.98,4.71,8.08
					c3.04,3.61,7.82,2.76,11.94,1.53c8.53-2.53,16.23-7.76,23.12-13.24C114.69,273.68,110.33,267.96,110.4,267.91z"/>
			</g>
		</g>
		<ellipse transform="matrix(0.7771 -0.6294 0.6294 0.7771 -141.1436 124.2101)" cx="104.79" cy="261.37" rx="21.14" ry="2.63"/>
		<polygon points="107.31,258.71 109.35,250.89 107.31,246.97 107.31,238.64 105.94,236.76 110.2,228.6 111.4,224.52 107.63,224.52 
			107.19,228.09 99.3,238 94.74,236.62 90.98,238.47 90.98,242.89 84.68,241.62 82.47,243.91 79.92,242.55 75.5,243.06 
			72.78,247.14 65.12,245.95 59.91,254.63 57.13,257.69 51.35,256.5 49.82,258.71 57.47,263.98 59.91,261.37 62.06,261.37 
			66.48,257.52 69.55,258.54 73.12,255.82 78.05,261.37 83.66,261.37 87.07,268.57 94.04,263.64 99.82,263.98 		"/>
	</g>
	<g>
		<path d="M331.9,85.43c-1.1,10.23-11.35,11.26-12.36,10.75c-4.24-2.12-6.5-7.12-8.71-9.1C324.06,81.1,326.39,83.3,331.9,85.43z"/>
		<path d="M18.08,220.96c-5.26-6.85-20.14-24.17-17.84-40.86s13.81-63.96,64.45-107.61C104.51,38.17,185.46-9.67,249.98,1.71
			c34.14,6.02,45.62,16.57,53.52,27.05c12.84,17.05,29.35,37.4,29.35,49.49c-12.66-6.91-36.59,8.67-73.35,23.59
			c-40.71,16.52-86.89,35.45-128.91,56.34c-39.38,19.57-70.67,39.14-99.27,57.6C24.81,219.98,21.87,225.89,18.08,220.96z"/>
		<path fill="#FFFFFF" d="M319.51,50.25C307.9,36.95,289.79,37.17,205.14,69.5C99.37,109.88,29.24,173.91,20.39,195.31
			c-3.89,9.42,0.73,14.07,7.27,23.21c1.09-0.91,2.29-1.87,3.66-2.75c2.79-1.8,5.61-3.61,8.45-5.43
			c-6.67-9.32-10.05-13.51-5.31-22.58c5.29-10.1,60.32-68.32,175.04-113.46c96.19-37.85,108.15-27.02,114.63-17.17
			C322.7,54.88,321.14,52.58,319.51,50.25z"/>
		<path fill="#7F7F7F" d="M154.17,86.67c-52.18,17.81-83.2,29.48-94.25,17.93c-3.7-3.87-8.86-10.41-12.67-15.38
			c-35.97,38.44-45,76.32-47.01,90.89c-2.3,16.69,12.58,34.01,17.84,40.86c2.31,3.01,4.31,1.98,6.99-0.23
			c-9.41-12.78-16.09-21.15-3.7-39.21C32.41,165.42,69.08,127.19,154.17,86.67z"/>
		<path fill="#7F7F7F" d="M303.5,28.76c-4.84-6.42-11.03-12.86-22.94-18.27c8.71,11.9,19.57,14.89-23.98,35.45
			c27.87-8.17,48.74-14.74,59.83-0.02C312.17,40.11,307.65,34.26,303.5,28.76z"/>
		<path fill="#FFFFFF" d="M69.56,89.98c-3.77-4.57-7.13-9.39-9.66-13.25c-2.6,2.37-5.09,4.75-7.47,7.13
			c3,4.52,6.99,10.32,9.43,13.04c4.33,4.81,11.06,5.77,19.23,5.29s19.23-1.4,38.94-7.43C92.15,97.86,77.73,99.9,69.56,89.98z"/>
		<path fill="#FFFFFF" d="M265.36,5.11c9.97,11.02,20.78,18.57,4.69,28.81c14.9-9.62,18.01-10.55,5.64-25.47l0,0
			C272.59,7.27,269.16,6.16,265.36,5.11L265.36,5.11z"/>
	</g>
</g>
</svg>
