<?xml version="1.0" encoding="utf-8"?>
<!-- Generator: Adobe Illustrator 26.1.0, SVG Export Plug-In . SVG Version: 6.00 Build 0)  -->
<svg version="1.1" id="Layer_1" xmlns="http://www.w3.org/2000/svg" xmlns:xlink="http://www.w3.org/1999/xlink" x="0px" y="0px"
	 viewBox="0 0 820.96 802.98" enable-background="new 0 0 820.96 802.98" xml:space="preserve">
<g>
	<g>
		<g>
			<g>
				<g>
					<path d="M251.82,267.91c-6.44,5.11-13.48,9.88-21.29,12.64c-3.92,1.38-9.99,3.2-13.32-0.32c0.88,1.24,1.76,2.48,2.64,3.71
						c-0.12-0.18-0.25-0.36-0.37-0.53c0.5,0.73,0.99,1.46,1.49,2.18c-2.12-4.26,0.9-9.53,3.17-13.11
						c4.3-6.79,10.24-12.62,16.44-17.65c6.37-5.16,13.52-9.9,21.29-12.64c3.95-1.4,9.98-3.21,13.32,0.32
						c-0.88-1.24-1.76-2.48-2.64-3.71c0.12,0.18,0.25,0.36,0.37,0.53c-0.5-0.73-0.99-1.46-1.49-2.18c2.11,4.25-0.92,9.56-3.17,13.11
						C263.94,257.08,258,262.8,251.82,267.91c-0.19,0.15,4.23,5.81,4.13,5.9c5.86-4.84,11.43-10.2,15.71-16.53
						c2.35-3.47,5.81-8.89,4.3-13.32c-0.82-2.41-3.13-5.47-4.86-7.29c-3.1-3.24-8.35-1.98-12.12-0.78
						c-14.19,4.48-27.73,15.55-36.6,27.31c-2.83,3.75-6.79,9.21-6.22,14.23c0.32,2.84,2.94,5.98,4.71,8.08
						c3.04,3.61,7.82,2.76,11.94,1.53c8.53-2.53,16.23-7.76,23.12-13.24C256.1,273.68,251.75,267.96,251.82,267.91z"/>
				</g>
			</g>
			<ellipse transform="matrix(0.7771 -0.6294 0.6294 0.7771 -109.6237 213.2105)" cx="246.2" cy="261.37" rx="21.14" ry="2.63"/>
			<polygon points="248.72,258.71 250.76,250.89 248.72,246.97 248.72,238.64 247.35,236.76 251.61,228.6 252.81,224.52 
				249.04,224.52 248.6,228.09 240.71,238 236.15,236.62 232.39,238.47 232.39,242.89 226.1,241.62 223.88,243.91 221.33,242.55 
				216.91,243.06 214.19,247.14 206.54,245.95 201.33,254.63 198.54,257.69 192.76,256.5 191.23,258.71 198.88,263.98 
				201.33,261.37 203.47,261.37 207.9,257.52 210.96,258.54 214.53,255.82 219.46,261.37 225.08,261.37 228.48,268.57 
				235.45,263.64 241.23,263.98 			"/>
		</g>
		<g>
			<linearGradient id="SVGID_1_" gradientUnits="userSpaceOnUse" x1="460.3381" y1="92.308" x2="460.2352" y2="66.99">
				<stop  offset="0" style="stop-color:#8B00C2"/>
				<stop  offset="0.3841" style="stop-color:#7400A7"/>
				<stop  offset="0.7415" style="stop-color:#640095"/>
				<stop  offset="1" style="stop-color:#5F008F"/>
			</linearGradient>
			<path fill="url(#SVGID_1_)" d="M474.26,78.25c-1.43,16.21-12.29,18.44-13.31,17.93c-4.24-2.12-6.27-9.23-14.65-16.41
				C459.54,73.79,472.15,72.71,474.26,78.25z"/>
			<g>
				<defs>
					<path id="SVGID_00000006695727617191777380000016877603181243091606_" d="M159.49,220.96c-5.26-6.85-20.14-24.17-17.84-40.86
						c2.3-16.69,13.81-63.96,64.45-107.61C245.92,38.17,326.87-9.67,391.4,1.71c34.14,6.02,45.62,16.57,53.52,27.05
						c12.84,17.05,29.35,37.4,29.35,49.49c-12.66-6.91-36.59,8.67-73.35,23.59c-40.71,16.52-86.89,35.45-128.91,56.34
						c-39.38,19.57-70.67,39.14-99.27,57.6C166.22,219.98,163.28,225.89,159.49,220.96z"/>
				</defs>
				<clipPath id="SVGID_00000052075820823035128980000018295842619583286160_">
					<use xlink:href="#SVGID_00000006695727617191777380000016877603181243091606_"  overflow="visible"/>
				</clipPath>
				
					<linearGradient id="SVGID_00000092432844227640714190000012623296997308311205_" gradientUnits="userSpaceOnUse" x1="139.3054" y1="186.4664" x2="439.1043" y2="15.5516">
					<stop  offset="0" style="stop-color:#8B00C2"/>
					<stop  offset="0.1888" style="stop-color:#AD1BD3"/>
					<stop  offset="0.3915" style="stop-color:#CA33E1"/>
					<stop  offset="0.5668" style="stop-color:#DC42EA"/>
					<stop  offset="0.6936" style="stop-color:#E247ED"/>
					<stop  offset="0.7856" style="stop-color:#E044EE"/>
					<stop  offset="0.8515" style="stop-color:#D83BF0"/>
					<stop  offset="0.9092" style="stop-color:#CC2BF4"/>
					<stop  offset="0.9619" style="stop-color:#BB15FA"/>
					<stop  offset="1" style="stop-color:#AA00FF"/>
				</linearGradient>
				
					<path clip-path="url(#SVGID_00000052075820823035128980000018295842619583286160_)" fill="url(#SVGID_00000092432844227640714190000012623296997308311205_)" d="
					M159.49,220.96c-5.26-6.85-20.14-24.17-17.84-40.86c2.3-16.69,13.81-63.96,64.45-107.61C245.92,38.17,326.87-9.67,391.4,1.71
					c34.14,6.02,45.62,16.57,53.52,27.05c12.84,17.05,29.35,37.4,29.35,49.49c-12.66-6.91-36.59,8.67-73.35,23.59
					c-40.71,16.52-86.89,35.45-128.91,56.34c-39.38,19.57-70.67,39.14-99.27,57.6C166.22,219.98,163.28,225.89,159.49,220.96z"/>
				
					<linearGradient id="SVGID_00000037683858016189230810000002790837885428641205_" gradientUnits="userSpaceOnUse" x1="264.4469" y1="34.2475" x2="315.4427" y2="149.587">
					<stop  offset="0" style="stop-color:#FF80D0"/>
					<stop  offset="0.0185" style="stop-color:#FD7CD2;stop-opacity:0.9577"/>
					<stop  offset="0.1868" style="stop-color:#EE5FE1;stop-opacity:0.5731"/>
					<stop  offset="0.3323" style="stop-color:#E54DEA;stop-opacity:0.2405"/>
					<stop  offset="0.4375" style="stop-color:#E247ED;stop-opacity:0"/>
					<stop  offset="0.6784" style="stop-color:#E047EB;stop-opacity:0.4283"/>
					<stop  offset="0.7663" style="stop-color:#D947E5;stop-opacity:0.5845"/>
					<stop  offset="0.8292" style="stop-color:#CD48DA;stop-opacity:0.6963"/>
					<stop  offset="0.8801" style="stop-color:#BC49CA;stop-opacity:0.7868"/>
					<stop  offset="0.9237" style="stop-color:#A64AB5;stop-opacity:0.8644"/>
					<stop  offset="0.9619" style="stop-color:#8C4C9C;stop-opacity:0.9322"/>
					<stop  offset="0.9961" style="stop-color:#6C4E7E;stop-opacity:0.9931"/>
					<stop  offset="1" style="stop-color:#684E7A"/>
				</linearGradient>
				
					<path clip-path="url(#SVGID_00000052075820823035128980000018295842619583286160_)" fill="url(#SVGID_00000037683858016189230810000002790837885428641205_)" d="
					M159.49,220.96c-5.26-6.85-20.14-24.17-17.84-40.86c2.3-16.69,13.81-63.96,64.45-107.61C245.92,38.17,326.87-9.67,391.4,1.71
					c34.14,6.02,45.62,16.57,53.52,27.05c12.84,17.05,29.35,37.4,29.35,49.49c-12.66-6.91-36.59,8.67-73.35,23.59
					c-40.71,16.52-86.89,35.45-128.91,56.34c-39.38,19.57-70.67,39.14-99.27,57.6C166.22,219.98,163.28,225.89,159.49,220.96z"/>
				
					<linearGradient id="SVGID_00000121247927293224854580000014362617110380885650_" gradientUnits="userSpaceOnUse" x1="159.5475" y1="203.8194" x2="454.1774" y2="35.8514">
					<stop  offset="0" style="stop-color:#C2C2C2"/>
					<stop  offset="0.0579" style="stop-color:#CACACA"/>
					<stop  offset="0.3132" style="stop-color:#E7E7E7"/>
					<stop  offset="0.534" style="stop-color:#F9F9F9"/>
					<stop  offset="0.6936" style="stop-color:#FFFFFF"/>
					<stop  offset="0.8019" style="stop-color:#FCFCFC"/>
					<stop  offset="0.8795" style="stop-color:#F3F3F3"/>
					<stop  offset="0.9471" style="stop-color:#E3E3E3"/>
					<stop  offset="1" style="stop-color:#D1D1D1"/>
				</linearGradient>
				
					<path clip-path="url(#SVGID_00000052075820823035128980000018295842619583286160_)" fill="url(#SVGID_00000121247927293224854580000014362617110380885650_)" d="
					M183.57,213.73c-8.18-11.82-12.98-15.87-7.69-25.96S236.2,119.45,350.92,74.3C466.05,29,460.5,53.44,469.34,62.45
					c-15.14-23.63-17.02-33.34-122.79,7.04S170.65,173.91,161.8,195.31c-4.46,10.79,2.25,15.33,10.22,27.52L183.57,213.73z"/>
				
					<linearGradient id="SVGID_00000011012366861262715500000009018021723200658860_" gradientUnits="userSpaceOnUse" x1="293.5598" y1="67.0989" x2="136.0002" y2="184.5117">
					<stop  offset="0" style="stop-color:#54525E"/>
					<stop  offset="0.4922" style="stop-color:#3F3654"/>
					<stop  offset="1" style="stop-color:#150724"/>
				</linearGradient>
				
					<path clip-path="url(#SVGID_00000052075820823035128980000018295842619583286160_)" fill="url(#SVGID_00000011012366861262715500000009018021723200658860_)" d="
					M170.1,225.75c-11.06-15.87-21.26-23.91-7.32-44.23c11.04-16.1,47.71-54.33,132.8-94.85c-52.18,17.81-83.2,29.48-94.25,17.93
					c-6.58-6.88-17.76-22.17-17.76-22.17c-36.54,39.48-76.92,107.27-24.52,146.7L170.1,225.75z"/>
				
					<linearGradient id="SVGID_00000121980537749644607390000014063305540453937045_" gradientUnits="userSpaceOnUse" x1="396.4512" y1="51.8892" x2="444.1575" y2="22.3237">
					<stop  offset="0" style="stop-color:#55525E"/>
					<stop  offset="0.4922" style="stop-color:#3D3654"/>
					<stop  offset="1" style="stop-color:#2A0F4D"/>
				</linearGradient>
				
					<path clip-path="url(#SVGID_00000052075820823035128980000018295842619583286160_)" fill="url(#SVGID_00000121980537749644607390000014063305540453937045_)" d="
					M397.99,45.94c27.89-8.17,48.76-14.74,59.84,0c10.91-8.17-1.19-24.52-10.32-33.17c-9.13-8.65-34.25-14.17-25.54-2.28
					C430.69,22.38,441.54,25.37,397.99,45.94z"/>
				<path clip-path="url(#SVGID_00000052075820823035128980000018295842619583286160_)" fill="#FFFFFF" d="M189.82,77.67
					c0,0,9.13,14.42,13.46,19.23c4.33,4.81,11.06,5.77,19.23,5.29c8.17-0.48,19.23-1.4,38.94-7.43
					c-27.89,3.11-42.31,5.14-50.48-4.77c-8.17-9.91-14.42-20.97-14.42-20.97L189.82,77.67z"/>
				<path clip-path="url(#SVGID_00000052075820823035128980000018295842619583286160_)" fill="#FFFFFF" d="M411.46,33.92
					c14.9-9.62,18.01-10.55,5.64-25.47s-20.3-14.35-10.33-3.34S427.55,23.68,411.46,33.92z"/>
			</g>
		</g>
	</g>
	<g>
		<g>
			<g>
				<g>
					<path d="M571.12,318.92c-6.39,5.11-13.12,10.01-20.51,13.59c-2.57,1.25-8.73,4.64-11.45,2c1.1,1.56,2.19,3.12,3.29,4.69
						c-2.14-3.37,3.38-9.49,5.2-11.72c4.91-6.02,10.72-11.33,16.74-16.21c6.18-5.01,12.77-9.74,19.91-13.3
						c2.63-1.31,9.22-5.03,12.05-2.29c-1.1-1.56-2.19-3.12-3.29-4.69c2.06,3.26-3.04,9.01-4.79,11.21
						C583.29,308.45,577.28,313.86,571.12,318.92c-0.15,0.12,3.42,4.71,3.34,4.78c6-4.92,11.83-10.18,16.74-16.21
						c2.02-2.48,6.26-7.14,5.57-10.76c-0.33-1.72-2.45-4.7-3.74-5.79c-2.74-2.32-7.57,0.16-10.31,1.4
						c-13.76,6.25-26.69,16.93-36.61,28.22c-2.53,2.88-7.49,7.86-7.42,12.11c0.03,2.08,2.06,4.69,3.43,6.11
						c2.67,2.75,7.05,0.65,10.08-0.67c8.08-3.55,15.4-8.93,22.26-14.41C574.59,323.59,571.06,318.97,571.12,318.92z"/>
				</g>
			</g>
			<g>
				<ellipse transform="matrix(0.7771 -0.6294 0.6294 0.7771 -71.7574 427.5601)" cx="567.76" cy="315.09" rx="16.78" ry="1.92"/>
			</g>
			<polygon points="575.54,290.51 571.64,288.32 568.24,292.21 567.99,297.08 566.11,300.85 561.42,301.22 562.15,296.6 
				557.77,291.73 552.42,291.97 550.22,297.33 549.74,302.68 543.65,305.84 538.3,308.77 532.94,308.77 534.89,312.42 
				527.83,314.12 521.75,319.96 516.39,318.26 514.69,322.64 519.8,324.59 526.13,324.59 532.7,320.94 536.59,321.91 538.78,325.07 
				545.36,323.37 554.36,319.23 561.91,318.5 565.8,315.09 568.24,306.09 572.37,295.38 			"/>
		</g>
		<g>
			
				<linearGradient id="SVGID_00000112602938808718279570000007747351719124429472_" gradientUnits="userSpaceOnUse" x1="795.2347" y1="147.0414" x2="798.7846" y2="177.0178">
				<stop  offset="0" style="stop-color:#072900"/>
				<stop  offset="0.1081" style="stop-color:#123D00"/>
				<stop  offset="0.2533" style="stop-color:#1D5100"/>
				<stop  offset="0.4207" style="stop-color:#255F00"/>
				<stop  offset="0.6287" style="stop-color:#2A6700"/>
				<stop  offset="1" style="stop-color:#2B6900"/>
			</linearGradient>
			<path fill="url(#SVGID_00000112602938808718279570000007747351719124429472_)" d="M770.98,141.86c9.15-3.52,53.44-2.73,47.6,9.46
				c-5.61,9.36-15.3,19.74-24.38,27.28C789.97,171.06,775.12,161.6,770.98,141.86z"/>
			<g>
				<defs>
					<path id="SVGID_00000163789692065720296360000007498189737093788093_" d="M818.61,151.42c1.65-2.06,4.22-8.17,0.28-14.7
						c-12.2-20.25-33.01-51.59-52.98-65.18c-22.77-15.5-66.98-19.85-120.49,3.38c-53.51,23.24-92.9,51.53-123.88,93.42
						s-26.68,71.89-22.75,80.99c4.85,11.23,18.44,28.36,21.91,33.84c0.66,1.05,10.42-6.33,25.8-17.75
						c50.76-37.72,126.61-69.39,208.59-100.97C829.98,135.61,817.5,152.53,818.61,151.42z"/>
				</defs>
				<clipPath id="SVGID_00000151534617947928819510000009265213755265767061_">
					<use xlink:href="#SVGID_00000163789692065720296360000007498189737093788093_"  overflow="visible"/>
				</clipPath>
				
					<linearGradient id="SVGID_00000175320357741043566600000006077842018263652270_" gradientUnits="userSpaceOnUse" x1="492.8208" y1="238.2865" x2="786.0433" y2="84.0506">
					<stop  offset="0.013" style="stop-color:#004A82"/>
					<stop  offset="0.0147" style="stop-color:#004A82"/>
					<stop  offset="0.2237" style="stop-color:#006DA6"/>
					<stop  offset="0.4202" style="stop-color:#0086BF"/>
					<stop  offset="0.5976" style="stop-color:#0096CF"/>
					<stop  offset="0.7394" style="stop-color:#009BD4"/>
					<stop  offset="0.814" style="stop-color:#0098D1"/>
					<stop  offset="0.8757" style="stop-color:#008EC7"/>
					<stop  offset="0.9327" style="stop-color:#017EB5"/>
					<stop  offset="0.9866" style="stop-color:#02679D"/>
					<stop  offset="1" style="stop-color:#026096"/>
				</linearGradient>
				
					<path clip-path="url(#SVGID_00000151534617947928819510000009265213755265767061_)" fill="url(#SVGID_00000175320357741043566600000006077842018263652270_)" d="
					M818.61,151.42c1.65-2.06,4.22-8.17,0.28-14.7c-12.2-20.25-33.01-51.59-52.98-65.18c-22.77-15.5-66.98-19.85-120.49,3.38
					c-53.51,23.24-92.9,51.53-123.88,93.42s-26.68,71.89-22.75,80.99c4.85,11.23,18.44,28.36,21.91,33.84
					c0.66,1.05,10.42-6.33,25.8-17.75c50.76-37.72,126.61-69.39,208.59-100.97C829.98,135.61,817.5,152.53,818.61,151.42z"/>
				
					<radialGradient id="SVGID_00000083771895428907698410000000526544726453914256_" cx="601.0742" cy="236.626" r="150.1772" fx="600.8721" fy="238.3602" gradientTransform="matrix(0.8688 -0.4952 0.0856 0.1501 58.6429 498.7892)" gradientUnits="userSpaceOnUse">
					<stop  offset="0.013" style="stop-color:#005782"/>
					<stop  offset="0.2068" style="stop-color:#005880;stop-opacity:0.8036"/>
					<stop  offset="1" style="stop-color:#005A7A;stop-opacity:0"/>
				</radialGradient>
				
					<path clip-path="url(#SVGID_00000151534617947928819510000009265213755265767061_)" fill="url(#SVGID_00000083771895428907698410000000526544726453914256_)" d="
					M818.61,151.42c1.65-2.06,4.22-8.17,0.28-14.7c-12.2-20.25-33.01-51.59-52.98-65.18c-22.77-15.5-66.98-19.85-120.49,3.38
					c-53.51,23.24-92.9,51.53-123.88,93.42s-26.68,71.89-22.75,80.99c4.85,11.23,18.44,28.36,21.91,33.84
					c0.66,1.05,10.42-6.33,25.8-17.75c50.76-37.72,126.61-69.39,208.59-100.97C829.98,135.61,817.5,152.53,818.61,151.42z"/>
				
					<radialGradient id="SVGID_00000118355804744336240690000009870619110539306165_" cx="815.025" cy="148.1099" r="251.1127" fx="814.6871" fy="151.0097" gradientTransform="matrix(0.9455 -0.3256 0.079 0.2295 32.7062 379.4871)" gradientUnits="userSpaceOnUse">
					<stop  offset="0.013" style="stop-color:#005782"/>
					<stop  offset="0.2114" style="stop-color:#006997;stop-opacity:0.799"/>
					<stop  offset="0.5155" style="stop-color:#0080B1;stop-opacity:0.4909"/>
					<stop  offset="0.7879" style="stop-color:#008DC1;stop-opacity:0.2149"/>
					<stop  offset="1" style="stop-color:#0092C7;stop-opacity:0"/>
				</radialGradient>
				
					<path clip-path="url(#SVGID_00000151534617947928819510000009265213755265767061_)" fill="url(#SVGID_00000118355804744336240690000009870619110539306165_)" d="
					M818.61,151.42c1.65-2.06,4.22-8.17,0.28-14.7c-12.2-20.25-33.01-51.59-52.98-65.18c-22.77-15.5-66.98-19.85-120.49,3.38
					c-53.51,23.24-92.9,51.53-123.88,93.42s-26.68,71.89-22.75,80.99c4.85,11.23,18.44,28.36,21.91,33.84
					c0.66,1.05,10.42-6.33,25.8-17.75c50.76-37.72,126.61-69.39,208.59-100.97C829.98,135.61,817.5,152.53,818.61,151.42z"/>
				
					<linearGradient id="SVGID_00000083801532624696003170000006750013045377225885_" gradientUnits="userSpaceOnUse" x1="501.8476" y1="212.4847" x2="775.7299" y2="68.8174">
					<stop  offset="0" style="stop-color:#2B8709"/>
					<stop  offset="0.5988" style="stop-color:#9EE004"/>
					<stop  offset="0.7036" style="stop-color:#9BDD04"/>
					<stop  offset="0.7902" style="stop-color:#90D304"/>
					<stop  offset="0.8702" style="stop-color:#7FC204"/>
					<stop  offset="0.9459" style="stop-color:#67AB03"/>
					<stop  offset="1" style="stop-color:#519603"/>
				</linearGradient>
				
					<path clip-path="url(#SVGID_00000151534617947928819510000009265213755265767061_)" fill="url(#SVGID_00000083801532624696003170000006750013045377225885_)" d="
					M504.06,205.23c13.87-29.4,71.29-73.23,112.62-46.88c0.83-59.36,57.14-88.21,97.91-93.2c36.13-4.42,58.5,9.13,88.21,47.15
					c-21.36-28.57-44.38-64.35-112.89-46.88C584.15,92.4,520.15,169.73,504.06,205.23z"/>
				
					<linearGradient id="SVGID_00000064330223179002888210000016094152918383511993_" gradientUnits="userSpaceOnUse" x1="500.1729" y1="207.7582" x2="780.502" y2="73.2568">
					<stop  offset="0" style="stop-color:#949494"/>
					<stop  offset="0.1117" style="stop-color:#B0B0B0"/>
					<stop  offset="0.2722" style="stop-color:#D2D2D2"/>
					<stop  offset="0.4246" style="stop-color:#EBEBEB"/>
					<stop  offset="0.5642" style="stop-color:#FAFAFA"/>
					<stop  offset="0.6789" style="stop-color:#FFFFFF"/>
					<stop  offset="0.7606" style="stop-color:#FCFCFC"/>
					<stop  offset="0.828" style="stop-color:#F1F1F1"/>
					<stop  offset="0.8904" style="stop-color:#E0E0E0"/>
					<stop  offset="0.9494" style="stop-color:#C8C8C8"/>
					<stop  offset="1" style="stop-color:#ADADAD"/>
				</linearGradient>
				
					<path clip-path="url(#SVGID_00000151534617947928819510000009265213755265767061_)" fill="url(#SVGID_00000064330223179002888210000016094152918383511993_)" d="
					M504.06,205.23c13.87-29.4,77.39-64.35,118.72-38c0.83-59.36,47.43-94.31,83.49-99.3c36.06-4.99,54.92-4.16,96.53,44.38
					c-21.36-28.57-47.71-58.25-99.3-46.6s-84.6,39.67-99.3,75.72C567.02,141.43,520.98,168.06,504.06,205.23z"/>
				
					<radialGradient id="SVGID_00000038403477819417188320000014168605107175845277_" cx="652.0579" cy="71.1209" r="334.5167" fx="651.6078" fy="74.9838" gradientTransform="matrix(0.8688 -0.4952 0.0851 0.1493 79.525 383.4268)" gradientUnits="userSpaceOnUse">
					<stop  offset="0" style="stop-color:#9CFFD4;stop-opacity:0.7"/>
					<stop  offset="0.1402" style="stop-color:#8FF5DF;stop-opacity:0.6018"/>
					<stop  offset="0.4376" style="stop-color:#7AE4F1;stop-opacity:0.3937"/>
					<stop  offset="0.7276" style="stop-color:#6DDAFB;stop-opacity:0.1907"/>
					<stop  offset="1" style="stop-color:#69D7FF;stop-opacity:0"/>
				</radialGradient>
				
					<path clip-path="url(#SVGID_00000151534617947928819510000009265213755265767061_)" fill="url(#SVGID_00000038403477819417188320000014168605107175845277_)" d="
					M818.61,151.42c1.65-2.06,4.22-8.17,0.28-14.7c-12.2-20.25-33.01-51.59-52.98-65.18c-22.77-15.5-66.98-19.85-120.49,3.38
					c-53.51,23.24-92.9,51.53-123.88,93.42s-26.68,71.89-22.75,80.99c4.85,11.23,18.44,28.36,21.91,33.84
					c0.66,1.05,10.42-6.33,25.8-17.75c50.76-37.72,126.61-69.39,208.59-100.97C829.98,135.61,817.5,152.53,818.61,151.42z"/>
			</g>
		</g>
	</g>
	<g>
		<g>
			<g>
				<g>
					<path d="M184.54,618.72c-7.51,5.51-15.34,10.81-23.77,14.82c-2.56,1.22-9.85,5.34-12.53,2.54c1.17,1.66,2.33,3.33,3.5,4.99
						c-1.92-3.41,4.14-9.13,6.07-11.25c6.29-6.89,13.62-12.89,21.1-18.44c7.31-5.42,14.99-10.54,23.18-14.54
						c2.63-1.28,10.33-5.75,13.13-2.82c-1.17-1.66-2.33-3.33-3.5-4.99c1.9,3.38-4.19,9.19-6.07,11.25
						C199.35,607.19,192.01,613.13,184.54,618.72c-0.09,0.07,3.51,4.98,3.5,4.99c6.93-5.19,13.7-10.69,19.7-16.94
						c2.36-2.46,8.34-7.79,7.78-11.8c-0.24-1.71-2.59-5.12-3.95-6.08c-3.09-2.19-8.93,1.05-11.8,2.39
						c-15.39,7.18-29.95,18.11-42.02,29.98c-5.2,5.11-14.23,12.94-6.18,19.6c3.07,2.54,8.42-0.37,11.52-1.78
						c8.89-4.04,17.1-9.61,24.95-15.37C188.11,623.66,184.55,618.72,184.54,618.72z"/>
				</g>
			</g>
			<g>
				<ellipse transform="matrix(0.8034 -0.5955 0.5955 0.8034 -330.5109 229.1404)" cx="181.72" cy="615.05" rx="19.7" ry="1.69"/>
			</g>
			<polygon points="191.61,576.15 187.09,578.23 187.28,581.62 185.39,587.27 181.63,592.17 173.53,593.67 171.32,592.46 
				172.69,589.69 168.19,584.63 161.82,585.75 160.32,590.06 160.91,597.06 159.02,601.4 153.37,599.32 151.11,601.96 
				151.68,606.48 148.29,605.54 146.59,608.74 146.21,611.57 138.87,610.63 134.72,608.55 130.39,611 133.59,614.58 136.8,614.02 
				145.65,616.46 144.33,621.93 138.68,624.38 139.24,627.01 143.95,627.95 149.87,625.75 151.49,622.49 157.89,621.74 
				161.47,622.68 165.43,620.42 171.02,622.03 185.58,610.25 182.57,605.73 183.89,598.76 186.52,592.17 191.04,585.57 
				190.86,581.62 192.93,578.6 			"/>
		</g>
		<g>
			
				<linearGradient id="SVGID_00000077283062631127157850000011634544961045618333_" gradientUnits="userSpaceOnUse" x1="416.368" y1="434.641" x2="414.9981" y2="442.6121">
				<stop  offset="0" style="stop-color:#7D0027"/>
				<stop  offset="0.1259" style="stop-color:#8E0021"/>
				<stop  offset="0.5247" style="stop-color:#BE000F"/>
				<stop  offset="0.8288" style="stop-color:#DD0004"/>
				<stop  offset="1" style="stop-color:#E80000"/>
			</linearGradient>
			<path fill="url(#SVGID_00000077283062631127157850000011634544961045618333_)" d="M421.03,445.92
				c5.13-4.03,8.42-12.27,4.03-14.47c-4.4-2.2-22.89-5.49-17.76-1.28C412.43,434.38,418.29,440.42,421.03,445.92z"/>
			<g>
				<defs>
					<path id="SVGID_00000111190220621011783070000006560006599479982765_" d="M426.89,436.58c5.86-7.87-22.81-62.08-45.88-76.2
						c-29.05-17.78-74.06-21.85-140.11,2.81C172.8,388.62,113.21,430.7,71.92,488.2c-36.93,51.43-27.54,89.19-19.96,98.59
						c8.05,9.99,24.13,22.83,29.44,27.42c-0.61-5.51,15.63-18.81,26.33-26.43c49.22-35.05,76.29-46.6,209.06-114.27
						C387.18,437.63,424.22,423.86,426.89,436.58z"/>
				</defs>
				<clipPath id="SVGID_00000028314571446712491720000013213145838777026214_">
					<use xlink:href="#SVGID_00000111190220621011783070000006560006599479982765_"  overflow="visible"/>
				</clipPath>
				
					<linearGradient id="SVGID_00000134223799977529089910000004367440248495568779_" gradientUnits="userSpaceOnUse" x1="39.4594" y1="573.5698" x2="390.7191" y2="360.8832">
					<stop  offset="0" style="stop-color:#E3A600"/>
					<stop  offset="0.4367" style="stop-color:#F6C000"/>
					<stop  offset="0.7206" style="stop-color:#FFCB00"/>
					<stop  offset="0.8242" style="stop-color:#FFC500"/>
					<stop  offset="0.9652" style="stop-color:#FFB300"/>
					<stop  offset="1" style="stop-color:#FFAE00"/>
				</linearGradient>
				
					<path display="none" clip-path="url(#SVGID_00000028314571446712491720000013213145838777026214_)" fill="url(#SVGID_00000134223799977529089910000004367440248495568779_)" d="
					M426.31,436.13c6.03-8.71-22.22-61.63-45.29-75.75c-29.05-17.78-74.06-21.85-140.11,2.81C172.8,388.62,113.21,430.7,71.92,488.2
					c-36.93,51.43-27.54,89.19-19.96,98.59c8.05,9.99,24.13,22.83,29.44,27.42c-0.61-5.51,15.63-18.81,26.33-26.43
					c49.22-35.05,76.29-46.6,209.06-114.27C387.18,437.63,423.63,423.41,426.31,436.13z"/>
				
					<linearGradient id="SVGID_00000147201587541346947740000005012731954288397961_" gradientUnits="userSpaceOnUse" x1="24.9336" y1="542.3989" x2="379.1748" y2="326.0045">
					<stop  offset="0" style="stop-color:#661940"/>
					<stop  offset="0.1001" style="stop-color:#8F2441"/>
					<stop  offset="0.2157" style="stop-color:#B73041"/>
					<stop  offset="0.3296" style="stop-color:#D63941"/>
					<stop  offset="0.4396" style="stop-color:#ED3F42"/>
					<stop  offset="0.5441" style="stop-color:#FA4342"/>
					<stop  offset="0.637" style="stop-color:#FF4442"/>
					<stop  offset="0.7313" style="stop-color:#FC4241"/>
					<stop  offset="0.8021" style="stop-color:#F23B3D"/>
					<stop  offset="0.8652" style="stop-color:#E22F38"/>
					<stop  offset="0.9239" style="stop-color:#CB1F2F"/>
					<stop  offset="0.979" style="stop-color:#AE0A25"/>
					<stop  offset="1" style="stop-color:#A10020"/>
				</linearGradient>
				
					<path clip-path="url(#SVGID_00000028314571446712491720000013213145838777026214_)" fill="url(#SVGID_00000147201587541346947740000005012731954288397961_)" d="
					M71.12,609.1c-17.67-26.66-8.17-72.16,24.39-105.04c31.46-31.78,30.74-39.51,32.74-58.99c24.29,2.5,22.81,3.27,73.43-17.03
					c44.08-17.68,70.17-2.11,87.64,19.46c-16.06-39.57-6.15-53.12,27.62-72.14c8.43-4.75,15.05-6.95,18.41-10.43
					c5.61-5.8,4.22-11.57,2.16-12.24c9.7,3.8,15.81,9.34,30.31,12.76c9.76,2.3,29.53,5.48,42.28,27.42
					c12.74,21.94,3.58-31.48,3.58-31.48s-37.56-128.27-225.36-13.71S-21.65,595.2,71.12,609.1z"/>
				
					<radialGradient id="SVGID_00000034065206458724607660000010776622892048387738_" cx="248.9767" cy="480.4497" r="362.0541" gradientTransform="matrix(0.8947 -0.4467 0.1421 0.2846 -42.0376 454.9575)" gradientUnits="userSpaceOnUse">
					<stop  offset="0.6023" style="stop-color:#FF0049;stop-opacity:0"/>
					<stop  offset="0.6549" style="stop-color:#FF0A45;stop-opacity:0.1662"/>
					<stop  offset="0.7454" style="stop-color:#FF263B;stop-opacity:0.4523"/>
					<stop  offset="0.8623" style="stop-color:#FF532A;stop-opacity:0.8215"/>
					<stop  offset="0.9188" style="stop-color:#FF6B21"/>
				</radialGradient>
				
					<path clip-path="url(#SVGID_00000028314571446712491720000013213145838777026214_)" fill="url(#SVGID_00000034065206458724607660000010776622892048387738_)" d="
					M426.31,436.13c6.03-8.71-22.22-61.63-45.29-75.75c-29.05-17.78-74.06-21.85-140.11,2.81C172.8,388.62,113.21,430.7,71.92,488.2
					c-36.93,51.43-27.54,89.19-19.96,98.59c8.05,9.99,24.13,22.83,29.44,27.42c-0.61-5.51,15.63-18.81,26.33-26.43
					c49.22-35.05,76.29-46.6,209.06-114.27C387.18,437.63,423.63,423.41,426.31,436.13z"/>
				
					<linearGradient id="SVGID_00000119822011507937746630000014040833595837103533_" gradientUnits="userSpaceOnUse" x1="187.1283" y1="399.6568" x2="248.9346" y2="525.5602">
					<stop  offset="0.6023" style="stop-color:#E8B200;stop-opacity:0"/>
					<stop  offset="0.69" style="stop-color:#E7AC00;stop-opacity:0.1595"/>
					<stop  offset="0.8095" style="stop-color:#E29A00;stop-opacity:0.3765"/>
					<stop  offset="0.9466" style="stop-color:#DB7E00;stop-opacity:0.6257"/>
					<stop  offset="0.9875" style="stop-color:#D97400;stop-opacity:0.7"/>
				</linearGradient>
				
					<linearGradient id="SVGID_00000105398839407084399120000013879483307022688957_" gradientUnits="userSpaceOnUse" x1="44.4002" y1="480.4649" x2="427.732" y2="480.4649">
					<stop  offset="0" style="stop-color:#34D9D4"/>
					<stop  offset="0.0563" style="stop-color:#3EDCD8"/>
					<stop  offset="0.3594" style="stop-color:#6EECED"/>
					<stop  offset="0.5905" style="stop-color:#8DF6FA"/>
					<stop  offset="0.7206" style="stop-color:#98FAFF"/>
					<stop  offset="0.7564" style="stop-color:#92F8FE"/>
					<stop  offset="0.8053" style="stop-color:#80F4FB"/>
					<stop  offset="0.8616" style="stop-color:#64EDF7"/>
					<stop  offset="0.9236" style="stop-color:#3CE4F1"/>
					<stop  offset="0.9894" style="stop-color:#09D7E9"/>
					<stop  offset="1" style="stop-color:#00D5E8"/>
				</linearGradient>
				
					<path display="none" clip-path="url(#SVGID_00000028314571446712491720000013213145838777026214_)" fill="url(#SVGID_00000119822011507937746630000014040833595837103533_)" stroke="url(#SVGID_00000105398839407084399120000013879483307022688957_)" stroke-width="1.2" stroke-miterlimit="10" d="
					M426.31,436.13c6.03-8.71-22.22-61.63-45.29-75.75c-29.05-17.78-74.06-21.85-140.11,2.81C172.8,388.62,113.21,430.7,71.92,488.2
					c-36.93,51.43-27.54,89.19-19.96,98.59c8.05,9.99,24.13,22.83,29.44,27.42c-0.61-5.51,15.63-18.81,26.33-26.43
					c49.22-35.05,76.29-46.6,209.06-114.27C387.18,437.63,423.63,423.41,426.31,436.13z"/>
				
					<linearGradient id="SVGID_00000004510697602925707530000003115674201196355491_" gradientUnits="userSpaceOnUse" x1="44.767" y1="582.8245" x2="409.6172" y2="386.7381">
					<stop  offset="0" style="stop-color:#C43800"/>
					<stop  offset="0.0736" style="stop-color:#CF5000"/>
					<stop  offset="0.2119" style="stop-color:#E07800"/>
					<stop  offset="0.3484" style="stop-color:#ED9700"/>
					<stop  offset="0.4807" style="stop-color:#F7AD00"/>
					<stop  offset="0.6069" style="stop-color:#FDBA00"/>
					<stop  offset="0.7206" style="stop-color:#FFBF00"/>
					<stop  offset="0.8234" style="stop-color:#FFBD00"/>
					<stop  offset="0.8767" style="stop-color:#FFB500"/>
					<stop  offset="0.9185" style="stop-color:#FFA800"/>
					<stop  offset="0.9544" style="stop-color:#FF9500"/>
					<stop  offset="0.9862" style="stop-color:#FF7C00"/>
					<stop  offset="1" style="stop-color:#FF6F00"/>
				</linearGradient>
				
					<path clip-path="url(#SVGID_00000028314571446712491720000013213145838777026214_)" fill="url(#SVGID_00000004510697602925707530000003115674201196355491_)" d="
					M80.51,618.87c-8.05-5.89-27-44.61,22.78-95.38c27.32-27.86,41.72-42.24,49.18-65.46c-11.06-2.98-17.53-7-22.78-11.88
					c30.13,10.31,33.77,15.57,88.82-6.63c26.2-10.57,53.34-6.72,72.34,10.7c-1.88-22.54-7.21-40.34,34.45-61
					c17.73-8.79,19.95-17.28,16.25-33.27c3.62,3.17,5.46,7.68,6.16,13.72c12.32,5.74,21.2,7.12,34.52,10.88
					c11.84,3.34,25.32,5.79,33.57,22.06s11.32,6.68,11.32,6.68s15.84,17.28,5.33,42.82C421.94,477.64,115.18,644.21,80.51,618.87z"
					/>
				
					<radialGradient id="SVGID_00000077288302682618405050000004433629429612432825_" cx="147.7007" cy="569.3906" r="380.1488" gradientTransform="matrix(0.8632 -0.5049 0.054 0.0924 -10.5602 591.3613)" gradientUnits="userSpaceOnUse">
					<stop  offset="0" style="stop-color:#C43800;stop-opacity:0.5"/>
					<stop  offset="0.4117" style="stop-color:#C43800;stop-opacity:0"/>
				</radialGradient>
				
					<path clip-path="url(#SVGID_00000028314571446712491720000013213145838777026214_)" fill="url(#SVGID_00000077288302682618405050000004433629429612432825_)" d="
					M80.51,618.87c-8.05-5.89-27-44.61,22.78-95.38c27.32-27.86,41.72-42.24,49.18-65.46c-11.06-2.98-17.53-7-22.78-11.88
					c30.13,10.31,33.77,15.57,88.82-6.63c26.2-10.57,53.34-6.72,72.34,10.7c-1.88-22.54-7.21-40.34,34.45-61
					c17.73-8.79,19.95-17.28,16.25-33.27c3.62,3.17,5.46,7.68,6.16,13.72c12.32,5.74,21.2,7.12,34.52,10.88
					c11.84,3.34,25.32,5.79,33.57,22.06s11.32,6.68,11.32,6.68s15.84,17.28,5.33,42.82C421.94,477.64,115.18,644.21,80.51,618.87z"
					/>
				
					<radialGradient id="SVGID_00000127748407446686363940000013193160534694224055_" cx="388.0297" cy="446.1095" r="214.1435" gradientTransform="matrix(0.9166 -0.3997 0.067 0.1537 2.4537 532.6572)" gradientUnits="userSpaceOnUse">
					<stop  offset="0" style="stop-color:#C43800;stop-opacity:0.5"/>
					<stop  offset="0.4117" style="stop-color:#C43800;stop-opacity:0"/>
				</radialGradient>
				
					<path clip-path="url(#SVGID_00000028314571446712491720000013213145838777026214_)" fill="url(#SVGID_00000127748407446686363940000013193160534694224055_)" d="
					M80.51,618.87c-8.05-5.89-27-44.61,22.78-95.38c27.32-27.86,41.72-42.24,49.18-65.46c-11.06-2.98-17.53-7-22.78-11.88
					c30.13,10.31,33.77,15.57,88.82-6.63c26.2-10.57,53.34-6.72,72.34,10.7c-1.88-22.54-7.21-40.34,34.45-61
					c17.73-8.79,19.95-17.28,16.25-33.27c3.62,3.17,5.46,7.68,6.16,13.72c12.32,5.74,21.2,7.12,34.52,10.88
					c11.84,3.34,25.32,5.79,33.57,22.06s11.32,6.68,11.32,6.68s15.84,17.28,5.33,42.82C421.94,477.64,115.18,644.21,80.51,618.87z"
					/>
				
					<linearGradient id="SVGID_00000029763442763300037400000004347397641888444843_" gradientUnits="userSpaceOnUse" x1="61.0698" y1="558.4249" x2="378.9503" y2="364.2422">
					<stop  offset="0" style="stop-color:#87A1A1"/>
					<stop  offset="0.0609" style="stop-color:#9BB1B1"/>
					<stop  offset="0.1863" style="stop-color:#BFCDCD"/>
					<stop  offset="0.3128" style="stop-color:#DBE3E3"/>
					<stop  offset="0.4393" style="stop-color:#EFF2F2"/>
					<stop  offset="0.5659" style="stop-color:#FBFCFC"/>
					<stop  offset="0.6929" style="stop-color:#FFFFFF"/>
					<stop  offset="0.8063" style="stop-color:#FCFCFC"/>
					<stop  offset="0.8756" style="stop-color:#F4F4F4"/>
					<stop  offset="0.933" style="stop-color:#E6E6E6"/>
					<stop  offset="0.9837" style="stop-color:#D1D1D1"/>
					<stop  offset="1" style="stop-color:#C9C9C9"/>
				</linearGradient>
				
					<path clip-path="url(#SVGID_00000028314571446712491720000013213145838777026214_)" fill="url(#SVGID_00000029763442763300037400000004347397641888444843_)" d="
					M410.1,392.86c-12.74-21.94-32.52-25.12-42.28-27.42c-14.5-3.41-20.6-8.95-30.31-12.76c2.07,0.67,3.45,6.44-2.16,12.24
					c-3.36,3.48-9.98,5.68-18.41,10.43c-33.77,19.02-43.68,32.57-27.62,72.14c-17.47-21.57-43.56-37.14-87.64-19.46
					c-50.62,20.3-49.14,19.53-73.43,17.03c-2,19.48-1.27,27.21-32.74,58.99c-32.56,32.89-42.06,78.39-24.39,105.04l9.39,9.77
					c-8.05-5.89-27-44.61,22.78-95.38c27.32-27.86,41.72-42.24,49.18-65.46c-11.06-2.98-17.53-7-22.78-11.88
					c30.13,10.31,33.77,15.57,88.82-6.63c26.2-10.57,53.34-6.72,72.34,10.7c-1.88-22.54-7.21-40.34,34.45-61
					c17.73-8.79,19.95-17.28,16.25-33.27c3.62,3.17,5.46,7.68,6.16,13.72c12.32,5.74,21.2,7.12,34.52,10.88
					c11.84,3.34,25.32,5.79,33.57,22.06L410.1,392.86z"/>
			</g>
		</g>
	</g>
</g>
</svg>
