<?xml version="1.0" encoding="UTF-8" standalone="no"?>
<!-- Generator: Adobe Illustrator 26.1.0, SVG Export Plug-In . SVG Version: 6.00 Build 0)  -->

<svg
   xmlns:dc="http://purl.org/dc/elements/1.1/"
   xmlns:cc="http://creativecommons.org/ns#"
   xmlns:rdf="http://www.w3.org/1999/02/22-rdf-syntax-ns#"
   xmlns:svg="http://www.w3.org/2000/svg"
   xmlns="http://www.w3.org/2000/svg"
   xmlns:sodipodi="http://sodipodi.sourceforge.net/DTD/sodipodi-0.dtd"
   xmlns:inkscape="http://www.inkscape.org/namespaces/inkscape"
   version="1.1"
   id="Layer_1"
   x="0px"
   y="0px"
   viewBox="0 0 150 150.00001"
   enable-background="new 0 0 237.96 315.27"
   xml:space="preserve"
   sodipodi:docname="xcnav.logo.type2.svg"
   width="150"
   height="150"
   inkscape:version="0.92.5 (2060ec1f9f, 2020-04-08)"
   inkscape:export-filename="/home/caleb/projects/xcNav/assets/images/title_square.png"
   inkscape:export-xdpi="96"
   inkscape:export-ydpi="96"><metadata
   id="metadata18"><rdf:RDF><cc:Work
       rdf:about=""><dc:format>image/svg+xml</dc:format><dc:type
         rdf:resource="http://purl.org/dc/dcmitype/StillImage" /><dc:title></dc:title></cc:Work></rdf:RDF></metadata><defs
   id="defs16" /><sodipodi:namedview
   pagecolor="#ffffff"
   bordercolor="#666666"
   borderopacity="1"
   objecttolerance="10"
   gridtolerance="10"
   guidetolerance="10"
   inkscape:pageopacity="0"
   inkscape:pageshadow="2"
   inkscape:window-width="2269"
   inkscape:window-height="1808"
   id="namedview14"
   showgrid="false"
   inkscape:zoom="5.988518"
   inkscape:cx="80.916033"
   inkscape:cy="93.990762"
   inkscape:window-x="947"
   inkscape:window-y="151"
   inkscape:window-maximized="0"
   inkscape:current-layer="Layer_1" />
<linearGradient
   id="SVGID_1_"
   gradientUnits="userSpaceOnUse"
   x1="71.897202"
   y1="-17.7663"
   x2="169.9646"
   y2="324.23529"
   gradientTransform="matrix(0.46968675,0,0,0.46968675,18.201498,1.2539226)">
	<stop
   offset="0"
   style="stop-color:#e2e2e2;stop-opacity:1"
   id="stop2" />
	<stop
   offset="0.4364"
   style="stop-color:#21ffbe;stop-opacity:1"
   id="stop4" />
	<stop
   offset="0.7975"
   style="stop-color:#60f2c6;stop-opacity:1"
   id="stop6" />
	<stop
   offset="1"
   style="stop-color:#34ffc2;stop-opacity:1"
   id="stop8" />
</linearGradient>
<path
   d="m 31.667417,52.196148 c 3.82325,-6.570918 3.82325,-14.687105 0,-21.26272 L 19.441471,9.9149461 C 18.718154,8.7783042 18.201498,7.6416623 18.201498,6.1903302 c 0,-2.6866082 2.484643,-4.856561 5.06792,-4.856561 3.414623,0 4.551265,2.587974 5.9979,5.0679201 L 43.747761,31.121303 58.228203,6.4016893 c 1.446635,-2.484643 2.583277,-5.0679201 5.9979,-5.0679201 2.583277,0 5.06792,2.1699528 5.06792,4.8612579 0,1.4466352 -0.516655,2.5832771 -1.239973,3.724616 L 55.828104,30.933428 c -3.82325,6.570918 -3.82325,14.687106 0,21.26272 L 68.05405,73.21463 c 0.723318,1.136642 1.239973,2.273284 1.239973,3.724616 0,2.691305 -2.479946,4.861258 -5.06792,4.861258 -3.414623,0 -4.551265,-2.583277 -5.9979,-5.06792 L 43.747761,52.01297 29.267318,76.732584 c -1.446635,2.479946 -2.583277,5.06792 -5.9979,5.06792 -2.583277,0 -5.06792,-2.169953 -5.06792,-4.861258 0,-1.446635 0.516656,-2.583277 1.239973,-3.724616 z m 13.804094,53.539602 c 0,-1.91633 0.840739,-2.99661 2.996601,-2.99661 2.155863,0 2.996602,1.08028 2.996602,2.99661 v 43.59632 H 43.555189 L 27.924014,113.40103 v -0.0611 h -0.122118 v 32.93914 c 0,1.91632 -0.836043,2.9966 -2.996602,2.9966 -2.160559,0 -2.996601,-1.07559 -2.996601,-2.9966 v -43.59633 h 7.904827 l 15.631175,36.34906 h -0.06106 0.122119 z m 27.885302,0 c 0.479081,-1.61573 1.136642,-3.05297 3.052964,-3.05297 1.977382,0 2.696002,1.4983 3.114023,3.05297 l 11.558991,40.54336 c 0.418022,1.43724 -1.197701,2.9966 -2.874482,2.9966 -1.855263,0 -2.813424,-1.55936 -3.236142,-2.9966 L 82.755245,139.0929 H 69.998553 l -2.277981,7.18621 c -0.418021,1.43724 -1.376182,2.9966 -3.236141,2.9966 -1.676782,0 -3.292504,-1.55936 -2.874483,-2.9966 z m 3.114024,11.14097 h -0.122119 l -4.673383,16.22767 h 9.403129 z M 121.2085,115.2563 v -9.58161 c 0,-1.91633 0.84074,-2.9966 2.9966,-2.9966 2.15587,0 2.9966,1.08027 2.9966,2.9966 v 9.46418 c 0,0.77968 -0.0611,1.61573 -0.36165,2.33435 l -11.43688,29.16285 c -0.6012,1.4983 -1.13664,2.63494 -2.9966,2.63494 -1.85526,0 -2.3954,-1.13664 -2.9966,-2.63494 L 97.973096,117.47322 c -0.300599,-0.71862 -0.361659,-1.55936 -0.361659,-2.33435 v -9.46418 c 0,-1.91633 0.84074,-2.9966 2.996603,-2.9966 2.15586,0 2.9966,1.08027 2.9966,2.9966 v 9.58161 l 8.80193,22.87844 z m 8.75966,-38.753862 c 0,-2.855696 -2.31086,-5.166555 -5.16655,-5.166555 h -17.75417 c -2.00556,0 -3.87021,-1.080279 -4.87534,-2.813423 L 89.302679,46.231126 c -1.700266,-2.944936 -1.700266,-6.599099 0,-9.544035 L 102.1721,14.395758 c 1.00043,-1.737841 2.86978,-2.813424 4.87534,-2.813424 h 17.75417 c 2.85569,0 5.16655,-2.3108587 5.16655,-5.1665541 0,-2.8556955 -2.31086,-5.1665543 -5.16655,-5.1665543 h -17.75417 c -5.6832,0 -10.981272,3.0576607 -13.822877,7.9799779 L 80.355146,31.520537 c -3.541438,6.129412 -3.541438,13.747731 0,19.877144 l 12.869417,22.291333 c 2.841605,4.922317 8.139677,7.979978 13.822877,7.979978 h 17.75417 c 2.85569,0 5.16655,-2.310859 5.16655,-5.166554 z"
   id="path11"
   inkscape:connector-curvature="0"
   style="fill:url(#SVGID_1_);stroke-width:0.46968675" />
</svg>