<?xml version="1.0" encoding="UTF-8" standalone="no"?>
<!-- Generator: Adobe Illustrator 26.3.1, SVG Export Plug-In . SVG Version: 6.00 Build 0)  -->

<svg
   xmlns:dc="http://purl.org/dc/elements/1.1/"
   xmlns:cc="http://creativecommons.org/ns#"
   xmlns:rdf="http://www.w3.org/1999/02/22-rdf-syntax-ns#"
   xmlns:svg="http://www.w3.org/2000/svg"
   xmlns="http://www.w3.org/2000/svg"
   xmlns:xlink="http://www.w3.org/1999/xlink"
   xmlns:sodipodi="http://sodipodi.sourceforge.net/DTD/sodipodi-0.dtd"
   xmlns:inkscape="http://www.inkscape.org/namespaces/inkscape"
   version="1.1"
   id="Layer_1"
   x="0px"
   y="0px"
   viewBox="0 0 1024 1024"
   enable-background="new 0 0 1024 1024"
   xml:space="preserve"
   sodipodi:docname="app-icon 13 clean.svg"
   inkscape:export-filename="/home/caleb/projects/xcNav/assets/images/app-icon 13 clean.png"
   inkscape:export-xdpi="48"
   inkscape:export-ydpi="48"
   inkscape:version="0.92.5 (2060ec1f9f, 2020-04-08)"><metadata
   id="metadata529"><rdf:RDF><cc:Work
       rdf:about=""><dc:format>image/svg+xml</dc:format><dc:type
         rdf:resource="http://purl.org/dc/dcmitype/StillImage" /></cc:Work></rdf:RDF></metadata><defs
   id="defs527" /><sodipodi:namedview
   pagecolor="#ffffff"
   bordercolor="#666666"
   borderopacity="1"
   objecttolerance="10"
   gridtolerance="10"
   guidetolerance="10"
   inkscape:pageopacity="0"
   inkscape:pageshadow="2"
   inkscape:window-width="2477"
   inkscape:window-height="1711"
   id="namedview525"
   showgrid="false"
   inkscape:zoom="0.921875"
   inkscape:cx="560.03039"
   inkscape:cy="464.82616"
   inkscape:window-x="747"
   inkscape:window-y="263"
   inkscape:window-maximized="0"
   inkscape:current-layer="g522" />
<linearGradient
   id="SVGID_1_"
   gradientUnits="userSpaceOnUse"
   x1="365.8584"
   y1="-61.9554"
   x2="657.3699"
   y2="1082.9249">
	<stop
   offset="0.1086"
   style="stop-color:#F2FCFF"
   id="stop2" />
	<stop
   offset="0.3389"
   style="stop-color:#A8DFF0"
   id="stop4" />
	<stop
   offset="0.6061"
   style="stop-color:#658EA1"
   id="stop6" />
	<stop
   offset="1"
   style="stop-color:#070F24"
   id="stop8" />
</linearGradient>
<rect
   fill="url(#SVGID_1_)"
   width="1024"
   height="1024"
   id="rect11" />

<g
   id="g522"
   transform="matrix(0.82326517,0,0,0.82326517,86.811351,95.553336)">
	<g
   id="g169">
		<g
   id="g159">
			
				<linearGradient
   id="SVGID_00000158710527021119708730000003103718334815615894_"
   gradientUnits="userSpaceOnUse"
   x1="612.32678"
   y1="204.2388"
   x2="612.17798"
   y2="167.5957">
				<stop
   offset="0"
   style="stop-color:#004BC4"
   id="stop13" />
				<stop
   offset="0.2278"
   style="stop-color:#043296"
   id="stop15" />
				<stop
   offset="0.4642"
   style="stop-color:#071D6E"
   id="stop17" />
				<stop
   offset="0.68"
   style="stop-color:#0A0D50"
   id="stop19" />
				<stop
   offset="0.8658"
   style="stop-color:#0B033E"
   id="stop21" />
				<stop
   offset="1"
   style="stop-color:#0C0038"
   id="stop23" />
			</linearGradient>
			<path
   d="m 632.48,183.89 c -2.07,23.46 -17.79,26.68 -19.26,25.95 -6.14,-3.07 -9.07,-13.35 -21.2,-23.75 19.15,-8.66 37.4,-10.21 40.46,-2.2 z"
   id="path26"
   inkscape:connector-curvature="0"
   style="fill:url(#SVGID_00000158710527021119708730000003103718334815615894_)" />
			<g
   id="g157">
				<defs
   id="defs29">
					<path
   id="SVGID_00000128447010855561831740000006155983353272653968_"
   d="m 176.91,390.43 c -7.61,-9.91 -29.15,-34.98 -25.82,-59.13 3.33,-24.15 19.99,-92.56 93.28,-155.74 C 302,125.88 419.16,56.65 512.55,73.12 c 49.4,8.71 66.03,23.98 77.46,39.14 18.59,24.67 42.48,54.14 42.48,71.63 -18.32,-9.99 -52.95,12.55 -106.16,34.15 -58.91,23.91 -125.75,51.31 -186.58,81.54 -56.99,28.32 -102.28,56.64 -143.68,83.37 -9.42,6.07 -13.68,14.63 -19.16,7.48 z"
   inkscape:connector-curvature="0" />
				</defs>
				<clipPath
   id="SVGID_00000028294016410248695930000017982416381193739426_">
					<use
   xlink:href="#SVGID_00000128447010855561831740000006155983353272653968_"
   overflow="visible"
   id="use31"
   style="overflow:visible"
   x="0"
   y="0"
   width="100%"
   height="100%" />
				</clipPath>
				
					<linearGradient
   id="SVGID_00000183942532028034374770000016326127204364406191_"
   gradientUnits="userSpaceOnUse"
   x1="147.69189"
   y1="340.51559"
   x2="581.59491"
   y2="93.148201">
					<stop
   offset="0"
   style="stop-color:#001182"
   id="stop34" />
					<stop
   offset="0.1779"
   style="stop-color:#0049C4"
   id="stop36" />
					<stop
   offset="0.3101"
   style="stop-color:#006DEF"
   id="stop38" />
					<stop
   offset="0.3774"
   style="stop-color:#007BFF"
   id="stop40" />
					<stop
   offset="0.3859"
   style="stop-color:#007EFF"
   id="stop42" />
					<stop
   offset="0.4673"
   style="stop-color:#009BFF"
   id="stop44" />
					<stop
   offset="0.5489"
   style="stop-color:#00AFFF"
   id="stop46" />
					<stop
   offset="0.6301"
   style="stop-color:#00BBFF"
   id="stop48" />
					<stop
   offset="0.7105"
   style="stop-color:#00BFFF"
   id="stop50" />
					<stop
   offset="0.7736"
   style="stop-color:#00BCFF"
   id="stop52" />
					<stop
   offset="0.8188"
   style="stop-color:#00B3FF"
   id="stop54" />
					<stop
   offset="0.8584"
   style="stop-color:#00A3FF"
   id="stop56" />
					<stop
   offset="0.8945"
   style="stop-color:#008DFF"
   id="stop58" />
					<stop
   offset="0.9014"
   style="stop-color:#0088FF"
   id="stop60" />
					<stop
   offset="0.9574"
   style="stop-color:#0061D4"
   id="stop62" />
					<stop
   offset="1"
   style="stop-color:#0041B0"
   id="stop64" />
				</linearGradient>
				
					<path
   clip-path="url(#SVGID_00000028294016410248695930000017982416381193739426_)"
   d="m 176.91,390.43 c -7.61,-9.91 -29.15,-34.98 -25.82,-59.13 3.33,-24.15 19.99,-92.56 93.28,-155.74 C 302,125.88 419.16,56.65 512.55,73.12 c 49.4,8.71 66.03,23.98 77.46,39.14 18.59,24.67 42.48,54.14 42.48,71.63 -18.32,-9.99 -52.95,12.55 -106.16,34.15 -58.91,23.91 -125.75,51.31 -186.58,81.54 -56.99,28.32 -102.28,56.64 -143.68,83.37 -9.42,6.07 -13.68,14.63 -19.16,7.48 z"
   id="path67"
   inkscape:connector-curvature="0"
   style="fill:url(#SVGID_00000183942532028034374770000016326127204364406191_)" />
				
					<linearGradient
   id="SVGID_00000059292287649953345780000000256804401837034899_"
   gradientUnits="userSpaceOnUse"
   x1="328.81079"
   y1="120.207"
   x2="402.6178"
   y2="287.1395">
					<stop
   offset="0"
   style="stop-color:#009DFF"
   id="stop69" />
					<stop
   offset="0.1158"
   style="stop-color:#1EA9F7;stop-opacity:0.7354"
   id="stop71" />
					<stop
   offset="0.2308"
   style="stop-color:#35B1F2;stop-opacity:0.4724"
   id="stop73" />
					<stop
   offset="0.3401"
   style="stop-color:#42B6EE;stop-opacity:0.2226"
   id="stop75" />
					<stop
   offset="0.4375"
   style="stop-color:#47B8ED;stop-opacity:0"
   id="stop77" />
					<stop
   offset="0.5222"
   style="stop-color:#45B4EB;stop-opacity:0.1505"
   id="stop79" />
					<stop
   offset="0.6053"
   style="stop-color:#41A8E4;stop-opacity:0.2982"
   id="stop81" />
					<stop
   offset="0.6878"
   style="stop-color:#3995D8;stop-opacity:0.4449"
   id="stop83" />
					<stop
   offset="0.77"
   style="stop-color:#2F79C8;stop-opacity:0.591"
   id="stop85" />
					<stop
   offset="0.8519"
   style="stop-color:#2155B2;stop-opacity:0.7367"
   id="stop87" />
					<stop
   offset="0.9326"
   style="stop-color:#102A99;stop-opacity:0.8801"
   id="stop89" />
					<stop
   offset="1"
   style="stop-color:#000080"
   id="stop91" />
				</linearGradient>
				
					<path
   clip-path="url(#SVGID_00000028294016410248695930000017982416381193739426_)"
   d="m 176.91,390.43 c -7.61,-9.91 -29.15,-34.98 -25.82,-59.13 3.33,-24.15 19.99,-92.56 93.28,-155.74 C 302,125.88 419.16,56.65 512.55,73.12 c 49.4,8.71 66.03,23.98 77.46,39.14 18.59,24.67 42.48,54.14 42.48,71.63 -18.32,-9.99 -52.95,12.55 -106.16,34.15 -58.91,23.91 -125.75,51.31 -186.58,81.54 -56.99,28.32 -102.28,56.64 -143.68,83.37 -9.42,6.07 -13.68,14.63 -19.16,7.48 z"
   id="path94"
   inkscape:connector-curvature="0"
   style="fill:url(#SVGID_00000059292287649953345780000000256804401837034899_)" />
				
					<linearGradient
   id="SVGID_00000078004370067015709570000004500981099815466899_"
   gradientUnits="userSpaceOnUse"
   x1="370.94641"
   y1="167.7533"
   x2="142.9082"
   y2="337.68649">
					<stop
   offset="0"
   style="stop-color:#837c93;stop-opacity:1"
   id="stop96" />
					<stop
   offset="0.5723"
   style="stop-color:#534b63;stop-opacity:1"
   id="stop98" />
					<stop
   offset="1"
   style="stop-color:#150724"
   id="stop100" />
				</linearGradient>
				
					<path
   clip-path="url(#SVGID_00000028294016410248695930000017982416381193739426_)"
   d="m 192.26,397.37 c -16,-22.96 -30.77,-34.61 -10.6,-64.02 15.99,-23.3 69.05,-78.63 192.2,-137.28 -75.52,25.77 -120.42,42.66 -136.41,25.94 -9.53,-9.96 -25.71,-32.09 -25.71,-32.09 -52.88,57.14 -111.33,155.26 -35.49,212.32 z"
   id="path103"
   inkscape:connector-curvature="0"
   style="fill:url(#SVGID_00000078004370067015709570000004500981099815466899_)" />
				
					<linearGradient
   id="SVGID_00000119827212391806668530000004804353196293310123_"
   gradientUnits="userSpaceOnUse"
   x1="519.86249"
   y1="145.7402"
   x2="588.90839"
   y2="102.9496">
					<stop
   offset="0"
   style="stop-color:#9c95ad;stop-opacity:1"
   id="stop105" />
					<stop
   offset="0.6818"
   style="stop-color:#534e62;stop-opacity:1"
   id="stop107" />
					<stop
   offset="1"
   style="stop-color:#2A0F4D"
   id="stop109" />
				</linearGradient>
				
					<path
   clip-path="url(#SVGID_00000028294016410248695930000017982416381193739426_)"
   d="m 522.09,137.13 c 40.36,-11.83 70.57,-21.34 86.61,0 15.79,-11.83 -1.72,-35.49 -14.94,-48.01 -13.22,-12.52 -49.57,-20.51 -36.96,-3.3 12.61,17.21 28.32,21.54 -34.71,51.31 z"
   id="path112"
   inkscape:connector-curvature="0"
   style="fill:url(#SVGID_00000119827212391806668530000004804353196293310123_)" />
				
					<linearGradient
   id="SVGID_00000121974478029633367240000015007587200591008415_"
   gradientUnits="userSpaceOnUse"
   x1="176.9886"
   y1="365.63071"
   x2="603.41028"
   y2="122.5284">
					<stop
   offset="0"
   style="stop-color:#5D7780"
   id="stop114" />
					<stop
   offset="0.0349"
   style="stop-color:#728991"
   id="stop116" />
					<stop
   offset="0.115"
   style="stop-color:#9DADB2"
   id="stop118" />
					<stop
   offset="0.1965"
   style="stop-color:#C0CACE"
   id="stop120" />
					<stop
   offset="0.2783"
   style="stop-color:#DCE1E3"
   id="stop122" />
					<stop
   offset="0.3607"
   style="stop-color:#EFF2F3"
   id="stop124" />
					<stop
   offset="0.4439"
   style="stop-color:#FBFCFC"
   id="stop126" />
					<stop
   offset="0.5294"
   style="stop-color:#FFFFFF"
   id="stop128" />
					<stop
   offset="0.8099"
   style="stop-color:#FFFFFF"
   id="stop130" />
					<stop
   offset="0.8464"
   style="stop-color:#FFFFFF"
   id="stop132" />
					<stop
   offset="0.8754"
   style="stop-color:#F0F3F5"
   id="stop134" />
					<stop
   offset="0.9308"
   style="stop-color:#CAD5DB"
   id="stop136" />
					<stop
   offset="1"
   style="stop-color:#91A9B5"
   id="stop138" />
				</linearGradient>
				
					<path
   clip-path="url(#SVGID_00000028294016410248695930000017982416381193739426_)"
   d="m 211.75,379.97 c -11.84,-17.1 -18.79,-22.96 -11.13,-37.58 7.65,-14.61 87.31,-98.88 253.34,-164.22 166.63,-65.57 158.61,-30.2 171.4,-17.15 -21.91,-34.2 -24.64,-48.26 -177.72,10.19 -153.08,58.45 -254.59,151.12 -267.38,182.1 -6.45,15.61 3.26,22.18 14.79,39.82 z"
   id="path141"
   inkscape:connector-curvature="0"
   style="fill:url(#SVGID_00000121974478029633367240000015007587200591008415_)" />
				
					<radialGradient
   id="SVGID_00000137095624398750058650000004548316430790195117_"
   cx="257.41229"
   cy="212.1322"
   r="58.869801"
   fx="247.9045"
   fy="212.5406"
   gradientTransform="matrix(0.7537,-0.6573,0.3969,0.4551,-20.7774,284.7824)"
   gradientUnits="userSpaceOnUse">
					<stop
   offset="0.4769"
   style="stop-color:#DCEDE1"
   id="stop143" />
					<stop
   offset="1"
   style="stop-color:#FFFFFF"
   id="stop145" />
				</radialGradient>
				
					<path
   clip-path="url(#SVGID_00000028294016410248695930000017982416381193739426_)"
   d="m 220.8,183.05 c 0,0 13.22,20.88 19.48,27.83 6.26,6.96 16,8.35 27.83,7.65 11.83,-0.7 27.83,-2.03 56.36,-10.76 -40.36,4.5 -61.23,7.44 -73.06,-6.91 -11.83,-14.35 -20.88,-30.35 -20.88,-30.35 z"
   id="path148"
   inkscape:connector-curvature="0"
   style="fill:url(#SVGID_00000137095624398750058650000004548316430790195117_)" />
				
					<linearGradient
   id="SVGID_00000061470138925706995860000000454017710821056186_"
   gradientUnits="userSpaceOnUse"
   x1="538.4491"
   y1="106.9504"
   x2="545.86981"
   y2="80.411102">
					<stop
   offset="0.4769"
   style="stop-color:#E1DCED"
   id="stop150" />
					<stop
   offset="1"
   style="stop-color:#F0F0F0"
   id="stop152" />
				</linearGradient>
				
					<path
   clip-path="url(#SVGID_00000028294016410248695930000017982416381193739426_)"
   d="m 541.58,119.73 c 21.57,-13.92 26.07,-15.27 8.16,-36.86 -17.91,-21.59 -29.38,-20.77 -14.95,-4.83 14.44,15.94 30.08,26.87 6.79,41.69 z"
   id="path155"
   inkscape:connector-curvature="0"
   style="fill:url(#SVGID_00000061470138925706995860000000454017710821056186_)" />
			</g>
		</g>
		<g
   id="g167">
			<path
   d="m 311.8,460.19 c -9.3,7.43 -19.52,14.29 -30.81,18.29 -5.21,1.85 -15.28,5.01 -19.41,-0.65 1.06,1.53 2.13,3.06 3.19,4.59 -3.47,-5.94 1.11,-13.93 4.28,-18.97 6.08,-9.68 14.45,-17.99 23.25,-25.2 9.25,-7.59 19.59,-14.49 30.89,-18.65 5.28,-1.95 15.8,-5.4 20.04,0.43 -1.06,-1.53 -2.13,-3.06 -3.19,-4.59 3.46,5.93 -1.11,13.93 -4.28,18.97 -6.27,9.96 -14.92,18.36 -23.96,25.78 -0.15,0.12 3.52,4.85 3.44,4.91 8.39,-6.88 16.34,-14.57 22.49,-23.56 3.36,-4.91 7.72,-11.75 6.85,-18.05 -0.45,-3.23 -3.38,-7.52 -5.89,-9.54 -4.71,-3.81 -12.65,-1.45 -17.68,0.28 -19.92,6.81 -38.73,22.07 -51.44,38.65 -4.17,5.44 -9.15,12.45 -9.4,19.6 -0.14,3.91 2.4,7.55 4.92,10.38 4.54,5.11 13.21,2.64 18.71,0.76 11.54,-3.95 21.98,-10.96 31.44,-18.52 0.13,-0.1 -3.51,-4.86 -3.44,-4.91 z"
   id="path161"
   inkscape:connector-curvature="0" />
			<ellipse
   transform="matrix(0.7771,-0.6294,0.6294,0.7771,-215.1387,290.3879)"
   cx="302.39999"
   cy="448.92999"
   rx="30.6"
   ry="3.8099999"
   id="ellipse163" />
			<polygon
   points="233.43,443.6 225.06,441.87 222.84,445.07 233.92,452.71 237.46,448.93 240.56,448.93 246.96,443.35 251.4,444.83 256.57,440.89 263.7,448.93 271.83,448.93 276.75,459.35 286.84,452.21 295.21,452.71 306.05,445.07 309,433.75 306.05,428.09 306.05,416.03 304.07,413.31 310.23,401.5 311.97,395.59 306.52,395.59 305.88,400.76 294.46,415.11 287.85,413.11 282.41,415.78 282.41,422.18 273.31,420.33 270.1,423.66 266.41,421.69 260.01,422.43 256.07,428.33 245,426.61 237.46,439.17 "
   id="polygon165" />
		</g>
	</g><path
   style="display:inline;fill:none;stroke:#ffffff;stroke-width:29.45571899;stroke-linecap:round;stroke-linejoin:miter;stroke-miterlimit:4;stroke-dasharray:88.36715455, 88.36715455;stroke-dashoffset:0;stroke-opacity:0.66666667"
   d="m 332.68244,496.38 c 0,0 219.92146,458.59771 749.60236,682.592"
   id="path1338"
   inkscape:connector-curvature="0"
   sodipodi:nodetypes="cc"
   inkscape:export-xdpi="48"
   inkscape:export-ydpi="48" />
	<g
   id="g342">
		<g
   id="g330">
			
				<linearGradient
   id="SVGID_00000123415363410246487680000011886794385399550346_"
   gradientUnits="userSpaceOnUse"
   x1="1010.7549"
   y1="264.76999"
   x2="1015.8928"
   y2="308.1553">
				<stop
   offset="0"
   style="stop-color:#020029"
   id="stop171" />
				<stop
   offset="0.0755"
   style="stop-color:#150047"
   id="stop173" />
				<stop
   offset="0.1725"
   style="stop-color:#280066"
   id="stop175" />
				<stop
   offset="0.2792"
   style="stop-color:#38007F"
   id="stop177" />
				<stop
   offset="0.397"
   style="stop-color:#440093"
   id="stop179" />
				<stop
   offset="0.5323"
   style="stop-color:#4C00A1"
   id="stop181" />
				<stop
   offset="0.7002"
   style="stop-color:#5200A9"
   id="stop183" />
				<stop
   offset="1"
   style="stop-color:#5300AB"
   id="stop185" />
			</linearGradient>
			<path
   d="m 975.65,257.28 c 13.25,-5.1 77.35,-3.96 68.9,13.69 -8.12,13.55 -22.14,28.56 -35.29,39.48 -6.12,-10.92 -27.62,-24.61 -33.61,-53.17 z"
   id="path188"
   inkscape:connector-curvature="0"
   style="fill:url(#SVGID_00000123415363410246487680000011886794385399550346_)" />
			<g
   id="g328">
				<defs
   id="defs191">
					<path
   id="SVGID_00000008108469227437292640000015757703535158394752_"
   d="m 1044.58,271.11 c 2.39,-2.99 6.1,-11.82 0.4,-21.28 -17.66,-29.31 -47.77,-74.67 -76.68,-94.34 -32.96,-22.43 -96.94,-28.73 -174.39,4.9 -77.45,33.63 -134.45,74.58 -179.29,135.21 -44.84,60.63 -38.61,104.04 -32.92,117.22 7.02,16.26 26.69,41.04 31.71,48.98 0.96,1.52 15.09,-9.16 37.34,-25.69 73.47,-54.61 183.25,-100.43 301.9,-146.14 108.39,-41.75 90.33,-17.26 91.93,-18.86 z"
   inkscape:connector-curvature="0" />
				</defs>
				<clipPath
   id="SVGID_00000150807761170415101630000013402530907939933593_">
					<use
   xlink:href="#SVGID_00000008108469227437292640000015757703535158394752_"
   overflow="visible"
   id="use193"
   style="overflow:visible"
   x="0"
   y="0"
   width="100%"
   height="100%" />
				</clipPath>
				
					<linearGradient
   id="SVGID_00000076596681169293907240000016939954731045975719_"
   gradientUnits="userSpaceOnUse"
   x1="573.06708"
   y1="396.83029"
   x2="997.45209"
   y2="173.6026">
					<stop
   offset="0.013"
   style="stop-color:#73003F"
   id="stop196" />
					<stop
   offset="0.0934"
   style="stop-color:#8A005B"
   id="stop198" />
					<stop
   offset="0.2875"
   style="stop-color:#BD009C"
   id="stop200" />
					<stop
   offset="0.3792"
   style="stop-color:#D100B5"
   id="stop202" />
					<stop
   offset="0.3995"
   style="stop-color:#D507B8"
   id="stop204" />
					<stop
   offset="0.5103"
   style="stop-color:#E72BC6"
   id="stop206" />
					<stop
   offset="0.6144"
   style="stop-color:#F444D0"
   id="stop208" />
					<stop
   offset="0.7085"
   style="stop-color:#FC54D6"
   id="stop210" />
					<stop
   offset="0.7837"
   style="stop-color:#FF59D8"
   id="stop212" />
					<stop
   offset="0.8249"
   style="stop-color:#FC54D7"
   id="stop214" />
					<stop
   offset="0.8738"
   style="stop-color:#F546D3"
   id="stop216" />
					<stop
   offset="0.9267"
   style="stop-color:#E92ECC"
   id="stop218" />
					<stop
   offset="0.982"
   style="stop-color:#D70CC3"
   id="stop220" />
					<stop
   offset="1"
   style="stop-color:#D100C0"
   id="stop222" />
				</linearGradient>
				
					<path
   clip-path="url(#SVGID_00000150807761170415101630000013402530907939933593_)"
   d="m 1044.58,271.11 c 2.39,-2.99 6.1,-11.82 0.4,-21.28 -17.66,-29.31 -47.77,-74.67 -76.68,-94.34 -32.96,-22.43 -96.94,-28.73 -174.39,4.9 -77.45,33.63 -134.45,74.58 -179.29,135.21 -44.84,60.63 -38.61,104.04 -32.92,117.22 7.02,16.26 26.69,41.04 31.71,48.98 0.96,1.52 15.09,-9.16 37.34,-25.69 73.47,-54.61 183.25,-100.43 301.9,-146.14 108.39,-41.75 90.33,-17.26 91.93,-18.86 z"
   id="path225"
   inkscape:connector-curvature="0"
   style="fill:url(#SVGID_00000076596681169293907240000016939954731045975719_)" />
				
					<radialGradient
   id="SVGID_00000085946679341114740220000010625633956726933394_"
   cx="755.75177"
   cy="376.34491"
   r="304.13391"
   fx="755.34259"
   fy="379.85699"
   gradientTransform="matrix(0.8919,-0.4523,0.0877,0.1729,48.7313,653.1196)"
   gradientUnits="userSpaceOnUse">
					<stop
   offset="0"
   style="stop-color:#7A0060"
   id="stop227" />
					<stop
   offset="0.0751"
   style="stop-color:#84006B;stop-opacity:0.9249"
   id="stop229" />
					<stop
   offset="0.346"
   style="stop-color:#A60090;stop-opacity:0.654"
   id="stop231" />
					<stop
   offset="0.5989"
   style="stop-color:#BD00AA;stop-opacity:0.4011"
   id="stop233" />
					<stop
   offset="0.8244"
   style="stop-color:#CC00BA;stop-opacity:0.1756"
   id="stop235" />
					<stop
   offset="1"
   style="stop-color:#D100C0;stop-opacity:0"
   id="stop237" />
				</radialGradient>
				
					<path
   clip-path="url(#SVGID_00000150807761170415101630000013402530907939933593_)"
   d="m 1044.58,271.11 c 2.39,-2.99 6.1,-11.82 0.4,-21.28 -17.66,-29.31 -47.77,-74.67 -76.68,-94.34 -32.96,-22.43 -96.94,-28.73 -174.39,4.9 -77.45,33.63 -134.45,74.58 -179.29,135.21 -44.84,60.63 -38.61,104.04 -32.92,117.22 7.02,16.26 26.69,41.04 31.71,48.98 0.96,1.52 15.09,-9.16 37.34,-25.69 73.47,-54.61 183.25,-100.43 301.9,-146.14 108.39,-41.75 90.33,-17.26 91.93,-18.86 z"
   id="path240"
   inkscape:connector-curvature="0"
   style="fill:url(#SVGID_00000085946679341114740220000010625633956726933394_)" />
				
					<radialGradient
   id="SVGID_00000103267333276976291190000012416689292093254016_"
   cx="1036.8152"
   cy="270.9295"
   r="363.43881"
   fx="1036.3262"
   fy="275.1265"
   gradientTransform="matrix(0.9455,-0.3256,0.079,0.2295,35.0852,546.3336)"
   gradientUnits="userSpaceOnUse">
					<stop
   offset="0"
   style="stop-color:#630066"
   id="stop242" />
					<stop
   offset="0.172"
   style="stop-color:#7E0084;stop-opacity:0.828"
   id="stop244" />
					<stop
   offset="0.4144"
   style="stop-color:#9D00A9;stop-opacity:0.5856"
   id="stop246" />
					<stop
   offset="0.6408"
   style="stop-color:#B400C3;stop-opacity:0.3592"
   id="stop248" />
					<stop
   offset="0.8428"
   style="stop-color:#C200D3;stop-opacity:0.1572"
   id="stop250" />
					<stop
   offset="1"
   style="stop-color:#C700D9;stop-opacity:0"
   id="stop252" />
				</radialGradient>
				
					<path
   clip-path="url(#SVGID_00000150807761170415101630000013402530907939933593_)"
   d="m 1044.58,271.11 c 2.39,-2.99 6.1,-11.82 0.4,-21.28 -17.66,-29.31 -47.77,-74.67 -76.68,-94.34 -32.96,-22.43 -96.94,-28.73 -174.39,4.9 -77.45,33.63 -134.45,74.58 -179.29,135.21 -44.84,60.63 -38.61,104.04 -32.92,117.22 7.02,16.26 26.69,41.04 31.71,48.98 0.96,1.52 15.09,-9.16 37.34,-25.69 73.47,-54.61 183.25,-100.43 301.9,-146.14 108.39,-41.75 90.33,-17.26 91.93,-18.86 z"
   id="path255"
   inkscape:connector-curvature="0"
   style="fill:url(#SVGID_00000103267333276976291190000012416689292093254016_)" />
				
					<linearGradient
   id="SVGID_00000085246537892885704700000018205751810788620729_"
   gradientUnits="userSpaceOnUse"
   x1="586.13177"
   y1="359.487"
   x2="982.52533"
   y2="151.5553">
					<stop
   offset="0"
   style="stop-color:#08004F"
   id="stop257" />
					<stop
   offset="0.1546"
   style="stop-color:#31008B"
   id="stop259" />
					<stop
   offset="0.3011"
   style="stop-color:#5300BD"
   id="stop261" />
					<stop
   offset="0.4286"
   style="stop-color:#6C00E1"
   id="stop263" />
					<stop
   offset="0.5321"
   style="stop-color:#7B00F7"
   id="stop265" />
					<stop
   offset="0.5988"
   style="stop-color:#8000FF"
   id="stop267" />
					<stop
   offset="0.693"
   style="stop-color:#7E00FC"
   id="stop269" />
					<stop
   offset="0.7708"
   style="stop-color:#7900F1"
   id="stop271" />
					<stop
   offset="0.8428"
   style="stop-color:#7000E0"
   id="stop273" />
					<stop
   offset="0.9112"
   style="stop-color:#6300C8"
   id="stop275" />
					<stop
   offset="0.9766"
   style="stop-color:#5200A9"
   id="stop277" />
					<stop
   offset="1"
   style="stop-color:#4B009C"
   id="stop279" />
				</linearGradient>
				
					<path
   clip-path="url(#SVGID_00000150807761170415101630000013402530907939933593_)"
   d="m 589.33,348.99 c 20.07,-42.55 103.17,-105.98 162.99,-67.85 1.2,-85.91 82.7,-127.66 141.71,-134.89 52.3,-6.4 84.67,13.22 127.66,68.25 C 990.78,173.15 957.46,121.36 858.3,146.65 705.25,185.69 612.62,297.6 589.33,348.99 Z"
   id="path282"
   inkscape:connector-curvature="0"
   style="fill:url(#SVGID_00000085246537892885704700000018205751810788620729_)" />
				
					<linearGradient
   id="SVGID_00000067205432908013792060000004134229361558000047_"
   gradientUnits="userSpaceOnUse"
   x1="583.70789"
   y1="352.64621"
   x2="989.43213"
   y2="157.9805">
					<stop
   offset="0"
   style="stop-color:#949494"
   id="stop284" />
					<stop
   offset="0.1017"
   style="stop-color:#B0B0B0"
   id="stop286" />
					<stop
   offset="0.2477"
   style="stop-color:#D2D2D2"
   id="stop288" />
					<stop
   offset="0.3864"
   style="stop-color:#EBEBEB"
   id="stop290" />
					<stop
   offset="0.5134"
   style="stop-color:#FAFAFA"
   id="stop292" />
					<stop
   offset="0.6178"
   style="stop-color:#FFFFFF"
   id="stop294" />
					<stop
   offset="0.7722"
   style="stop-color:#FFFFFF"
   id="stop296" />
					<stop
   offset="0.786"
   style="stop-color:#FFFFFF"
   id="stop298" />
					<stop
   offset="0.8429"
   style="stop-color:#EEEEEE"
   id="stop300" />
					<stop
   offset="0.9558"
   style="stop-color:#C0C0C0"
   id="stop302" />
					<stop
   offset="1"
   style="stop-color:#ADADAD"
   id="stop304" />
				</linearGradient>
				
					<path
   clip-path="url(#SVGID_00000150807761170415101630000013402530907939933593_)"
   d="m 589.33,348.99 c 20.07,-42.55 112.01,-93.14 171.82,-55 1.2,-85.91 68.65,-136.49 120.84,-143.72 52.19,-7.23 79.49,-6.02 139.71,64.23 -30.91,-41.35 -69.05,-84.31 -143.72,-67.44 -74.67,16.87 -122.44,57.41 -143.72,109.6 -53.8,-0.01 -120.44,38.53 -144.93,92.33 z"
   id="path307"
   inkscape:connector-curvature="0"
   style="fill:url(#SVGID_00000067205432908013792060000004134229361558000047_)" />
				
					<radialGradient
   id="SVGID_00000181054800237618412940000012519404673033200019_"
   cx="806.83331"
   cy="153.5058"
   r="484.15051"
   fx="806.18182"
   fy="159.09669"
   gradientTransform="matrix(0.927,-0.375,0.0645,0.1593,48.9829,431.6046)"
   gradientUnits="userSpaceOnUse">
					<stop
   offset="0"
   style="stop-color:#FF8585;stop-opacity:0.7"
   id="stop309" />
					<stop
   offset="9.378433e-03"
   style="stop-color:#FF8888;stop-opacity:0.6934"
   id="stop311" />
					<stop
   offset="0.1448"
   style="stop-color:#FFACAC;stop-opacity:0.5987"
   id="stop313" />
					<stop
   offset="0.2871"
   style="stop-color:#FFCACA;stop-opacity:0.499"
   id="stop315" />
					<stop
   offset="0.4365"
   style="stop-color:#FFE2E2;stop-opacity:0.3944"
   id="stop317" />
					<stop
   offset="0.596"
   style="stop-color:#FFF2F2;stop-opacity:0.2828"
   id="stop319" />
					<stop
   offset="0.7726"
   style="stop-color:#FFFCFC;stop-opacity:0.1592"
   id="stop321" />
					<stop
   offset="1"
   style="stop-color:#FFFFFF;stop-opacity:0"
   id="stop323" />
				</radialGradient>
				
					<path
   clip-path="url(#SVGID_00000150807761170415101630000013402530907939933593_)"
   d="m 1044.58,271.11 c 2.39,-2.99 6.1,-11.82 0.4,-21.28 -17.66,-29.31 -47.77,-74.67 -76.68,-94.34 -32.96,-22.43 -96.94,-28.73 -174.39,4.9 -77.45,33.63 -134.45,74.58 -179.29,135.21 -44.84,60.63 -38.61,104.04 -32.92,117.22 7.02,16.26 26.69,41.04 31.71,48.98 0.96,1.52 15.09,-9.16 37.34,-25.69 73.47,-54.61 183.25,-100.43 301.9,-146.14 108.39,-41.75 90.33,-17.26 91.93,-18.86 z"
   id="path326"
   inkscape:connector-curvature="0"
   style="fill:url(#SVGID_00000181054800237618412940000012519404673033200019_)" />
			</g>
		</g>
		<g
   id="g340">
			<path
   d="m 703.73,515 c -9.24,7.41 -19.01,14.47 -29.69,19.68 -3.66,1.78 -12.8,6.81 -16.57,2.88 0.8,1.13 1.6,2.26 2.39,3.39 -2.74,-4.01 4.99,-12.92 7.06,-15.53 7.23,-9.13 15.99,-17.12 25.01,-24.44 9.02,-7.31 18.66,-14.21 29.08,-19.38 3.7,-1.84 13.29,-7.24 17.17,-3.18 -0.8,-1.13 -1.6,-2.26 -2.39,-3.39 2.73,4 -4.98,12.9 -7.06,15.53 -7.23,9.14 -15.99,17.08 -25,24.44 -0.12,0.1 2.85,3.93 2.79,3.98 8.33,-6.8 16.36,-14.09 23.29,-22.33 3.27,-3.89 9.36,-10.38 9.07,-15.98 -0.11,-2.2 -2.32,-5.65 -4.16,-6.84 -4.21,-2.72 -12.17,1.68 -15.88,3.49 -18.94,9.22 -36.59,23.64 -50.6,39.28 -5.48,6.12 -16.39,17 -8.03,24.87 3.84,3.62 11.63,-0.47 15.44,-2.25 11.15,-5.2 21.31,-12.57 30.87,-20.24 0.11,-0.09 -2.84,-3.94 -2.79,-3.98 z"
   id="path332"
   inkscape:connector-curvature="0" />
			<g
   id="g336">
				<ellipse
   transform="matrix(0.7771,-0.6294,0.6294,0.7771,-164.1677,552.424)"
   cx="697.84003"
   cy="507.98999"
   rx="24.290001"
   ry="2.78"
   id="ellipse334" />
			</g>
			<polygon
   points="623.49,512.58 621.03,518.92 628.43,521.73 637.58,521.73 647.1,516.45 652.73,517.86 655.9,522.44 665.42,519.97 678.45,513.98 689.37,512.93 695.01,508 698.53,494.96 704.52,479.46 709.1,472.41 703.46,469.24 698.53,474.88 698.18,481.93 695.45,487.39 688.67,487.91 689.72,481.22 683.38,474.18 675.63,474.53 672.46,482.28 671.76,490.03 662.95,494.61 655.2,498.84 647.45,498.84 650.27,504.12 640.05,506.59 631.24,515.04 "
   id="polygon338" />
		</g>
	</g>
	
	
	
	
	<g
   id="g520">
		<g
   id="g508">
			
				<linearGradient
   id="SVGID_00000115474356537279576870000010198501176905250948_"
   gradientUnits="userSpaceOnUse"
   x1="556.08002"
   y1="614.00677"
   x2="554.09741"
   y2="625.54352">
				<stop
   offset="0"
   style="stop-color:#7D0027"
   id="stop352" />
				<stop
   offset="0.1259"
   style="stop-color:#8E0021"
   id="stop354" />
				<stop
   offset="0.5247"
   style="stop-color:#BE000F"
   id="stop356" />
				<stop
   offset="0.8288"
   style="stop-color:#DD0004"
   id="stop358" />
				<stop
   offset="1"
   style="stop-color:#E80000"
   id="stop360" />
			</linearGradient>
			<path
   d="m 562.83,630.33 c 7.42,-5.83 12.19,-17.76 5.83,-20.94 -6.36,-3.18 -33.13,-7.95 -25.71,-1.86 7.42,6.1 15.91,14.84 19.88,22.8 z"
   id="path363"
   inkscape:connector-curvature="0"
   style="fill:url(#SVGID_00000115474356537279576870000010198501176905250948_)" />
			<g
   id="g506">
				<defs
   id="defs366">
					<path
   id="SVGID_00000083048396010687350800000009522592079951175045_"
   d="m 571.31,616.81 c 8.48,-11.4 -33.01,-89.85 -66.4,-110.29 -42.04,-25.73 -107.19,-31.63 -202.79,4.07 -98.56,36.8 -184.81,97.71 -244.57,180.93 -53.45,74.44 -39.86,129.09 -28.88,142.7 11.65,14.45 34.92,33.04 42.61,39.69 -0.89,-7.97 22.62,-27.22 38.11,-38.25 71.24,-50.73 110.42,-67.44 302.57,-165.38 101.88,-51.94 155.48,-71.88 159.35,-53.47 z"
   inkscape:connector-curvature="0" />
				</defs>
				<clipPath
   id="SVGID_00000163752105657770387720000016766872040404367248_">
					<use
   xlink:href="#SVGID_00000083048396010687350800000009522592079951175045_"
   overflow="visible"
   id="use368"
   style="overflow:visible"
   x="0"
   y="0"
   width="100%"
   height="100%" />
				</clipPath>
				
					<linearGradient
   id="SVGID_00000131342386220566598170000009146711912323731074_"
   gradientUnits="userSpaceOnUse"
   x1="-10.4483"
   y1="769.96619"
   x2="502.24979"
   y2="456.77579">
					<stop
   offset="0"
   style="stop-color:#661940"
   id="stop371" />
					<stop
   offset="0.1001"
   style="stop-color:#8F2441"
   id="stop373" />
					<stop
   offset="0.2157"
   style="stop-color:#B73041"
   id="stop375" />
					<stop
   offset="0.3296"
   style="stop-color:#D63941"
   id="stop377" />
					<stop
   offset="0.4396"
   style="stop-color:#ED3F42"
   id="stop379" />
					<stop
   offset="0.5441"
   style="stop-color:#FA4342"
   id="stop381" />
					<stop
   offset="0.637"
   style="stop-color:#FF4442"
   id="stop383" />
					<stop
   offset="0.7313"
   style="stop-color:#FC4241"
   id="stop385" />
					<stop
   offset="0.8021"
   style="stop-color:#F23B3D"
   id="stop387" />
					<stop
   offset="0.8652"
   style="stop-color:#E22F38"
   id="stop389" />
					<stop
   offset="0.9239"
   style="stop-color:#CB1F2F"
   id="stop391" />
					<stop
   offset="0.979"
   style="stop-color:#AE0A25"
   id="stop393" />
					<stop
   offset="1"
   style="stop-color:#A10020"
   id="stop395" />
				</linearGradient>
				
					<path
   clip-path="url(#SVGID_00000163752105657770387720000016766872040404367248_)"
   d="M 56.4,866.5 C 30.83,827.92 44.58,762.07 91.7,714.47 c 45.54,-46 44.49,-57.18 47.38,-85.38 35.16,3.61 33.01,4.74 106.28,-24.65 63.8,-25.59 101.56,-3.06 126.85,28.16 -23.24,-57.27 -8.9,-76.87 39.98,-104.4 12.2,-6.87 21.78,-10.05 26.64,-15.09 8.11,-8.4 6.11,-16.75 3.12,-17.72 14.05,5.5 22.88,13.52 43.86,18.46 14.12,3.33 42.74,7.93 61.19,39.69 18.44,31.76 5.18,-45.56 5.18,-45.56 0,0 -54.36,-185.64 -326.17,-19.84 C -45.8,653.94 -77.87,846.39 56.4,866.5 Z"
   id="path398"
   inkscape:connector-curvature="0"
   style="fill:url(#SVGID_00000131342386220566598170000009146711912323731074_)" />
				
					<radialGradient
   id="SVGID_00000013151842800229795500000001260648309476900496_"
   cx="313.81229"
   cy="680.3064"
   r="524.00592"
   gradientTransform="matrix(0.8947,-0.4467,0.1421,0.2846,-63.6038,626.9074)"
   gradientUnits="userSpaceOnUse">
					<stop
   offset="0.6023"
   style="stop-color:#FF0049;stop-opacity:0"
   id="stop400" />
					<stop
   offset="0.6549"
   style="stop-color:#FF0A45;stop-opacity:0.1662"
   id="stop402" />
					<stop
   offset="0.7454"
   style="stop-color:#FF263B;stop-opacity:0.4523"
   id="stop404" />
					<stop
   offset="0.8623"
   style="stop-color:#FF532A;stop-opacity:0.8215"
   id="stop406" />
					<stop
   offset="0.9188"
   style="stop-color:#FF6B21"
   id="stop408" />
				</radialGradient>
				
					<linearGradient
   id="SVGID_00000147214070085928982880000003617316185617542805_"
   gradientUnits="userSpaceOnUse"
   x1="18.094299"
   y1="680.06622"
   x2="572.15887"
   y2="680.06622">
					<stop
   offset="0"
   style="stop-color:#34D9D4"
   id="stop411" />
					<stop
   offset="0.0563"
   style="stop-color:#3EDCD8"
   id="stop413" />
					<stop
   offset="0.3594"
   style="stop-color:#6EECED"
   id="stop415" />
					<stop
   offset="0.5905"
   style="stop-color:#8DF6FA"
   id="stop417" />
					<stop
   offset="0.7206"
   style="stop-color:#98FAFF"
   id="stop419" />
					<stop
   offset="0.7564"
   style="stop-color:#92F8FE"
   id="stop421" />
					<stop
   offset="0.8053"
   style="stop-color:#80F4FB"
   id="stop423" />
					<stop
   offset="0.8616"
   style="stop-color:#64EDF7"
   id="stop425" />
					<stop
   offset="0.9236"
   style="stop-color:#3CE4F1"
   id="stop427" />
					<stop
   offset="0.9894"
   style="stop-color:#09D7E9"
   id="stop429" />
					<stop
   offset="1"
   style="stop-color:#00D5E8"
   id="stop431" />
				</linearGradient>
				
					<path
   clip-path="url(#SVGID_00000163752105657770387720000016766872040404367248_)"
   stroke-miterlimit="10"
   d="m 570.47,616.16 c 8.73,-12.6 -32.16,-89.2 -65.56,-109.64 -42.04,-25.73 -107.19,-31.63 -202.79,4.07 -98.56,36.8 -184.81,97.71 -244.57,180.93 -53.45,74.44 -39.86,129.09 -28.88,142.7 11.65,14.45 34.92,33.04 42.61,39.69 -0.89,-7.97 22.62,-27.22 38.11,-38.25 71.24,-50.73 110.42,-67.44 302.57,-165.38 101.88,-51.94 154.64,-72.53 158.51,-54.12 z"
   id="path434"
   inkscape:connector-curvature="0"
   style="fill:url(#SVGID_00000013151842800229795500000001260648309476900496_);stroke:url(#SVGID_00000147214070085928982880000003617316185617542805_);stroke-miterlimit:10" />
				
					<linearGradient
   id="SVGID_00000015354415426586585420000017708018967847931582_"
   gradientUnits="userSpaceOnUse"
   x1="18.256901"
   y1="828.47479"
   x2="546.30939"
   y2="544.67627">
					<stop
   offset="0"
   style="stop-color:#C43800"
   id="stop436" />
					<stop
   offset="0.0736"
   style="stop-color:#CF5000"
   id="stop438" />
					<stop
   offset="0.2119"
   style="stop-color:#E07800"
   id="stop440" />
					<stop
   offset="0.3484"
   style="stop-color:#ED9700"
   id="stop442" />
					<stop
   offset="0.4807"
   style="stop-color:#F7AD00"
   id="stop444" />
					<stop
   offset="0.6069"
   style="stop-color:#FDBA00"
   id="stop446" />
					<stop
   offset="0.7206"
   style="stop-color:#FFBF00"
   id="stop448" />
					<stop
   offset="0.8234"
   style="stop-color:#FFBD00"
   id="stop450" />
					<stop
   offset="0.8767"
   style="stop-color:#FFB500"
   id="stop452" />
					<stop
   offset="0.9185"
   style="stop-color:#FFA800"
   id="stop454" />
					<stop
   offset="0.9544"
   style="stop-color:#FF9500"
   id="stop456" />
					<stop
   offset="0.9862"
   style="stop-color:#FF7C00"
   id="stop458" />
					<stop
   offset="1"
   style="stop-color:#FF6F00"
   id="stop460" />
				</linearGradient>
				
					<path
   clip-path="url(#SVGID_00000163752105657770387720000016766872040404367248_)"
   d="m 70,880.64 c -11.65,-8.52 -39.08,-64.56 32.98,-138.04 39.53,-40.32 60.38,-61.13 71.18,-94.74 -16,-4.32 -25.37,-10.13 -32.98,-17.2 43.61,14.93 48.88,22.54 128.55,-9.59 37.93,-15.29 77.2,-9.73 104.7,15.48 -2.72,-32.62 -10.44,-58.38 49.87,-88.29 25.66,-12.72 28.88,-25.02 23.52,-48.16 5.24,4.59 7.9,11.12 8.92,19.86 17.82,8.31 30.68,10.31 49.96,15.74 17.14,4.83 36.65,8.38 48.58,31.93 11.93,23.55 16.39,9.66 16.39,9.66 0,0 22.93,25.01 7.71,61.97 C 564.15,676.24 120.17,917.32 70,880.64 Z"
   id="path463"
   inkscape:connector-curvature="0"
   style="fill:url(#SVGID_00000015354415426586585420000017708018967847931582_)" />
				
					<radialGradient
   id="SVGID_00000021802822212904692120000007571029014770889107_"
   cx="167.23421"
   cy="809.03168"
   r="550.19452"
   gradientTransform="matrix(0.8632,-0.5049,0.054,0.0924,-20.8372,818.7258)"
   gradientUnits="userSpaceOnUse">
					<stop
   offset="0"
   style="stop-color:#C43800;stop-opacity:0.5"
   id="stop465" />
					<stop
   offset="0.4117"
   style="stop-color:#C43800;stop-opacity:0"
   id="stop467" />
				</radialGradient>
				
					<path
   clip-path="url(#SVGID_00000163752105657770387720000016766872040404367248_)"
   d="m 70,880.64 c -11.65,-8.52 -39.08,-64.56 32.98,-138.04 39.53,-40.32 60.38,-61.13 71.18,-94.74 -16,-4.32 -25.37,-10.13 -32.98,-17.2 43.61,14.93 48.88,22.54 128.55,-9.59 37.93,-15.29 77.2,-9.73 104.7,15.48 -2.72,-32.62 -10.44,-58.38 49.87,-88.29 25.66,-12.72 28.88,-25.02 23.52,-48.16 5.24,4.59 7.9,11.12 8.92,19.86 17.82,8.31 30.68,10.31 49.96,15.74 17.14,4.83 36.65,8.38 48.58,31.93 11.93,23.55 16.39,9.66 16.39,9.66 0,0 22.93,25.01 7.71,61.97 C 564.15,676.24 120.17,917.32 70,880.64 Z"
   id="path470"
   inkscape:connector-curvature="0"
   style="fill:url(#SVGID_00000021802822212904692120000007571029014770889107_)" />
				
					<radialGradient
   id="SVGID_00000096773835432196283050000013505000557372233407_"
   cx="515.06561"
   cy="630.60529"
   r="309.9328"
   gradientTransform="matrix(0.9166,-0.3997,0.067,0.1537,0.6811,739.5802)"
   gradientUnits="userSpaceOnUse">
					<stop
   offset="0"
   style="stop-color:#C43800;stop-opacity:0.5"
   id="stop472" />
					<stop
   offset="0.4117"
   style="stop-color:#C43800;stop-opacity:0"
   id="stop474" />
				</radialGradient>
				
					<path
   clip-path="url(#SVGID_00000163752105657770387720000016766872040404367248_)"
   d="m 70,880.64 c -11.65,-8.52 -39.08,-64.56 32.98,-138.04 39.53,-40.32 60.38,-61.13 71.18,-94.74 -16,-4.32 -25.37,-10.13 -32.98,-17.2 43.61,14.93 48.88,22.54 128.55,-9.59 37.93,-15.29 77.2,-9.73 104.7,15.48 -2.72,-32.62 -10.44,-58.38 49.87,-88.29 25.66,-12.72 28.88,-25.02 23.52,-48.16 5.24,4.59 7.9,11.12 8.92,19.86 17.82,8.31 30.68,10.31 49.96,15.74 17.14,4.83 36.65,8.38 48.58,31.93 11.93,23.55 16.39,9.66 16.39,9.66 0,0 22.93,25.01 7.71,61.97 C 564.15,676.24 120.17,917.32 70,880.64 Z"
   id="path477"
   inkscape:connector-curvature="0"
   style="fill:url(#SVGID_00000096773835432196283050000013505000557372233407_)" />
				
					<linearGradient
   id="SVGID_00000080200890639851595770000004772352177938523523_"
   gradientUnits="userSpaceOnUse"
   x1="41.8521"
   y1="793.16089"
   x2="501.9248"
   y2="512.11768">
					<stop
   offset="0"
   style="stop-color:#87A1A1"
   id="stop479" />
					<stop
   offset="0.0609"
   style="stop-color:#9BB1B1"
   id="stop481" />
					<stop
   offset="0.1863"
   style="stop-color:#BFCDCD"
   id="stop483" />
					<stop
   offset="0.3128"
   style="stop-color:#DBE3E3"
   id="stop485" />
					<stop
   offset="0.4393"
   style="stop-color:#EFF2F2"
   id="stop487" />
					<stop
   offset="0.5659"
   style="stop-color:#FBFCFC"
   id="stop489" />
					<stop
   offset="0.6929"
   style="stop-color:#FFFFFF"
   id="stop491" />
					<stop
   offset="0.8063"
   style="stop-color:#FCFCFC"
   id="stop493" />
					<stop
   offset="0.8756"
   style="stop-color:#F4F4F4"
   id="stop495" />
					<stop
   offset="0.933"
   style="stop-color:#E6E6E6"
   id="stop497" />
					<stop
   offset="0.9837"
   style="stop-color:#D1D1D1"
   id="stop499" />
					<stop
   offset="1"
   style="stop-color:#C9C9C9"
   id="stop501" />
				</linearGradient>
				
					<path
   clip-path="url(#SVGID_00000163752105657770387720000016766872040404367248_)"
   d="m 547.01,553.54 c -18.44,-31.76 -47.07,-36.36 -61.19,-39.69 -20.98,-4.94 -29.82,-12.96 -43.86,-18.46 2.99,0.97 4.99,9.32 -3.12,17.72 -4.87,5.04 -14.44,8.22 -26.64,15.09 -48.88,27.53 -63.22,47.14 -39.98,104.4 -25.29,-31.22 -63.04,-53.75 -126.85,-28.16 -73.27,29.39 -71.12,28.26 -106.28,24.65 -2.89,28.2 -1.84,39.38 -47.38,85.38 -47.12,47.6 -60.88,113.45 -35.3,152.03 L 70,880.64 c -11.65,-8.52 -39.08,-64.56 32.98,-138.04 39.53,-40.32 60.38,-61.13 71.18,-94.74 -16,-4.32 -25.37,-10.13 -32.98,-17.2 43.61,14.93 48.88,22.54 128.55,-9.59 37.93,-15.29 77.2,-9.73 104.7,15.48 -2.72,-32.62 -10.44,-58.38 49.87,-88.29 25.66,-12.72 28.88,-25.02 23.52,-48.16 5.24,4.59 7.9,11.12 8.92,19.86 17.82,8.31 30.68,10.31 49.96,15.74 17.14,4.83 36.65,8.38 48.58,31.93 z"
   id="path504"
   inkscape:connector-curvature="0"
   style="fill:url(#SVGID_00000080200890639851595770000004772352177938523523_)" />
			</g>
		</g>
		<g
   id="g518">
			<path
   d="m 220.47,906.9 c -9.37,6.23 -19.31,11.73 -29.96,15.43 -6.94,2.41 -15.3,4.83 -22.68,3.12 -1.21,-0.28 -2.4,-0.66 -3.48,-1.27 -0.52,-0.29 -1.02,-0.81 -1.54,-1.05 -1.98,-0.91 2.48,-3.93 1.91,2.94 0.06,-0.78 -0.67,-2.15 -0.74,-2.99 -0.13,-1.43 0.05,-2.88 0.35,-4.28 1.5,-6.94 6.28,-13.2 10.81,-18.46 13.75,-15.96 32.63,-28.83 52.19,-36.51 7.32,-2.87 15.61,-5.55 23.58,-4.89 2.96,0.24 4.93,1.32 7.52,2.5 2.48,1.13 -1.92,2.98 -1.62,-2.72 -0.02,0.34 0.42,0.94 0.45,1.27 0.12,1.22 0.38,2.33 0.3,3.59 -0.47,7.38 -5.73,14.36 -10.27,19.81 -7.65,9.16 -17,16.8 -26.82,23.51 -0.02,0.01 3.94,5.76 4,5.71 9.82,-6.71 19.17,-14.35 26.82,-23.51 4.63,-5.54 10.28,-12.96 10.3,-20.57 0.01,-4.34 -3.36,-9.12 -6.35,-12.08 -5.11,-5.05 -14.41,-3.41 -20.59,-1.95 -23.1,5.45 -45.72,20.63 -61.62,37.99 -5.4,5.9 -11.51,13.27 -12.88,21.43 -0.89,5.32 1.94,9.24 5.13,13.22 4.91,6.12 14.12,4.84 20.92,3.32 13.77,-3.08 26.62,-10.08 38.27,-17.84 0,0 -3.91,-5.78 -4,-5.72 z"
   id="path510"
   inkscape:connector-curvature="0" />
			<g
   id="g514">
				<ellipse
   transform="matrix(0.829,-0.5593,0.5593,0.829,-463.0456,270.4818)"
   cx="210.75999"
   cy="892.40002"
   rx="39.150002"
   ry="4.6799998"
   id="ellipse512" />
			</g>
			<polygon
   points="216.64,885.7 212.58,878.97 214.93,868.98 219.17,859.61 226.13,850.37 226.11,844.64 229.3,840.42 227.55,836.79 220.88,839.5 220.93,844.41 217.85,852.46 212.09,859.3 200.28,860.96 197.16,859.07 199.32,855.15 193.15,847.54 183.86,848.76 181.42,854.89 181.81,865.05 178.81,871.2 170.77,867.84 167.34,871.51 167.86,878.08 163.02,876.5 160.37,881.02 159.64,885.08 149.08,883.25 143.22,879.99 136.8,883.25 141.2,888.63 145.86,888.02 158.51,892.13 156.25,899.94 147.92,903.12 148.57,906.97 155.32,908.63 164.02,905.82 166.56,901.22 175.87,900.54 180.99,902.13 186.85,899.11 193.11,899.39 "
   id="polygon516" />
		</g>
	</g>
<path
   style="display:inline;fill:none;stroke:#ffffff;stroke-width:23.5645752;stroke-linecap:round;stroke-linejoin:miter;stroke-miterlimit:4;stroke-dasharray:70.69372364, 70.69372364;stroke-dashoffset:0;stroke-opacity:0.66666667"
   d="m 722.79308,552.09977 c 0,0 191.96059,227.46998 481.83572,360.54898"
   id="path1336"
   inkscape:connector-curvature="0"
   sodipodi:nodetypes="cc"
   inkscape:export-xdpi="48"
   inkscape:export-ydpi="48" /><path
   style="display:inline;fill:none;stroke:#ffffff;stroke-width:30.36688614;stroke-linecap:round;stroke-linejoin:miter;stroke-miterlimit:4;stroke-dasharray:91.10065958, 91.10065958;stroke-dashoffset:0;stroke-opacity:0.66666667"
   d="m 247.34784,948.50181 c 0,0 119.09782,197.70609 456.40701,363.72549"
   id="path1340"
   inkscape:connector-curvature="0"
   sodipodi:nodetypes="cc"
   inkscape:export-xdpi="48"
   inkscape:export-ydpi="48" /></g></svg>