<?xml version="1.0" encoding="UTF-8" standalone="no"?>
<!-- Generator: Adobe Illustrator 26.1.0, SVG Export Plug-In . SVG Version: 6.00 Build 0)  -->

<svg
   version="1.1"
   id="Layer_1"
   x="0px"
   y="0px"
   viewBox="0 0 179.99999 80.000003"
   enable-background="new 0 0 237.96 315.27"
   xml:space="preserve"
   sodipodi:docname="xcnav_brand.svg"
   width="180"
   height="80"
   inkscape:version="1.2.2 (732a01da63, 2022-12-09)"
   inkscape:export-filename="xcnav_brand.png"
   inkscape:export-xdpi="480"
   inkscape:export-ydpi="480"
   xmlns:inkscape="http://www.inkscape.org/namespaces/inkscape"
   xmlns:sodipodi="http://sodipodi.sourceforge.net/DTD/sodipodi-0.dtd"
   xmlns:xlink="http://www.w3.org/1999/xlink"
   xmlns="http://www.w3.org/2000/svg"
   xmlns:svg="http://www.w3.org/2000/svg"><defs
   id="defs336"><linearGradient
     id="linearGradient614"
     gradientUnits="userSpaceOnUse"
     x1="71.897202"
     y1="-17.7663"
     x2="169.9646"
     y2="324.23529"
     gradientTransform="matrix(0.25026723,0,0,0.25026723,58.918629,0.6250872)">
	<stop
   offset="0"
   style="stop-color:#FFFFFF"
   id="stop322-5" />
	<stop
   offset="0.4364"
   style="stop-color:#D2FFF2"
   id="stop324-9" />
	<stop
   offset="0.7975"
   style="stop-color:#B3FFE8"
   id="stop326-2" />
	<stop
   offset="1"
   style="stop-color:#A8FFE5"
   id="stop328-0" />
</linearGradient><linearGradient
     inkscape:collect="always"
     xlink:href="#SVGID_1_"
     id="linearGradient618"
     gradientUnits="userSpaceOnUse"
     gradientTransform="matrix(0.46974434,0,0,0.56471549,29.314801,45.162243)"
     x1="109.74145"
     y1="-97.611549"
     x2="116.36344"
     y2="39.243126" /><linearGradient
     inkscape:collect="always"
     xlink:href="#SVGID_1_"
     id="linearGradient621"
     gradientUnits="userSpaceOnUse"
     gradientTransform="matrix(0.26229727,0,0,0.32622117,37.612448,-14.874207)"
     x1="51.47702"
     y1="11.241394"
     x2="51.47702"
     y2="263.43231" /></defs><sodipodi:namedview
   id="namedview334"
   pagecolor="#3b3b3b"
   bordercolor="#000000"
   borderopacity="0.25"
   inkscape:showpageshadow="2"
   inkscape:pageopacity="0"
   inkscape:pagecheckerboard="0"
   inkscape:deskcolor="#d1d1d1"
   showgrid="true"
   inkscape:zoom="9.2136732"
   inkscape:cx="85.579332"
   inkscape:cy="37.010212"
   inkscape:window-width="2700"
   inkscape:window-height="1886"
   inkscape:window-x="175"
   inkscape:window-y="81"
   inkscape:window-maximized="0"
   inkscape:current-layer="Layer_1"><inkscape:grid
     type="xygrid"
     id="grid574" /></sodipodi:namedview>
<linearGradient
   id="SVGID_1_"
   gradientUnits="userSpaceOnUse"
   x1="71.897202"
   y1="-17.7663"
   x2="169.9646"
   y2="324.23529"
   gradientTransform="matrix(0.25026723,0,0,0.25026723,58.918629,0.6250872)">
	<stop
   offset="0"
   style="stop-color:#FFFFFF"
   id="stop322" />
	<stop
   offset="0.4364"
   style="stop-color:#D2FFF2"
   id="stop324" />
	<stop
   offset="0.7975"
   style="stop-color:#B3FFE8"
   id="stop326" />
	<stop
   offset="1"
   style="stop-color:#A8FFE5"
   id="stop328" />
</linearGradient>
<path
   fill="url(#SVGID_1_)"
   d="m 7.6962492,35.338103 c 2.1351,-4.563835 2.1351,-10.200938 0,-14.768033 L 0.86865177,5.9716728 C 0.46471346,5.1822184 0.1761864,4.3927628 0.1761864,3.3847394 c 0,-1.8659849 1.387553,-3.3731268 2.8301882,-3.3731268 1.9069014,0 2.54166,1.797479 3.3495355,3.5199277 L 14.442535,20.700558 22.52916,3.5315403 c 0.807875,-1.7257108 1.442634,-3.5199277 3.349535,-3.5199277 1.442635,0 2.830189,1.5071419 2.830189,3.376389 0,1.0047612 -0.288527,1.7942168 -0.692466,2.5869346 L 21.188821,20.57007 c -2.1351,4.563835 -2.1351,10.200936 0,14.768033 L 28.016418,49.9365 c 0.403939,0.789454 0.692466,1.57891 0.692466,2.586935 0,1.869247 -1.38493,3.376389 -2.830189,3.376389 -1.906901,0 -2.54166,-1.794217 -3.349535,-3.519928 L 14.442535,35.210877 6.3559101,52.379896 c -0.8078755,1.722449 -1.4426341,3.519928 -3.3495355,3.519928 -1.4426352,0 -2.8301882,-1.507142 -2.8301882,-3.376389 0,-1.004762 0.28852706,-1.794217 0.69246537,-2.586935 z M 62.592445,52.220048 c 0,-1.983424 -1.290509,-3.588433 -2.88527,-3.588433 h -9.914836 c -1.120008,0 -2.161338,-0.750308 -2.722652,-1.954065 L 40.12684,31.720928 39.882747,31.195093 c -0.949516,-2.045407 -0.949516,-4.583407 0,-6.628813 l 7.18694,-15.4824558 c 0.558694,-1.2070196 1.602644,-1.954065 2.722652,-1.954065 h 9.914836 c 1.594761,0 2.88527,-1.6050095 2.88527,-3.5884325 0,-1.9834254 -1.290509,-3.5884337 -2.88527,-3.5884337 h -9.914836 c -3.173804,0 -6.132513,2.1237008 -7.719411,5.5424975 L 34.885984,20.977846 c -1.977722,4.257187 -1.977722,9.548494 0,13.805681 l 7.186944,15.482457 c 1.097457,2.364351 2.851017,4.109289 4.878079,4.960746 0.904024,0.379731 1.862447,0.581752 2.841332,0.581752 h 9.914836 c 1.594761,0 2.88527,-1.605009 2.88527,-3.588434 z"
   id="path331"
   style="fill:url(#linearGradient621);stroke-width:0.292518"
   sodipodi:nodetypes="cccsscccssccccsscccssccssscccccsssssccccssss" /><path
   fill="url(#SVGID_1_)"
   d="m 98.665717,3.8245724 c 0,-2.3040392 0.840849,-3.6028858 2.996993,-3.6028858 2.15611,0 2.99694,1.2988466 2.99694,3.6028858 V 56.241467 H 96.74916 L 81.116074,13.040728 v -0.07341 H 80.993941 V 52.57082 c 0,2.304038 -0.836149,3.602885 -2.996972,3.602885 C 75.836146,56.17371 75,54.880511 75,52.570825 V 0.15392104 h 7.905799 L 98.538883,43.857256 h -0.06093 0.122189 z m 27.888733,0 c 0.47914,-1.9426207 1.13677,-3.67065136 3.05334,-3.67065136 1.97761,0 2.69634,1.80144166 3.11439,3.67065136 l 11.56044,48.7462446 c 0.41804,1.728027 -1.19788,3.602885 -2.87485,3.602885 -1.85551,0 -2.81376,-1.874858 -3.23652,-3.602885 l -2.21721,-8.640148 h -12.75826 l -2.27828,8.640148 c -0.41807,1.728027 -1.37633,3.602885 -3.23653,3.602885 -1.67698,0 -3.2929,-1.874858 -2.87483,-3.602885 z m 3.11441,13.3950526 h -0.1222 l -4.67397,19.510922 h 9.4043 z m 44.74315,-1.94827 V 3.7511589 c 0,-2.3040392 0.84083,-3.60288583 2.99696,-3.60288583 2.15614,0 2.99697,1.29884663 2.99697,3.60288583 V 15.130177 c 0,0.937429 -0.0609,1.942621 -0.36171,2.806635 L 168.60596,53 c -0.60127,1.801442 -1.13679,3.168054 -2.99696,3.168054 -1.8555,0 -2.39572,-1.366612 -2.99699,-3.168054 L 151.17375,17.936812 c -0.30066,-0.864014 -0.36171,-1.874854 -0.36171,-2.806635 V 3.7511589 c 0,-2.3040392 0.84085,-3.60288583 2.99698,-3.60288583 2.15611,0 2.99697,1.29884663 2.99697,3.60288583 V 15.271355 L 165.609,42.77865 Z"
   id="path331-7"
   style="fill:url(#linearGradient618);stroke-width:0.515046"
   sodipodi:nodetypes="csscccccssscccccccsccsccccsccccccccssssccsccssssccc" />
</svg>
